<svg width="77" height="17" viewBox="0 0 77 17" fill="none" xmlns="http://www.w3.org/2000/svg">
<path d="M23.6 16L27.776 4.432H29.664L33.832 16H32.104L31.016 12.968H26.448L25.336 16H23.6ZM26.856 11.416H30.576L28.728 6.112L26.856 11.416ZM38.3948 16.16C37.3068 16.16 36.4508 15.7893 35.8268 15.048C35.2028 14.3013 34.8908 13.2267 34.8908 11.824C34.8908 10.9653 35.0161 10.2187 35.2668 9.584C35.5174 8.944 35.8908 8.448 36.3868 8.096C36.8881 7.744 37.5068 7.568 38.2428 7.568C38.6161 7.568 38.9468 7.61333 39.2348 7.704C39.5281 7.79467 39.7841 7.912 40.0028 8.056C40.2268 8.2 40.4108 8.35467 40.5548 8.52C40.7041 8.68533 40.8188 8.84 40.8988 8.984V4.112H42.6188V16H41.3388L41.1468 14.304C41.0881 14.4853 40.9974 14.6827 40.8748 14.896C40.7521 15.1093 40.5841 15.312 40.3708 15.504C40.1628 15.696 39.8961 15.8533 39.5708 15.976C39.2454 16.0987 38.8534 16.16 38.3948 16.16ZM38.7228 14.872C39.4908 14.872 40.0454 14.632 40.3868 14.152C40.7281 13.6667 40.8988 12.872 40.8988 11.768C40.8934 11.144 40.8161 10.616 40.6668 10.184C40.5174 9.752 40.2854 9.42667 39.9708 9.208C39.6614 8.984 39.2534 8.872 38.7468 8.872C38.1121 8.872 37.5948 9.10133 37.1948 9.56C36.7948 10.0133 36.5948 10.7493 36.5948 11.768C36.5948 12.7707 36.7761 13.5387 37.1388 14.072C37.5068 14.6053 38.0348 14.872 38.7228 14.872ZM45.035 16V7.728H46.699V8.92C46.9337 8.55733 47.2537 8.24267 47.659 7.976C48.0643 7.704 48.587 7.568 49.227 7.568C49.5257 7.568 49.827 7.61867 50.131 7.72C50.4403 7.82133 50.723 7.97333 50.979 8.176C51.2403 8.37333 51.4457 8.61867 51.595 8.912C51.8563 8.51733 52.2057 8.19467 52.643 7.944C53.0803 7.69333 53.571 7.568 54.115 7.568C54.4083 7.568 54.7123 7.616 55.027 7.712C55.3417 7.80267 55.6323 7.96 55.899 8.184C56.171 8.40267 56.3897 8.70667 56.555 9.096C56.7257 9.48533 56.811 9.97867 56.811 10.576V16H55.091V10.76C55.091 10.3067 55.0137 9.952 54.859 9.696C54.7097 9.44 54.5123 9.26133 54.267 9.16C54.027 9.05333 53.771 9 53.499 9C53.2537 9 52.9977 9.048 52.731 9.144C52.4643 9.24 52.2377 9.4 52.051 9.624C51.8643 9.848 51.771 10.152 51.771 10.536V16H50.059V10.392C50.059 10.088 49.9763 9.832 49.811 9.624C49.651 9.416 49.4483 9.26133 49.203 9.16C48.963 9.05333 48.723 9 48.483 9C48.2163 9 47.9497 9.05333 47.683 9.16C47.4163 9.26667 47.1923 9.43467 47.011 9.664C46.835 9.888 46.747 10.1787 46.747 10.536V16H45.035ZM60.8118 7.728V16H59.1638V7.728H60.8118ZM60.8438 4.44V6.128H59.1238V4.44H60.8438ZM63.3631 16V7.728H65.0351V8.92C65.1685 8.696 65.3471 8.48533 65.5711 8.288C65.8005 8.09067 66.0805 7.93067 66.4111 7.808C66.7471 7.68533 67.1338 7.624 67.5711 7.624C68.0885 7.624 68.5658 7.728 69.0031 7.936C69.4458 8.13867 69.8005 8.45867 70.0671 8.896C70.3338 9.328 70.4671 9.888 70.4671 10.576V16H68.7551V10.76C68.7551 10.168 68.5951 9.728 68.2751 9.44C67.9605 9.152 67.5525 9.008 67.0511 9.008C66.7151 9.008 66.3951 9.064 66.0911 9.176C65.7871 9.288 65.5418 9.45867 65.3551 9.688C65.1685 9.912 65.0751 10.1947 65.0751 10.536V16H63.3631Z" fill="white"/>
<path d="M9.78125 9.5C8.875 9.5 8.46875 10 7 10C5.5 10 5.09375 9.5 4.1875 9.5C1.875 9.5 0 11.4062 0 13.7188V14.5C0 15.3438 0.65625 16 1.5 16H12.5C13.3125 16 14 15.3438 14 14.5V13.7188C14 11.4062 12.0938 9.5 9.78125 9.5ZM12.5 14.5H1.5V13.7188C1.5 12.2188 2.6875 11 4.1875 11C4.65625 11 5.375 11.5 7 11.5C8.59375 11.5 9.3125 11 9.78125 11C11.2812 11 12.5 12.2188 12.5 13.7188V14.5ZM7 9C9.46875 9 11.5 7 11.5 4.5C11.5 2.03125 9.46875 0 7 0C4.5 0 2.5 2.03125 2.5 4.5C2.5 7 4.5 9 7 9ZM7 1.5C8.625 1.5 10 2.875 10 4.5C10 6.15625 8.625 7.5 7 7.5C5.34375 7.5 4 6.15625 4 4.5C4 2.875 5.34375 1.5 7 1.5Z" fill="#FE461C"/>
</svg>
