<svg width="448" height="489" viewBox="0 0 448 489" fill="none" xmlns="http://www.w3.org/2000/svg">
<g filter="url(#filter0_d_2_73)">
<path d="M29.72 426.272C30.52 426.272 31.2293 426.44 31.848 426.776C32.4667 427.112 32.9627 427.557 33.336 428.112C33.7093 428.667 33.9307 429.269 34 429.92H32.656C32.5653 429.456 32.3947 429.032 32.144 428.648C31.8987 428.264 31.5707 427.957 31.16 427.728C30.7493 427.499 30.2613 427.384 29.696 427.384C28.9493 427.384 28.32 427.557 27.808 427.904C27.3013 428.251 26.9173 428.781 26.656 429.496C26.4 430.205 26.272 431.109 26.272 432.208C26.272 433.861 26.56 435.08 27.136 435.864C27.7173 436.648 28.5707 437.04 29.696 437.04C30.2613 437.04 30.7493 436.923 31.16 436.688C31.5707 436.448 31.8987 436.133 32.144 435.744C32.3947 435.349 32.5653 434.92 32.656 434.456H34C33.9413 434.931 33.808 435.392 33.6 435.84C33.3973 436.283 33.1173 436.68 32.76 437.032C32.408 437.379 31.976 437.653 31.464 437.856C30.9573 438.059 30.376 438.16 29.72 438.16C28.6907 438.16 27.816 437.928 27.096 437.464C26.3813 436.995 25.8347 436.317 25.456 435.432C25.0773 434.541 24.888 433.461 24.888 432.192C24.888 430.923 25.0747 429.848 25.448 428.968C25.8267 428.088 26.376 427.419 27.096 426.96C27.816 426.501 28.6907 426.272 29.72 426.272ZM39.3554 438.16C38.6087 438.16 37.9527 438 37.3874 437.68C36.8274 437.355 36.3927 436.875 36.0834 436.24C35.774 435.605 35.6194 434.824 35.6194 433.896C35.6194 433.032 35.7607 432.275 36.0434 431.624C36.3314 430.973 36.7527 430.469 37.3074 430.112C37.862 429.749 38.5474 429.568 39.3634 429.568C40.11 429.568 40.758 429.733 41.3074 430.064C41.862 430.389 42.2914 430.875 42.5954 431.52C42.9047 432.16 43.0594 432.952 43.0594 433.896C43.0594 434.739 42.9207 435.48 42.6434 436.12C42.366 436.76 41.9527 437.261 41.4034 437.624C40.8594 437.981 40.1767 438.16 39.3554 438.16ZM39.3634 437.152C39.8807 437.152 40.3207 437.024 40.6834 436.768C41.0514 436.512 41.3314 436.139 41.5234 435.648C41.7207 435.157 41.8194 434.563 41.8194 433.864C41.8194 433.235 41.734 432.672 41.5634 432.176C41.3927 431.68 41.126 431.291 40.7634 431.008C40.4007 430.72 39.934 430.576 39.3634 430.576C38.8354 430.576 38.3847 430.704 38.0114 430.96C37.6434 431.211 37.3607 431.581 37.1634 432.072C36.966 432.563 36.8674 433.16 36.8674 433.864C36.8674 434.493 36.9527 435.056 37.1234 435.552C37.2994 436.043 37.5714 436.432 37.9394 436.72C38.3074 437.008 38.782 437.152 39.3634 437.152ZM45.0925 438V429.728H46.2925V430.936C46.4312 430.696 46.6205 430.475 46.8605 430.272C47.1058 430.069 47.4018 429.907 47.7485 429.784C48.1005 429.661 48.4952 429.6 48.9325 429.6C49.4658 429.6 49.9512 429.707 50.3885 429.92C50.8312 430.128 51.1832 430.453 51.4445 430.896C51.7058 431.339 51.8365 431.907 51.8365 432.6V438H50.5885V432.712C50.5885 432.008 50.4098 431.488 50.0525 431.152C49.6952 430.816 49.2232 430.648 48.6365 430.648C48.2365 430.648 47.8605 430.712 47.5085 430.84C47.1565 430.968 46.8738 431.163 46.6605 431.424C46.4472 431.685 46.3405 432.013 46.3405 432.408V438H45.0925ZM60.2868 429.728L57.3428 438H56.0868L53.1348 429.728H54.3268L56.6308 436.456H56.7828L59.1108 429.728H60.2868ZM62.5182 434.152C62.5182 434.707 62.6089 435.211 62.7903 435.664C62.9716 436.117 63.2516 436.48 63.6303 436.752C64.0089 437.024 64.4889 437.16 65.0703 437.16C65.6303 437.16 66.1129 437.029 66.5183 436.768C66.9236 436.501 67.1769 436.125 67.2783 435.64H68.4783C68.3769 436.195 68.1556 436.659 67.8143 437.032C67.4783 437.405 67.0703 437.688 66.5903 437.88C66.1156 438.067 65.6143 438.16 65.0863 438.16C64.3289 438.16 63.6596 437.995 63.0783 437.664C62.5023 437.328 62.0516 436.845 61.7263 436.216C61.4063 435.587 61.2463 434.829 61.2463 433.944C61.2463 433.064 61.3929 432.296 61.6863 431.64C61.9796 430.979 62.4036 430.469 62.9583 430.112C63.5183 429.749 64.1929 429.568 64.9823 429.568C65.7449 429.568 66.3903 429.733 66.9183 430.064C67.4463 430.389 67.8489 430.856 68.1263 431.464C68.4036 432.072 68.5423 432.797 68.5423 433.64V434.152H62.5182ZM62.5263 433.264H67.3263C67.3263 432.752 67.2409 432.291 67.0703 431.88C66.8996 431.469 66.6409 431.144 66.2943 430.904C65.9476 430.664 65.5076 430.544 64.9743 430.544C64.4089 430.544 63.9449 430.68 63.5823 430.952C63.2249 431.219 62.9583 431.56 62.7823 431.976C62.6063 432.392 62.5209 432.821 62.5263 433.264ZM70.6706 438V429.728H71.8706V430.936C72.0093 430.696 72.1986 430.475 72.4386 430.272C72.684 430.069 72.98 429.907 73.3266 429.784C73.6786 429.661 74.0733 429.6 74.5106 429.6C75.044 429.6 75.5293 429.707 75.9666 429.92C76.4093 430.128 76.7613 430.453 77.0226 430.896C77.284 431.339 77.4146 431.907 77.4146 432.6V438H76.1666V432.712C76.1666 432.008 75.988 431.488 75.6306 431.152C75.2733 430.816 74.8013 430.648 74.2146 430.648C73.8146 430.648 73.4386 430.712 73.0866 430.84C72.7346 430.968 72.452 431.163 72.2386 431.424C72.0253 431.685 71.9186 432.013 71.9186 432.408V438H70.6706ZM81.2269 429.728V438H80.0109V429.728H81.2269ZM81.2669 426.44V427.816H79.9549V426.44H81.2669ZM84.7839 434.152C84.7839 434.707 84.8745 435.211 85.0559 435.664C85.2372 436.117 85.5172 436.48 85.8959 436.752C86.2745 437.024 86.7545 437.16 87.3359 437.16C87.8959 437.16 88.3785 437.029 88.7839 436.768C89.1892 436.501 89.4425 436.125 89.5439 435.64H90.7439C90.6425 436.195 90.4212 436.659 90.0799 437.032C89.7439 437.405 89.3359 437.688 88.8559 437.88C88.3812 438.067 87.8799 438.16 87.3519 438.16C86.5945 438.16 85.9252 437.995 85.3439 437.664C84.7679 437.328 84.3172 436.845 83.9919 436.216C83.6719 435.587 83.5119 434.829 83.5119 433.944C83.5119 433.064 83.6585 432.296 83.9519 431.64C84.2452 430.979 84.6692 430.469 85.2239 430.112C85.7839 429.749 86.4585 429.568 87.2479 429.568C88.0105 429.568 88.6559 429.733 89.1839 430.064C89.7119 430.389 90.1145 430.856 90.3919 431.464C90.6692 432.072 90.8079 432.797 90.8079 433.64V434.152H84.7839ZM84.7919 433.264H89.5919C89.5919 432.752 89.5065 432.291 89.3359 431.88C89.1652 431.469 88.9065 431.144 88.5599 430.904C88.2132 430.664 87.7732 430.544 87.2399 430.544C86.6745 430.544 86.2105 430.68 85.8479 430.952C85.4905 431.219 85.2239 431.56 85.0479 431.976C84.8719 432.392 84.7865 432.821 84.7919 433.264ZM92.9363 438V429.728H94.1363V430.936C94.2749 430.696 94.4643 430.475 94.7043 430.272C94.9496 430.069 95.2456 429.907 95.5923 429.784C95.9443 429.661 96.3389 429.6 96.7763 429.6C97.3096 429.6 97.7949 429.707 98.2323 429.92C98.6749 430.128 99.0269 430.453 99.2883 430.896C99.5496 431.339 99.6803 431.907 99.6803 432.6V438H98.4323V432.712C98.4323 432.008 98.2536 431.488 97.8963 431.152C97.5389 430.816 97.0669 430.648 96.4803 430.648C96.0803 430.648 95.7043 430.712 95.3523 430.84C95.0003 430.968 94.7176 431.163 94.5043 431.424C94.2909 431.685 94.1843 432.013 94.1843 432.408V438H92.9363ZM105.666 430.664H103.794V436C103.794 436.32 103.823 436.555 103.882 436.704C103.946 436.848 104.055 436.941 104.21 436.984C104.37 437.021 104.591 437.04 104.874 437.04H105.722V437.904C105.62 437.941 105.468 437.973 105.266 438C105.068 438.021 104.831 438.032 104.554 438.032C104.026 438.032 103.615 437.957 103.322 437.808C103.034 437.659 102.831 437.437 102.714 437.144C102.596 436.851 102.538 436.483 102.538 436.04V430.664H101.194V429.728H102.57L102.866 427.344H103.794V429.72H105.666V430.664ZM109.841 438.088C109.446 438.088 109.121 438.032 108.865 437.92C108.614 437.803 108.417 437.643 108.273 437.44C108.134 437.237 108.038 437.005 107.985 436.744C107.932 436.483 107.905 436.208 107.905 435.92V426.112H109.137V435.816C109.137 436.269 109.222 436.603 109.393 436.816C109.564 437.024 109.788 437.136 110.065 437.152L110.529 437.16V437.976C110.412 438.013 110.292 438.04 110.169 438.056C110.046 438.077 109.937 438.088 109.841 438.088ZM112.937 440.64C112.473 440.64 112.158 440.608 111.993 440.544C111.827 440.485 111.745 440.456 111.745 440.456V439.64L112.593 439.648C112.886 439.659 113.131 439.637 113.329 439.584C113.531 439.531 113.694 439.456 113.817 439.36C113.939 439.269 114.035 439.165 114.105 439.048C114.179 438.936 114.241 438.824 114.289 438.712L114.617 437.84L111.385 429.728H112.649L115.217 436.384L117.753 429.728H118.977L115.457 438.776C115.259 439.256 115.035 439.629 114.785 439.896C114.539 440.168 114.262 440.36 113.953 440.472C113.643 440.584 113.305 440.64 112.937 440.64ZM125.789 429.728V438H124.573V429.728H125.789ZM125.829 426.44V427.816H124.517V426.44H125.829ZM128.624 438V429.728H129.824V430.936C129.962 430.696 130.152 430.475 130.392 430.272C130.637 430.069 130.933 429.907 131.28 429.784C131.632 429.661 132.026 429.6 132.464 429.6C132.997 429.6 133.482 429.707 133.92 429.92C134.362 430.128 134.714 430.453 134.976 430.896C135.237 431.339 135.368 431.907 135.368 432.6V438H134.12V432.712C134.12 432.008 133.941 431.488 133.584 431.152C133.226 430.816 132.754 430.648 132.168 430.648C131.768 430.648 131.392 430.712 131.04 430.84C130.688 430.968 130.405 431.163 130.192 431.424C129.978 431.685 129.872 432.013 129.872 432.408V438H128.624ZM137.78 438V429.728H138.98V430.936C139.119 430.696 139.308 430.475 139.548 430.272C139.793 430.069 140.089 429.907 140.436 429.784C140.788 429.661 141.183 429.6 141.62 429.6C142.153 429.6 142.639 429.707 143.076 429.92C143.519 430.128 143.871 430.453 144.132 430.896C144.393 431.339 144.524 431.907 144.524 432.6V438H143.276V432.712C143.276 432.008 143.097 431.488 142.74 431.152C142.383 430.816 141.911 430.648 141.324 430.648C140.924 430.648 140.548 430.712 140.196 430.84C139.844 430.968 139.561 431.163 139.348 431.424C139.135 431.685 139.028 432.013 139.028 432.408V438H137.78ZM150.152 438.16C149.406 438.16 148.75 438 148.184 437.68C147.624 437.355 147.19 436.875 146.88 436.24C146.571 435.605 146.416 434.824 146.416 433.896C146.416 433.032 146.558 432.275 146.84 431.624C147.128 430.973 147.55 430.469 148.104 430.112C148.659 429.749 149.344 429.568 150.16 429.568C150.907 429.568 151.555 429.733 152.104 430.064C152.659 430.389 153.088 430.875 153.392 431.52C153.702 432.16 153.856 432.952 153.856 433.896C153.856 434.739 153.718 435.48 153.44 436.12C153.163 436.76 152.75 437.261 152.2 437.624C151.656 437.981 150.974 438.16 150.152 438.16ZM150.16 437.152C150.678 437.152 151.118 437.024 151.48 436.768C151.848 436.512 152.128 436.139 152.32 435.648C152.518 435.157 152.616 434.563 152.616 433.864C152.616 433.235 152.531 432.672 152.36 432.176C152.19 431.68 151.923 431.291 151.56 431.008C151.198 430.72 150.731 430.576 150.16 430.576C149.632 430.576 149.182 430.704 148.808 430.96C148.44 431.211 148.158 431.581 147.96 432.072C147.763 432.563 147.664 433.16 147.664 433.864C147.664 434.493 147.75 435.056 147.92 435.552C148.096 436.043 148.368 436.432 148.736 436.72C149.104 437.008 149.579 437.152 150.16 437.152ZM161.959 429.728L159.015 438H157.759L154.807 429.728H155.999L158.303 436.456H158.455L160.783 429.728H161.959ZM165.622 438.16C165.083 438.16 164.611 438.067 164.206 437.88C163.801 437.688 163.483 437.416 163.254 437.064C163.03 436.712 162.918 436.288 162.918 435.792C162.918 434.875 163.23 434.195 163.854 433.752C164.483 433.309 165.499 433.069 166.902 433.032L168.502 432.984V432.296C168.502 431.757 168.337 431.328 168.006 431.008C167.681 430.683 167.177 430.523 166.494 430.528C165.982 430.528 165.537 430.648 165.158 430.888C164.785 431.123 164.547 431.501 164.446 432.024H163.31C163.342 431.507 163.489 431.067 163.75 430.704C164.011 430.336 164.379 430.056 164.854 429.864C165.329 429.667 165.897 429.568 166.558 429.568C167.241 429.568 167.814 429.669 168.278 429.872C168.747 430.069 169.102 430.368 169.342 430.768C169.582 431.163 169.702 431.653 169.702 432.24V438H168.63L168.542 436.408C168.211 437.064 167.79 437.52 167.278 437.776C166.771 438.032 166.219 438.16 165.622 438.16ZM165.974 437.224C166.273 437.224 166.569 437.171 166.862 437.064C167.161 436.957 167.433 436.811 167.678 436.624C167.923 436.437 168.121 436.229 168.27 436C168.419 435.771 168.497 435.536 168.502 435.296V433.824L167.166 433.848C166.467 433.859 165.894 433.928 165.446 434.056C165.003 434.184 164.673 434.381 164.454 434.648C164.241 434.909 164.134 435.253 164.134 435.68C164.134 436.165 164.305 436.544 164.646 436.816C164.987 437.088 165.43 437.224 165.974 437.224ZM175.916 430.664H174.044V436C174.044 436.32 174.073 436.555 174.132 436.704C174.196 436.848 174.305 436.941 174.46 436.984C174.62 437.021 174.841 437.04 175.124 437.04H175.972V437.904C175.87 437.941 175.718 437.973 175.516 438C175.318 438.021 175.081 438.032 174.804 438.032C174.276 438.032 173.865 437.957 173.572 437.808C173.284 437.659 173.081 437.437 172.964 437.144C172.846 436.851 172.788 436.483 172.788 436.04V430.664H171.444V429.728H172.82L173.116 427.344H174.044V429.72H175.916V430.664ZM178.784 434.152C178.784 434.707 178.875 435.211 179.056 435.664C179.237 436.117 179.517 436.48 179.896 436.752C180.275 437.024 180.755 437.16 181.336 437.16C181.896 437.16 182.379 437.029 182.784 436.768C183.189 436.501 183.443 436.125 183.544 435.64H184.744C184.643 436.195 184.421 436.659 184.08 437.032C183.744 437.405 183.336 437.688 182.856 437.88C182.381 438.067 181.88 438.16 181.352 438.16C180.595 438.16 179.925 437.995 179.344 437.664C178.768 437.328 178.317 436.845 177.992 436.216C177.672 435.587 177.512 434.829 177.512 433.944C177.512 433.064 177.659 432.296 177.952 431.64C178.245 430.979 178.669 430.469 179.224 430.112C179.784 429.749 180.459 429.568 181.248 429.568C182.011 429.568 182.656 429.733 183.184 430.064C183.712 430.389 184.115 430.856 184.392 431.464C184.669 432.072 184.808 432.797 184.808 433.64V434.152H178.784ZM178.792 433.264H183.592C183.592 432.752 183.507 432.291 183.336 431.88C183.165 431.469 182.907 431.144 182.56 430.904C182.213 430.664 181.773 430.544 181.24 430.544C180.675 430.544 180.211 430.68 179.848 430.952C179.491 431.219 179.224 431.56 179.048 431.976C178.872 432.392 178.787 432.821 178.792 433.264ZM201.227 429.728L198.779 438H197.435L195.459 431.592L193.587 438H192.243L189.723 429.728H190.899L192.883 436.416H193.027L194.987 429.728H195.955L197.995 436.4H198.147L200.043 429.728H201.227ZM203.565 434.152C203.565 434.707 203.656 435.211 203.837 435.664C204.018 436.117 204.298 436.48 204.677 436.752C205.056 437.024 205.536 437.16 206.117 437.16C206.677 437.16 207.16 437.029 207.565 436.768C207.97 436.501 208.224 436.125 208.325 435.64H209.525C209.424 436.195 209.202 436.659 208.861 437.032C208.525 437.405 208.117 437.688 207.637 437.88C207.162 438.067 206.661 438.16 206.133 438.16C205.376 438.16 204.706 437.995 204.125 437.664C203.549 437.328 203.098 436.845 202.773 436.216C202.453 435.587 202.293 434.829 202.293 433.944C202.293 433.064 202.44 432.296 202.733 431.64C203.026 430.979 203.45 430.469 204.005 430.112C204.565 429.749 205.24 429.568 206.029 429.568C206.792 429.568 207.437 429.733 207.965 430.064C208.493 430.389 208.896 430.856 209.173 431.464C209.45 432.072 209.589 432.797 209.589 433.64V434.152H203.565ZM203.573 433.264H208.373C208.373 432.752 208.288 432.291 208.117 431.88C207.946 431.469 207.688 431.144 207.341 430.904C206.994 430.664 206.554 430.544 206.021 430.544C205.456 430.544 204.992 430.68 204.629 430.952C204.272 431.219 204.005 431.56 203.829 431.976C203.653 432.392 203.568 432.821 203.573 433.264ZM215.67 438.16C215.163 438.16 214.736 438.093 214.39 437.96C214.048 437.821 213.771 437.651 213.558 437.448C213.344 437.245 213.182 437.04 213.07 436.832C212.958 436.624 212.878 436.448 212.83 436.304L212.702 438H211.718V426.112H212.982V431.088C213.04 430.965 213.139 430.819 213.278 430.648C213.416 430.477 213.598 430.309 213.822 430.144C214.046 429.979 214.318 429.843 214.638 429.736C214.958 429.624 215.328 429.568 215.75 429.568C216.784 429.568 217.611 429.925 218.23 430.64C218.848 431.355 219.158 432.419 219.158 433.832C219.158 434.701 219.027 435.461 218.766 436.112C218.51 436.757 218.123 437.261 217.606 437.624C217.094 437.981 216.448 438.16 215.67 438.16ZM215.47 437.168C216.19 437.168 216.771 436.893 217.214 436.344C217.662 435.795 217.886 434.931 217.886 433.752C217.886 432.76 217.68 431.981 217.27 431.416C216.859 430.851 216.248 430.568 215.438 430.568C214.845 430.568 214.371 430.696 214.014 430.952C213.656 431.203 213.395 431.565 213.23 432.04C213.07 432.515 212.987 433.085 212.982 433.752C212.982 434.957 213.171 435.829 213.55 436.368C213.928 436.901 214.568 437.168 215.47 437.168ZM227.706 438.16C227.13 438.16 226.599 438.072 226.114 437.896C225.634 437.715 225.237 437.44 224.922 437.072C224.613 436.699 224.418 436.224 224.338 435.648H225.498C225.573 435.979 225.709 436.259 225.906 436.488C226.103 436.717 226.354 436.893 226.658 437.016C226.967 437.133 227.317 437.192 227.706 437.192C228.293 437.192 228.765 437.08 229.122 436.856C229.479 436.627 229.658 436.277 229.658 435.808C229.658 435.483 229.565 435.221 229.378 435.024C229.197 434.827 228.919 434.683 228.546 434.592L226.762 434.136C226.111 433.971 225.594 433.723 225.21 433.392C224.826 433.056 224.631 432.589 224.626 431.992C224.626 431.517 224.738 431.099 224.962 430.736C225.191 430.373 225.533 430.088 225.986 429.88C226.439 429.672 227.007 429.568 227.69 429.568C228.559 429.568 229.261 429.763 229.794 430.152C230.327 430.541 230.61 431.123 230.642 431.896H229.506C229.453 431.475 229.271 431.141 228.962 430.896C228.653 430.645 228.226 430.52 227.682 430.52C227.122 430.52 226.666 430.635 226.314 430.864C225.967 431.093 225.794 431.448 225.794 431.928C225.794 432.248 225.914 432.499 226.154 432.68C226.394 432.856 226.743 433.003 227.202 433.12L228.946 433.576C229.309 433.672 229.607 433.8 229.842 433.96C230.082 434.115 230.271 434.291 230.41 434.488C230.554 434.68 230.655 434.885 230.714 435.104C230.778 435.323 230.81 435.533 230.81 435.736C230.81 436.232 230.69 436.661 230.45 437.024C230.21 437.387 229.858 437.667 229.394 437.864C228.935 438.061 228.373 438.16 227.706 438.16ZM233.815 434.152C233.815 434.707 233.906 435.211 234.087 435.664C234.268 436.117 234.548 436.48 234.927 436.752C235.306 437.024 235.786 437.16 236.367 437.16C236.927 437.16 237.41 437.029 237.815 436.768C238.22 436.501 238.474 436.125 238.575 435.64H239.775C239.674 436.195 239.452 436.659 239.111 437.032C238.775 437.405 238.367 437.688 237.887 437.88C237.412 438.067 236.911 438.16 236.383 438.16C235.626 438.16 234.956 437.995 234.375 437.664C233.799 437.328 233.348 436.845 233.023 436.216C232.703 435.587 232.543 434.829 232.543 433.944C232.543 433.064 232.69 432.296 232.983 431.64C233.276 430.979 233.7 430.469 234.255 430.112C234.815 429.749 235.49 429.568 236.279 429.568C237.042 429.568 237.687 429.733 238.215 430.064C238.743 430.389 239.146 430.856 239.423 431.464C239.7 432.072 239.839 432.797 239.839 433.64V434.152H233.815ZM233.823 433.264H238.623C238.623 432.752 238.538 432.291 238.367 431.88C238.196 431.469 237.938 431.144 237.591 430.904C237.244 430.664 236.804 430.544 236.271 430.544C235.706 430.544 235.242 430.68 234.879 430.952C234.522 431.219 234.255 431.56 234.079 431.976C233.903 432.392 233.818 432.821 233.823 433.264ZM241.968 438V429.728H243.152V431.224C243.29 430.835 243.485 430.52 243.736 430.28C243.992 430.035 244.277 429.856 244.592 429.744C244.912 429.627 245.234 429.568 245.56 429.568C245.693 429.568 245.824 429.579 245.952 429.6C246.08 429.616 246.181 429.645 246.256 429.688V430.904C246.17 430.861 246.056 430.832 245.912 430.816C245.773 430.8 245.656 430.792 245.56 430.792C245.266 430.776 244.981 430.797 244.704 430.856C244.426 430.915 244.173 431.019 243.944 431.168C243.72 431.317 243.541 431.517 243.408 431.768C243.28 432.019 243.216 432.325 243.216 432.688V438H241.968ZM254.771 429.728L251.827 438H250.571L247.619 429.728H248.811L251.115 436.456H251.267L253.595 429.728H254.771ZM257.852 429.728V438H256.636V429.728H257.852ZM257.892 426.44V427.816H256.58V426.44H257.892ZM263.809 429.568C264.38 429.568 264.897 429.675 265.361 429.888C265.825 430.101 266.209 430.408 266.513 430.808C266.817 431.203 267.012 431.68 267.097 432.24H265.953C265.9 431.931 265.78 431.653 265.593 431.408C265.406 431.157 265.161 430.96 264.857 430.816C264.558 430.672 264.212 430.6 263.817 430.6C263.065 430.6 262.452 430.869 261.977 431.408C261.508 431.941 261.273 432.765 261.273 433.88C261.273 434.877 261.486 435.677 261.913 436.28C262.345 436.877 262.985 437.176 263.833 437.176C264.228 437.176 264.574 437.104 264.873 436.96C265.177 436.811 265.422 436.613 265.609 436.368C265.796 436.117 265.913 435.843 265.961 435.544H267.089C267.009 436.088 266.814 436.557 266.505 436.952C266.196 437.341 265.809 437.64 265.345 437.848C264.886 438.056 264.374 438.16 263.809 438.16C263.073 438.16 262.422 438 261.857 437.68C261.292 437.36 260.849 436.883 260.529 436.248C260.214 435.613 260.057 434.827 260.057 433.888C260.057 433.029 260.201 432.277 260.489 431.632C260.777 430.981 261.198 430.475 261.753 430.112C262.313 429.749 262.998 429.568 263.809 429.568ZM270.034 434.152C270.034 434.707 270.125 435.211 270.306 435.664C270.487 436.117 270.767 436.48 271.146 436.752C271.525 437.024 272.005 437.16 272.586 437.16C273.146 437.16 273.629 437.029 274.034 436.768C274.439 436.501 274.693 436.125 274.794 435.64H275.994C275.893 436.195 275.671 436.659 275.33 437.032C274.994 437.405 274.586 437.688 274.106 437.88C273.631 438.067 273.13 438.16 272.602 438.16C271.845 438.16 271.175 437.995 270.594 437.664C270.018 437.328 269.567 436.845 269.242 436.216C268.922 435.587 268.762 434.829 268.762 433.944C268.762 433.064 268.909 432.296 269.202 431.64C269.495 430.979 269.919 430.469 270.474 430.112C271.034 429.749 271.709 429.568 272.498 429.568C273.261 429.568 273.906 429.733 274.434 430.064C274.962 430.389 275.365 430.856 275.642 431.464C275.919 432.072 276.058 432.797 276.058 433.64V434.152H270.034ZM270.042 433.264H274.842C274.842 432.752 274.757 432.291 274.586 431.88C274.415 431.469 274.157 431.144 273.81 430.904C273.463 430.664 273.023 430.544 272.49 430.544C271.925 430.544 271.461 430.68 271.098 430.952C270.741 431.219 270.474 431.56 270.298 431.976C270.122 432.392 270.037 432.821 270.042 433.264ZM280.972 438.16C280.396 438.16 279.865 438.072 279.38 437.896C278.9 437.715 278.502 437.44 278.188 437.072C277.878 436.699 277.684 436.224 277.604 435.648H278.764C278.838 435.979 278.974 436.259 279.172 436.488C279.369 436.717 279.62 436.893 279.924 437.016C280.233 437.133 280.582 437.192 280.972 437.192C281.558 437.192 282.03 437.08 282.388 436.856C282.745 436.627 282.924 436.277 282.924 435.808C282.924 435.483 282.83 435.221 282.644 435.024C282.462 434.827 282.185 434.683 281.812 434.592L280.028 434.136C279.377 433.971 278.86 433.723 278.476 433.392C278.092 433.056 277.897 432.589 277.892 431.992C277.892 431.517 278.004 431.099 278.228 430.736C278.457 430.373 278.798 430.088 279.252 429.88C279.705 429.672 280.273 429.568 280.956 429.568C281.825 429.568 282.526 429.763 283.06 430.152C283.593 430.541 283.876 431.123 283.908 431.896H282.772C282.718 431.475 282.537 431.141 282.228 430.896C281.918 430.645 281.492 430.52 280.948 430.52C280.388 430.52 279.932 430.635 279.58 430.864C279.233 431.093 279.06 431.448 279.06 431.928C279.06 432.248 279.18 432.499 279.42 432.68C279.66 432.856 280.009 433.003 280.468 433.12L282.212 433.576C282.574 433.672 282.873 433.8 283.108 433.96C283.348 434.115 283.537 434.291 283.676 434.488C283.82 434.68 283.921 434.885 283.98 435.104C284.044 435.323 284.076 435.533 284.076 435.736C284.076 436.232 283.956 436.661 283.716 437.024C283.476 437.387 283.124 437.667 282.66 437.864C282.201 438.061 281.638 438.16 280.972 438.16ZM293.008 438.16C292.565 438.155 292.152 438.093 291.768 437.976C291.384 437.853 291.045 437.675 290.752 437.44C290.464 437.2 290.237 436.904 290.072 436.552C289.912 436.195 289.832 435.781 289.832 435.312V429.728H291.08V435.2C291.08 435.781 291.256 436.253 291.608 436.616C291.96 436.973 292.501 437.152 293.232 437.152C293.882 437.152 294.405 436.984 294.8 436.648C295.194 436.307 295.392 435.792 295.392 435.104V429.728H296.632V438H295.624L295.496 436.432C295.4 436.827 295.232 437.152 294.992 437.408C294.757 437.664 294.469 437.856 294.128 437.984C293.792 438.107 293.418 438.165 293.008 438.16ZM301.909 438.16C301.333 438.16 300.803 438.072 300.317 437.896C299.837 437.715 299.44 437.44 299.125 437.072C298.816 436.699 298.621 436.224 298.541 435.648H299.701C299.776 435.979 299.912 436.259 300.109 436.488C300.307 436.717 300.557 436.893 300.861 437.016C301.171 437.133 301.52 437.192 301.909 437.192C302.496 437.192 302.968 437.08 303.325 436.856C303.683 436.627 303.861 436.277 303.861 435.808C303.861 435.483 303.768 435.221 303.581 435.024C303.4 434.827 303.123 434.683 302.749 434.592L300.965 434.136C300.315 433.971 299.797 433.723 299.413 433.392C299.029 433.056 298.835 432.589 298.829 431.992C298.829 431.517 298.941 431.099 299.165 430.736C299.395 430.373 299.736 430.088 300.189 429.88C300.643 429.672 301.211 429.568 301.893 429.568C302.763 429.568 303.464 429.763 303.997 430.152C304.531 430.541 304.813 431.123 304.845 431.896H303.709C303.656 431.475 303.475 431.141 303.165 430.896C302.856 430.645 302.429 430.52 301.885 430.52C301.325 430.52 300.869 430.635 300.517 430.864C300.171 431.093 299.997 431.448 299.997 431.928C299.997 432.248 300.117 432.499 300.357 432.68C300.597 432.856 300.947 433.003 301.405 433.12L303.149 433.576C303.512 433.672 303.811 433.8 304.045 433.96C304.285 434.115 304.475 434.291 304.613 434.488C304.757 434.68 304.859 434.885 304.917 435.104C304.981 435.323 305.013 435.533 305.013 435.736C305.013 436.232 304.893 436.661 304.653 437.024C304.413 437.387 304.061 437.667 303.597 437.864C303.139 438.061 302.576 438.16 301.909 438.16ZM308.018 434.152C308.018 434.707 308.109 435.211 308.29 435.664C308.472 436.117 308.752 436.48 309.13 436.752C309.509 437.024 309.989 437.16 310.57 437.16C311.13 437.16 311.613 437.029 312.018 436.768C312.424 436.501 312.677 436.125 312.778 435.64H313.978C313.877 436.195 313.656 436.659 313.314 437.032C312.978 437.405 312.57 437.688 312.09 437.88C311.616 438.067 311.114 438.16 310.586 438.16C309.829 438.16 309.16 437.995 308.578 437.664C308.002 437.328 307.552 436.845 307.226 436.216C306.906 435.587 306.746 434.829 306.746 433.944C306.746 433.064 306.893 432.296 307.186 431.64C307.48 430.979 307.904 430.469 308.458 430.112C309.018 429.749 309.693 429.568 310.482 429.568C311.245 429.568 311.89 429.733 312.418 430.064C312.946 430.389 313.349 430.856 313.626 431.464C313.904 432.072 314.042 432.797 314.042 433.64V434.152H308.018ZM308.026 433.264H312.826C312.826 432.752 312.741 432.291 312.57 431.88C312.4 431.469 312.141 431.144 311.794 430.904C311.448 430.664 311.008 430.544 310.474 430.544C309.909 430.544 309.445 430.68 309.082 430.952C308.725 431.219 308.458 431.56 308.282 431.976C308.106 432.392 308.021 432.821 308.026 433.264ZM316.171 438V429.728H317.355V431.224C317.493 430.835 317.688 430.52 317.939 430.28C318.195 430.035 318.48 429.856 318.795 429.744C319.115 429.627 319.437 429.568 319.763 429.568C319.896 429.568 320.027 429.579 320.155 429.6C320.283 429.616 320.384 429.645 320.459 429.688V430.904C320.373 430.861 320.259 430.832 320.115 430.816C319.976 430.8 319.859 430.792 319.763 430.792C319.469 430.776 319.184 430.797 318.907 430.856C318.629 430.915 318.376 431.019 318.147 431.168C317.923 431.317 317.744 431.517 317.611 431.768C317.483 432.019 317.419 432.325 317.419 432.688V438H316.171ZM325.101 433.352V434.368L321.125 434.376V433.36L325.101 433.352ZM330.684 429.568C331.255 429.568 331.772 429.675 332.236 429.888C332.7 430.101 333.084 430.408 333.388 430.808C333.692 431.203 333.887 431.68 333.972 432.24H332.828C332.775 431.931 332.655 431.653 332.468 431.408C332.281 431.157 332.036 430.96 331.732 430.816C331.433 430.672 331.087 430.6 330.692 430.6C329.94 430.6 329.327 430.869 328.852 431.408C328.383 431.941 328.148 432.765 328.148 433.88C328.148 434.877 328.361 435.677 328.788 436.28C329.22 436.877 329.86 437.176 330.708 437.176C331.103 437.176 331.449 437.104 331.748 436.96C332.052 436.811 332.297 436.613 332.484 436.368C332.671 436.117 332.788 435.843 332.836 435.544H333.964C333.884 436.088 333.689 436.557 333.38 436.952C333.071 437.341 332.684 437.64 332.22 437.848C331.761 438.056 331.249 438.16 330.684 438.16C329.948 438.16 329.297 438 328.732 437.68C328.167 437.36 327.724 436.883 327.404 436.248C327.089 435.613 326.932 434.827 326.932 433.888C326.932 433.029 327.076 432.277 327.364 431.632C327.652 430.981 328.073 430.475 328.628 430.112C329.188 429.749 329.873 429.568 330.684 429.568ZM336.909 434.152C336.909 434.707 337 435.211 337.181 435.664C337.362 436.117 337.642 436.48 338.021 436.752C338.4 437.024 338.88 437.16 339.461 437.16C340.021 437.16 340.504 437.029 340.909 436.768C341.314 436.501 341.568 436.125 341.669 435.64H342.869C342.768 436.195 342.546 436.659 342.205 437.032C341.869 437.405 341.461 437.688 340.981 437.88C340.506 438.067 340.005 438.16 339.477 438.16C338.72 438.16 338.05 437.995 337.469 437.664C336.893 437.328 336.442 436.845 336.117 436.216C335.797 435.587 335.637 434.829 335.637 433.944C335.637 433.064 335.784 432.296 336.077 431.64C336.37 430.979 336.794 430.469 337.349 430.112C337.909 429.749 338.584 429.568 339.373 429.568C340.136 429.568 340.781 429.733 341.309 430.064C341.837 430.389 342.24 430.856 342.517 431.464C342.794 432.072 342.933 432.797 342.933 433.64V434.152H336.909ZM336.917 433.264H341.717C341.717 432.752 341.632 432.291 341.461 431.88C341.29 431.469 341.032 431.144 340.685 430.904C340.338 430.664 339.898 430.544 339.365 430.544C338.8 430.544 338.336 430.68 337.973 430.952C337.616 431.219 337.349 431.56 337.173 431.976C336.997 432.392 336.912 432.821 336.917 433.264ZM345.061 438V429.728H346.261V430.936C346.4 430.696 346.589 430.475 346.829 430.272C347.075 430.069 347.371 429.907 347.717 429.784C348.069 429.661 348.464 429.6 348.901 429.6C349.435 429.6 349.92 429.707 350.357 429.92C350.8 430.128 351.152 430.453 351.413 430.896C351.675 431.339 351.805 431.907 351.805 432.6V438H350.557V432.712C350.557 432.008 350.379 431.488 350.021 431.152C349.664 430.816 349.192 430.648 348.605 430.648C348.205 430.648 347.829 430.712 347.477 430.84C347.125 430.968 346.843 431.163 346.629 431.424C346.416 431.685 346.309 432.013 346.309 432.408V438H345.061ZM357.791 430.664H355.919V436C355.919 436.32 355.948 436.555 356.007 436.704C356.071 436.848 356.18 436.941 356.335 436.984C356.495 437.021 356.716 437.04 356.999 437.04H357.847V437.904C357.745 437.941 357.593 437.973 357.391 438C357.193 438.021 356.956 438.032 356.679 438.032C356.151 438.032 355.74 437.957 355.447 437.808C355.159 437.659 354.956 437.437 354.839 437.144C354.721 436.851 354.663 436.483 354.663 436.04V430.664H353.319V429.728H354.695L354.991 427.344H355.919V429.72H357.791V430.664ZM360.03 438V429.728H361.214V431.224C361.353 430.835 361.547 430.52 361.798 430.28C362.054 430.035 362.339 429.856 362.654 429.744C362.974 429.627 363.297 429.568 363.622 429.568C363.755 429.568 363.886 429.579 364.014 429.6C364.142 429.616 364.243 429.645 364.318 429.688V430.904C364.233 430.861 364.118 430.832 363.974 430.816C363.835 430.8 363.718 430.792 363.622 430.792C363.329 430.776 363.043 430.797 362.766 430.856C362.489 430.915 362.235 431.019 362.006 431.168C361.782 431.317 361.603 431.517 361.47 431.768C361.342 432.019 361.278 432.325 361.278 432.688V438H360.03ZM367.555 429.728V438H366.339V429.728H367.555ZM367.595 426.44V427.816H366.283V426.44H367.595ZM373.512 429.568C374.083 429.568 374.6 429.675 375.064 429.888C375.528 430.101 375.912 430.408 376.216 430.808C376.52 431.203 376.715 431.68 376.8 432.24H375.656C375.603 431.931 375.483 431.653 375.296 431.408C375.109 431.157 374.864 430.96 374.56 430.816C374.261 430.672 373.915 430.6 373.52 430.6C372.768 430.6 372.155 430.869 371.68 431.408C371.211 431.941 370.976 432.765 370.976 433.88C370.976 434.877 371.189 435.677 371.616 436.28C372.048 436.877 372.688 437.176 373.536 437.176C373.931 437.176 374.277 437.104 374.576 436.96C374.88 436.811 375.125 436.613 375.312 436.368C375.499 436.117 375.616 435.843 375.664 435.544H376.792C376.712 436.088 376.517 436.557 376.208 436.952C375.899 437.341 375.512 437.64 375.048 437.848C374.589 438.056 374.077 438.16 373.512 438.16C372.776 438.16 372.125 438 371.56 437.68C370.995 437.36 370.552 436.883 370.232 436.248C369.917 435.613 369.76 434.827 369.76 433.888C369.76 433.029 369.904 432.277 370.192 431.632C370.48 430.981 370.901 430.475 371.456 430.112C372.016 429.749 372.701 429.568 373.512 429.568ZM29.232 462.16C28.7253 462.16 28.2987 462.093 27.952 461.96C27.6107 461.821 27.3333 461.651 27.12 461.448C26.9067 461.245 26.744 461.04 26.632 460.832C26.52 460.624 26.44 460.448 26.392 460.304L26.264 462H25.28V450.112H26.544V455.088C26.6027 454.965 26.7013 454.819 26.84 454.648C26.9787 454.477 27.16 454.309 27.384 454.144C27.608 453.979 27.88 453.843 28.2 453.736C28.52 453.624 28.8907 453.568 29.312 453.568C30.3467 453.568 31.1733 453.925 31.792 454.64C32.4107 455.355 32.72 456.419 32.72 457.832C32.72 458.701 32.5893 459.461 32.328 460.112C32.072 460.757 31.6853 461.261 31.168 461.624C30.656 461.981 30.0107 462.16 29.232 462.16ZM29.032 461.168C29.752 461.168 30.3333 460.893 30.776 460.344C31.224 459.795 31.448 458.931 31.448 457.752C31.448 456.76 31.2427 455.981 30.832 455.416C30.4213 454.851 29.8107 454.568 29 454.568C28.408 454.568 27.9333 454.696 27.576 454.952C27.2187 455.203 26.9573 455.565 26.792 456.04C26.632 456.515 26.5493 457.085 26.544 457.752C26.544 458.957 26.7333 459.829 27.112 460.368C27.4907 460.901 28.1307 461.168 29.032 461.168ZM35.5964 458.152C35.5964 458.707 35.687 459.211 35.8684 459.664C36.0497 460.117 36.3297 460.48 36.7084 460.752C37.087 461.024 37.567 461.16 38.1484 461.16C38.7084 461.16 39.191 461.029 39.5964 460.768C40.0017 460.501 40.255 460.125 40.3564 459.64H41.5564C41.455 460.195 41.2337 460.659 40.8924 461.032C40.5564 461.405 40.1484 461.688 39.6684 461.88C39.1937 462.067 38.6924 462.16 38.1644 462.16C37.407 462.16 36.7377 461.995 36.1564 461.664C35.5804 461.328 35.1297 460.845 34.8044 460.216C34.4844 459.587 34.3244 458.829 34.3244 457.944C34.3244 457.064 34.471 456.296 34.7644 455.64C35.0577 454.979 35.4817 454.469 36.0364 454.112C36.5964 453.749 37.271 453.568 38.0604 453.568C38.823 453.568 39.4684 453.733 39.9964 454.064C40.5244 454.389 40.927 454.856 41.2044 455.464C41.4817 456.072 41.6204 456.797 41.6204 457.64V458.152H35.5964ZM35.6044 457.264H40.4044C40.4044 456.752 40.319 456.291 40.1484 455.88C39.9777 455.469 39.719 455.144 39.3724 454.904C39.0257 454.664 38.5857 454.544 38.0524 454.544C37.487 454.544 37.023 454.68 36.6604 454.952C36.303 455.219 36.0364 455.56 35.8604 455.976C35.6844 456.392 35.599 456.821 35.6044 457.264ZM47.973 453.728V454.664H45.893V462H44.645V454.664H42.837V453.728H44.645V452.416C44.645 451.765 44.805 451.272 45.125 450.936C45.445 450.6 45.933 450.432 46.589 450.432H48.053V451.344H46.781C46.429 451.344 46.189 451.44 46.061 451.632C45.9383 451.819 45.877 452.101 45.877 452.48V453.728H47.973ZM53.0273 462.16C52.2806 462.16 51.6246 462 51.0593 461.68C50.4993 461.355 50.0646 460.875 49.7553 460.24C49.4459 459.605 49.2913 458.824 49.2913 457.896C49.2913 457.032 49.4326 456.275 49.7153 455.624C50.0033 454.973 50.4246 454.469 50.9793 454.112C51.5339 453.749 52.2193 453.568 53.0353 453.568C53.7819 453.568 54.4299 453.733 54.9793 454.064C55.5339 454.389 55.9633 454.875 56.2673 455.52C56.5766 456.16 56.7313 456.952 56.7313 457.896C56.7313 458.739 56.5926 459.48 56.3153 460.12C56.0379 460.76 55.6246 461.261 55.0753 461.624C54.5313 461.981 53.8486 462.16 53.0273 462.16ZM53.0353 461.152C53.5526 461.152 53.9926 461.024 54.3553 460.768C54.7233 460.512 55.0033 460.139 55.1953 459.648C55.3926 459.157 55.4913 458.563 55.4913 457.864C55.4913 457.235 55.4059 456.672 55.2353 456.176C55.0646 455.68 54.7979 455.291 54.4353 455.008C54.0726 454.72 53.6059 454.576 53.0353 454.576C52.5073 454.576 52.0566 454.704 51.6833 454.96C51.3153 455.211 51.0326 455.581 50.8353 456.072C50.6379 456.563 50.5393 457.16 50.5393 457.864C50.5393 458.493 50.6246 459.056 50.7953 459.552C50.9713 460.043 51.2433 460.432 51.6113 460.72C51.9793 461.008 52.4539 461.152 53.0353 461.152ZM58.7644 462V453.728H59.9484V455.224C60.087 454.835 60.2817 454.52 60.5324 454.28C60.7884 454.035 61.0737 453.856 61.3884 453.744C61.7084 453.627 62.031 453.568 62.3564 453.568C62.4897 453.568 62.6204 453.579 62.7484 453.6C62.8764 453.616 62.9777 453.645 63.0524 453.688V454.904C62.967 454.861 62.8524 454.832 62.7084 454.816C62.5697 454.8 62.4524 454.792 62.3564 454.792C62.063 454.776 61.7777 454.797 61.5004 454.856C61.223 454.915 60.9697 455.019 60.7404 455.168C60.5164 455.317 60.3377 455.517 60.2044 455.768C60.0764 456.019 60.0124 456.325 60.0124 456.688V462H58.7644ZM65.5026 458.152C65.5026 458.707 65.5933 459.211 65.7746 459.664C65.956 460.117 66.236 460.48 66.6146 460.752C66.9933 461.024 67.4733 461.16 68.0546 461.16C68.6146 461.16 69.0973 461.029 69.5026 460.768C69.908 460.501 70.1613 460.125 70.2626 459.64H71.4626C71.3613 460.195 71.14 460.659 70.7986 461.032C70.4626 461.405 70.0546 461.688 69.5746 461.88C69.1 462.067 68.5986 462.16 68.0706 462.16C67.3133 462.16 66.644 461.995 66.0626 461.664C65.4866 461.328 65.036 460.845 64.7106 460.216C64.3906 459.587 64.2306 458.829 64.2306 457.944C64.2306 457.064 64.3773 456.296 64.6706 455.64C64.964 454.979 65.388 454.469 65.9426 454.112C66.5026 453.749 67.1773 453.568 67.9666 453.568C68.7293 453.568 69.3746 453.733 69.9026 454.064C70.4306 454.389 70.8333 454.856 71.1106 455.464C71.388 456.072 71.5266 456.797 71.5266 457.64V458.152H65.5026ZM65.5106 457.264H70.3106C70.3106 456.752 70.2253 456.291 70.0546 455.88C69.884 455.469 69.6253 455.144 69.2786 454.904C68.932 454.664 68.492 454.544 67.9586 454.544C67.3933 454.544 66.9293 454.68 66.5666 454.952C66.2093 455.219 65.9426 455.56 65.7666 455.976C65.5906 456.392 65.5053 456.821 65.5106 457.264ZM77.3113 464.576V453.728H78.5513L78.5753 455.24C78.6553 455.075 78.7673 454.896 78.9113 454.704C79.0606 454.512 79.2473 454.331 79.4713 454.16C79.6953 453.984 79.9593 453.843 80.2633 453.736C80.5726 453.624 80.9273 453.568 81.3273 453.568C81.9993 453.568 82.5913 453.717 83.1033 454.016C83.6153 454.315 84.0126 454.773 84.2952 455.392C84.5833 456.011 84.7273 456.795 84.7273 457.744C84.7273 458.672 84.5913 459.467 84.3193 460.128C84.0526 460.784 83.6606 461.288 83.1433 461.64C82.6259 461.987 81.9939 462.16 81.2473 462.16C80.8473 462.16 80.4979 462.104 80.1993 461.992C79.9006 461.88 79.6446 461.733 79.4313 461.552C79.2179 461.371 79.0419 461.184 78.9033 460.992C78.7646 460.795 78.6526 460.608 78.5673 460.432V464.576H77.3113ZM81.0393 461.16C81.7699 461.16 82.3619 460.885 82.8153 460.336C83.2739 459.787 83.5033 458.939 83.5033 457.792C83.5033 456.811 83.2953 456.029 82.8793 455.448C82.4686 454.861 81.8553 454.568 81.0393 454.568C80.2286 454.568 79.6099 454.864 79.1833 455.456C78.7619 456.048 78.5513 456.827 78.5513 457.792C78.5513 458.421 78.6446 458.992 78.8313 459.504C79.0233 460.011 79.3033 460.413 79.6713 460.712C80.0393 461.011 80.4953 461.16 81.0393 461.16ZM86.7644 462V453.728H87.9484V455.224C88.087 454.835 88.2817 454.52 88.5324 454.28C88.7884 454.035 89.0737 453.856 89.3884 453.744C89.7084 453.627 90.031 453.568 90.3564 453.568C90.4897 453.568 90.6204 453.579 90.7484 453.6C90.8764 453.616 90.9777 453.645 91.0524 453.688V454.904C90.967 454.861 90.8524 454.832 90.7084 454.816C90.5697 454.8 90.4524 454.792 90.3564 454.792C90.063 454.776 89.7777 454.797 89.5004 454.856C89.223 454.915 88.9697 455.019 88.7404 455.168C88.5164 455.317 88.3377 455.517 88.2044 455.768C88.0764 456.019 88.0124 456.325 88.0124 456.688V462H86.7644ZM95.8866 462.16C95.14 462.16 94.484 462 93.9186 461.68C93.3586 461.355 92.924 460.875 92.6146 460.24C92.3053 459.605 92.1506 458.824 92.1506 457.896C92.1506 457.032 92.292 456.275 92.5746 455.624C92.8626 454.973 93.284 454.469 93.8386 454.112C94.3933 453.749 95.0786 453.568 95.8946 453.568C96.6413 453.568 97.2893 453.733 97.8386 454.064C98.3933 454.389 98.8226 454.875 99.1266 455.52C99.436 456.16 99.5906 456.952 99.5906 457.896C99.5906 458.739 99.452 459.48 99.1746 460.12C98.8973 460.76 98.484 461.261 97.9346 461.624C97.3906 461.981 96.708 462.16 95.8866 462.16ZM95.8946 461.152C96.412 461.152 96.852 461.024 97.2146 460.768C97.5826 460.512 97.8626 460.139 98.0546 459.648C98.252 459.157 98.3506 458.563 98.3506 457.864C98.3506 457.235 98.2653 456.672 98.0946 456.176C97.924 455.68 97.6573 455.291 97.2946 455.008C96.932 454.72 96.4653 454.576 95.8946 454.576C95.3666 454.576 94.916 454.704 94.5426 454.96C94.1746 455.211 93.892 455.581 93.6946 456.072C93.4973 456.563 93.3986 457.16 93.3986 457.864C93.3986 458.493 93.484 459.056 93.6546 459.552C93.8306 460.043 94.1026 460.432 94.4706 460.72C94.8386 461.008 95.3133 461.152 95.8946 461.152ZM104.977 464.736C103.724 464.736 102.74 464.547 102.025 464.168C101.316 463.795 100.961 463.245 100.961 462.52C100.961 462.216 101.028 461.957 101.161 461.744C101.3 461.525 101.462 461.344 101.649 461.2C101.841 461.056 102.02 460.941 102.185 460.856C102.35 460.765 102.46 460.699 102.513 460.656C102.417 460.597 102.305 460.531 102.177 460.456C102.049 460.376 101.937 460.275 101.841 460.152C101.75 460.024 101.705 459.861 101.705 459.664C101.705 459.413 101.822 459.184 102.057 458.976C102.292 458.763 102.641 458.603 103.105 458.496C102.636 458.251 102.265 457.931 101.993 457.536C101.726 457.136 101.593 456.699 101.593 456.224C101.593 455.691 101.729 455.227 102.001 454.832C102.278 454.437 102.678 454.133 103.201 453.92C103.724 453.707 104.358 453.6 105.105 453.6C105.633 453.6 106.081 453.664 106.449 453.792C106.817 453.915 107.158 454.096 107.473 454.336C107.553 454.299 107.681 454.243 107.857 454.168C108.038 454.093 108.238 454.013 108.457 453.928C108.676 453.837 108.878 453.752 109.065 453.672C109.257 453.592 109.401 453.531 109.497 453.488V454.736L108.041 455.024C108.132 455.205 108.204 455.403 108.257 455.616C108.31 455.824 108.337 456.024 108.337 456.216C108.337 456.707 108.214 457.149 107.969 457.544C107.724 457.933 107.35 458.24 106.849 458.464C106.353 458.688 105.726 458.8 104.969 458.8C104.916 458.8 104.849 458.8 104.769 458.8C104.689 458.8 104.62 458.797 104.561 458.792C103.926 458.808 103.489 458.88 103.249 459.008C103.014 459.131 102.897 459.261 102.897 459.4C102.897 459.56 103.017 459.675 103.257 459.744C103.497 459.808 103.916 459.861 104.513 459.904C104.732 459.915 104.993 459.928 105.297 459.944C105.606 459.96 105.95 459.981 106.329 460.008C107.156 460.056 107.798 460.269 108.257 460.648C108.721 461.027 108.953 461.549 108.953 462.216C108.953 462.957 108.625 463.563 107.969 464.032C107.318 464.501 106.321 464.736 104.977 464.736ZM105.209 463.88C106.004 463.88 106.622 463.755 107.065 463.504C107.508 463.259 107.729 462.883 107.729 462.376C107.729 462.024 107.598 461.736 107.337 461.512C107.076 461.283 106.681 461.149 106.153 461.112L103.713 460.96C103.516 460.949 103.3 461.005 103.065 461.128C102.83 461.245 102.628 461.413 102.457 461.632C102.292 461.851 102.209 462.099 102.209 462.376C102.209 462.845 102.452 463.213 102.937 463.48C103.428 463.747 104.185 463.88 105.209 463.88ZM105.009 457.952C105.644 457.952 106.156 457.808 106.545 457.52C106.94 457.232 107.137 456.8 107.137 456.224C107.137 455.632 106.94 455.184 106.545 454.88C106.156 454.576 105.644 454.424 105.009 454.424C104.358 454.424 103.833 454.579 103.433 454.888C103.038 455.192 102.841 455.637 102.841 456.224C102.841 456.773 103.028 457.2 103.401 457.504C103.78 457.803 104.316 457.952 105.009 457.952ZM111.483 462V453.728H112.667V455.224C112.806 454.835 113 454.52 113.251 454.28C113.507 454.035 113.792 453.856 114.107 453.744C114.427 453.627 114.75 453.568 115.075 453.568C115.208 453.568 115.339 453.579 115.467 453.6C115.595 453.616 115.696 453.645 115.771 453.688V454.904C115.686 454.861 115.571 454.832 115.427 454.816C115.288 454.8 115.171 454.792 115.075 454.792C114.782 454.776 114.496 454.797 114.219 454.856C113.942 454.915 113.688 455.019 113.459 455.168C113.235 455.317 113.056 455.517 112.923 455.768C112.795 456.019 112.731 456.325 112.731 456.688V462H111.483ZM118.221 458.152C118.221 458.707 118.312 459.211 118.493 459.664C118.675 460.117 118.955 460.48 119.333 460.752C119.712 461.024 120.192 461.16 120.773 461.16C121.333 461.16 121.816 461.029 122.221 460.768C122.627 460.501 122.88 460.125 122.981 459.64H124.181C124.08 460.195 123.859 460.659 123.517 461.032C123.181 461.405 122.773 461.688 122.293 461.88C121.819 462.067 121.317 462.16 120.789 462.16C120.032 462.16 119.363 461.995 118.781 461.664C118.205 461.328 117.755 460.845 117.429 460.216C117.109 459.587 116.949 458.829 116.949 457.944C116.949 457.064 117.096 456.296 117.389 455.64C117.683 454.979 118.107 454.469 118.661 454.112C119.221 453.749 119.896 453.568 120.685 453.568C121.448 453.568 122.093 453.733 122.621 454.064C123.149 454.389 123.552 454.856 123.829 455.464C124.107 456.072 124.245 456.797 124.245 457.64V458.152H118.221ZM118.229 457.264H123.029C123.029 456.752 122.944 456.291 122.773 455.88C122.603 455.469 122.344 455.144 121.997 454.904C121.651 454.664 121.211 454.544 120.677 454.544C120.112 454.544 119.648 454.68 119.285 454.952C118.928 455.219 118.661 455.56 118.485 455.976C118.309 456.392 118.224 456.821 118.229 457.264ZM129.159 462.16C128.583 462.16 128.053 462.072 127.567 461.896C127.087 461.715 126.69 461.44 126.375 461.072C126.066 460.699 125.871 460.224 125.791 459.648H126.951C127.026 459.979 127.162 460.259 127.359 460.488C127.557 460.717 127.807 460.893 128.111 461.016C128.421 461.133 128.77 461.192 129.159 461.192C129.746 461.192 130.218 461.08 130.575 460.856C130.933 460.627 131.111 460.277 131.111 459.808C131.111 459.483 131.018 459.221 130.831 459.024C130.65 458.827 130.373 458.683 129.999 458.592L128.215 458.136C127.565 457.971 127.047 457.723 126.663 457.392C126.279 457.056 126.085 456.589 126.079 455.992C126.079 455.517 126.191 455.099 126.415 454.736C126.645 454.373 126.986 454.088 127.439 453.88C127.893 453.672 128.461 453.568 129.143 453.568C130.013 453.568 130.714 453.763 131.247 454.152C131.781 454.541 132.063 455.123 132.095 455.896H130.959C130.906 455.475 130.725 455.141 130.415 454.896C130.106 454.645 129.679 454.52 129.135 454.52C128.575 454.52 128.119 454.635 127.767 454.864C127.421 455.093 127.247 455.448 127.247 455.928C127.247 456.248 127.367 456.499 127.607 456.68C127.847 456.856 128.197 457.003 128.655 457.12L130.399 457.576C130.762 457.672 131.061 457.8 131.295 457.96C131.535 458.115 131.725 458.291 131.863 458.488C132.007 458.68 132.109 458.885 132.167 459.104C132.231 459.323 132.263 459.533 132.263 459.736C132.263 460.232 132.143 460.661 131.903 461.024C131.663 461.387 131.311 461.667 130.847 461.864C130.389 462.061 129.826 462.16 129.159 462.16ZM137.144 462.16C136.568 462.16 136.037 462.072 135.552 461.896C135.072 461.715 134.674 461.44 134.36 461.072C134.05 460.699 133.856 460.224 133.776 459.648H134.936C135.01 459.979 135.146 460.259 135.344 460.488C135.541 460.717 135.792 460.893 136.096 461.016C136.405 461.133 136.754 461.192 137.144 461.192C137.73 461.192 138.202 461.08 138.56 460.856C138.917 460.627 139.096 460.277 139.096 459.808C139.096 459.483 139.002 459.221 138.816 459.024C138.634 458.827 138.357 458.683 137.984 458.592L136.2 458.136C135.549 457.971 135.032 457.723 134.648 457.392C134.264 457.056 134.069 456.589 134.064 455.992C134.064 455.517 134.176 455.099 134.4 454.736C134.629 454.373 134.97 454.088 135.424 453.88C135.877 453.672 136.445 453.568 137.128 453.568C137.997 453.568 138.698 453.763 139.232 454.152C139.765 454.541 140.048 455.123 140.08 455.896H138.944C138.89 455.475 138.709 455.141 138.4 454.896C138.09 454.645 137.664 454.52 137.12 454.52C136.56 454.52 136.104 454.635 135.752 454.864C135.405 455.093 135.232 455.448 135.232 455.928C135.232 456.248 135.352 456.499 135.592 456.68C135.832 456.856 136.181 457.003 136.64 457.12L138.384 457.576C138.746 457.672 139.045 457.8 139.28 457.96C139.52 458.115 139.709 458.291 139.848 458.488C139.992 458.68 140.093 458.885 140.152 459.104C140.216 459.323 140.248 459.533 140.248 459.736C140.248 460.232 140.128 460.661 139.888 461.024C139.648 461.387 139.296 461.667 138.832 461.864C138.373 462.061 137.81 462.16 137.144 462.16ZM143.821 453.728V462H142.605V453.728H143.821ZM143.861 450.44V451.816H142.549V450.44H143.861ZM152.834 453.728L149.89 462H148.634L145.682 453.728H146.874L149.178 460.456H149.33L151.658 453.728H152.834ZM155.065 458.152C155.065 458.707 155.156 459.211 155.337 459.664C155.518 460.117 155.798 460.48 156.177 460.752C156.556 461.024 157.036 461.16 157.617 461.16C158.177 461.16 158.66 461.029 159.065 460.768C159.47 460.501 159.724 460.125 159.825 459.64H161.025C160.924 460.195 160.702 460.659 160.361 461.032C160.025 461.405 159.617 461.688 159.137 461.88C158.662 462.067 158.161 462.16 157.633 462.16C156.876 462.16 156.206 461.995 155.625 461.664C155.049 461.328 154.598 460.845 154.273 460.216C153.953 459.587 153.793 458.829 153.793 457.944C153.793 457.064 153.94 456.296 154.233 455.64C154.526 454.979 154.95 454.469 155.505 454.112C156.065 453.749 156.74 453.568 157.529 453.568C158.292 453.568 158.937 453.733 159.465 454.064C159.993 454.389 160.396 454.856 160.673 455.464C160.95 456.072 161.089 456.797 161.089 457.64V458.152H155.065ZM155.073 457.264H159.873C159.873 456.752 159.788 456.291 159.617 455.88C159.446 455.469 159.188 455.144 158.841 454.904C158.494 454.664 158.054 454.544 157.521 454.544C156.956 454.544 156.492 454.68 156.129 454.952C155.772 455.219 155.505 455.56 155.329 455.976C155.153 456.392 155.068 456.821 155.073 457.264ZM169.138 462.16C168.599 462.16 168.127 462.067 167.722 461.88C167.316 461.688 166.999 461.416 166.77 461.064C166.546 460.712 166.434 460.288 166.434 459.792C166.434 458.875 166.746 458.195 167.37 457.752C167.999 457.309 169.015 457.069 170.418 457.032L172.018 456.984V456.296C172.018 455.757 171.852 455.328 171.522 455.008C171.196 454.683 170.692 454.523 170.01 454.528C169.498 454.528 169.052 454.648 168.674 454.888C168.3 455.123 168.063 455.501 167.962 456.024H166.826C166.858 455.507 167.004 455.067 167.266 454.704C167.527 454.336 167.895 454.056 168.37 453.864C168.844 453.667 169.412 453.568 170.074 453.568C170.756 453.568 171.33 453.669 171.794 453.872C172.263 454.069 172.618 454.368 172.858 454.768C173.098 455.163 173.218 455.653 173.218 456.24V462H172.146L172.058 460.408C171.727 461.064 171.306 461.52 170.794 461.776C170.287 462.032 169.735 462.16 169.138 462.16ZM169.49 461.224C169.788 461.224 170.084 461.171 170.378 461.064C170.676 460.957 170.948 460.811 171.194 460.624C171.439 460.437 171.636 460.229 171.786 460C171.935 459.771 172.012 459.536 172.018 459.296V457.824L170.682 457.848C169.983 457.859 169.41 457.928 168.962 458.056C168.519 458.184 168.188 458.381 167.97 458.648C167.756 458.909 167.65 459.253 167.65 459.68C167.65 460.165 167.82 460.544 168.162 460.816C168.503 461.088 168.946 461.224 169.49 461.224ZM175.858 462V453.728H177.042V455.224C177.181 454.835 177.375 454.52 177.626 454.28C177.882 454.035 178.167 453.856 178.482 453.744C178.802 453.627 179.125 453.568 179.45 453.568C179.583 453.568 179.714 453.579 179.842 453.6C179.97 453.616 180.071 453.645 180.146 453.688V454.904C180.061 454.861 179.946 454.832 179.802 454.816C179.663 454.8 179.546 454.792 179.45 454.792C179.157 454.776 178.871 454.797 178.594 454.856C178.317 454.915 178.063 455.019 177.834 455.168C177.61 455.317 177.431 455.517 177.298 455.768C177.17 456.019 177.106 456.325 177.106 456.688V462H175.858ZM184.996 453.568C185.567 453.568 186.084 453.675 186.548 453.888C187.012 454.101 187.396 454.408 187.7 454.808C188.004 455.203 188.199 455.68 188.284 456.24H187.14C187.087 455.931 186.967 455.653 186.78 455.408C186.594 455.157 186.348 454.96 186.044 454.816C185.746 454.672 185.399 454.6 185.004 454.6C184.252 454.6 183.639 454.869 183.164 455.408C182.695 455.941 182.46 456.765 182.46 457.88C182.46 458.877 182.674 459.677 183.1 460.28C183.532 460.877 184.172 461.176 185.02 461.176C185.415 461.176 185.762 461.104 186.06 460.96C186.364 460.811 186.61 460.613 186.796 460.368C186.983 460.117 187.1 459.843 187.148 459.544H188.276C188.196 460.088 188.002 460.557 187.692 460.952C187.383 461.341 186.996 461.64 186.532 461.848C186.074 462.056 185.562 462.16 184.996 462.16C184.26 462.16 183.61 462 183.044 461.68C182.479 461.36 182.036 460.883 181.716 460.248C181.402 459.613 181.244 458.827 181.244 457.888C181.244 457.029 181.388 456.277 181.676 455.632C181.964 454.981 182.386 454.475 182.94 454.112C183.5 453.749 184.186 453.568 184.996 453.568ZM190.389 462V450.112H191.597V454.944C191.741 454.709 191.933 454.491 192.173 454.288C192.419 454.085 192.712 453.923 193.053 453.8C193.4 453.672 193.795 453.608 194.237 453.608C194.781 453.608 195.269 453.707 195.701 453.904C196.139 454.101 196.485 454.381 196.741 454.744C196.997 455.107 197.125 455.533 197.125 456.024V462H195.877V456.304C195.877 455.781 195.699 455.376 195.341 455.088C194.984 454.795 194.512 454.648 193.925 454.648C193.525 454.648 193.149 454.715 192.797 454.848C192.451 454.976 192.171 455.171 191.957 455.432C191.744 455.688 191.637 456.016 191.637 456.416V462H190.389ZM200.946 453.728V462H199.73V453.728H200.946ZM200.986 450.44V451.816H199.674V450.44H200.986ZM207.791 454.664H205.919V460C205.919 460.32 205.948 460.555 206.007 460.704C206.071 460.848 206.18 460.941 206.335 460.984C206.495 461.021 206.716 461.04 206.999 461.04H207.847V461.904C207.745 461.941 207.593 461.973 207.391 462C207.193 462.021 206.956 462.032 206.679 462.032C206.151 462.032 205.74 461.957 205.447 461.808C205.159 461.659 204.956 461.437 204.839 461.144C204.721 460.851 204.663 460.483 204.663 460.04V454.664H203.319V453.728H204.695L204.991 451.344H205.919V453.72H207.791V454.664ZM210.659 458.152C210.659 458.707 210.75 459.211 210.931 459.664C211.112 460.117 211.392 460.48 211.771 460.752C212.15 461.024 212.63 461.16 213.211 461.16C213.771 461.16 214.254 461.029 214.659 460.768C215.064 460.501 215.318 460.125 215.419 459.64H216.619C216.518 460.195 216.296 460.659 215.955 461.032C215.619 461.405 215.211 461.688 214.731 461.88C214.256 462.067 213.755 462.16 213.227 462.16C212.47 462.16 211.8 461.995 211.219 461.664C210.643 461.328 210.192 460.845 209.867 460.216C209.547 459.587 209.387 458.829 209.387 457.944C209.387 457.064 209.534 456.296 209.827 455.64C210.12 454.979 210.544 454.469 211.099 454.112C211.659 453.749 212.334 453.568 213.123 453.568C213.886 453.568 214.531 453.733 215.059 454.064C215.587 454.389 215.99 454.856 216.267 455.464C216.544 456.072 216.683 456.797 216.683 457.64V458.152H210.659ZM210.667 457.264H215.467C215.467 456.752 215.382 456.291 215.211 455.88C215.04 455.469 214.782 455.144 214.435 454.904C214.088 454.664 213.648 454.544 213.115 454.544C212.55 454.544 212.086 454.68 211.723 454.952C211.366 455.219 211.099 455.56 210.923 455.976C210.747 456.392 210.662 456.821 210.667 457.264ZM222.043 453.568C222.614 453.568 223.131 453.675 223.595 453.888C224.059 454.101 224.443 454.408 224.747 454.808C225.051 455.203 225.246 455.68 225.331 456.24H224.187C224.134 455.931 224.014 455.653 223.827 455.408C223.641 455.157 223.395 454.96 223.091 454.816C222.793 454.672 222.446 454.6 222.051 454.6C221.299 454.6 220.686 454.869 220.211 455.408C219.742 455.941 219.507 456.765 219.507 457.88C219.507 458.877 219.721 459.677 220.147 460.28C220.579 460.877 221.219 461.176 222.067 461.176C222.462 461.176 222.809 461.104 223.107 460.96C223.411 460.811 223.657 460.613 223.843 460.368C224.03 460.117 224.147 459.843 224.195 459.544H225.323C225.243 460.088 225.049 460.557 224.739 460.952C224.43 461.341 224.043 461.64 223.579 461.848C223.121 462.056 222.609 462.16 222.043 462.16C221.307 462.16 220.657 462 220.091 461.68C219.526 461.36 219.083 460.883 218.763 460.248C218.449 459.613 218.291 458.827 218.291 457.888C218.291 457.029 218.435 456.277 218.723 455.632C219.011 454.981 219.433 454.475 219.987 454.112C220.547 453.749 221.233 453.568 222.043 453.568ZM231.15 454.664H229.278V460C229.278 460.32 229.307 460.555 229.366 460.704C229.43 460.848 229.539 460.941 229.694 460.984C229.854 461.021 230.075 461.04 230.358 461.04H231.206V461.904C231.105 461.941 230.953 461.973 230.75 462C230.553 462.021 230.315 462.032 230.038 462.032C229.51 462.032 229.099 461.957 228.806 461.808C228.518 461.659 228.315 461.437 228.198 461.144C228.081 460.851 228.022 460.483 228.022 460.04V454.664H226.678V453.728H228.054L228.35 451.344H229.278V453.72H231.15V454.664ZM239.889 462.16C238.822 462.16 237.974 461.797 237.345 461.072C236.715 460.341 236.401 459.261 236.401 457.832C236.401 456.973 236.526 456.227 236.777 455.592C237.027 454.952 237.403 454.456 237.905 454.104C238.411 453.747 239.043 453.568 239.801 453.568C240.227 453.568 240.601 453.624 240.921 453.736C241.241 453.843 241.513 453.979 241.737 454.144C241.961 454.309 242.142 454.477 242.281 454.648C242.419 454.819 242.518 454.965 242.577 455.088V450.112H243.841V462H242.857L242.729 460.304C242.681 460.448 242.601 460.624 242.489 460.832C242.377 461.04 242.214 461.245 242.001 461.448C241.787 461.651 241.507 461.821 241.161 461.96C240.814 462.093 240.39 462.16 239.889 462.16ZM240.081 461.168C240.987 461.168 241.63 460.901 242.009 460.368C242.387 459.829 242.577 458.957 242.577 457.752C242.571 457.085 242.486 456.515 242.321 456.04C242.155 455.565 241.894 455.203 241.537 454.952C241.185 454.696 240.713 454.568 240.121 454.568C239.39 454.568 238.798 454.824 238.345 455.336C237.897 455.848 237.673 456.653 237.673 457.752C237.673 458.819 237.873 459.656 238.273 460.264C238.678 460.867 239.281 461.168 240.081 461.168ZM247.914 453.728V462H246.698V453.728H247.914ZM247.954 450.44V451.816H246.642V450.44H247.954ZM253.487 462.16C252.911 462.16 252.381 462.072 251.895 461.896C251.415 461.715 251.018 461.44 250.703 461.072C250.394 460.699 250.199 460.224 250.119 459.648H251.279C251.354 459.979 251.49 460.259 251.687 460.488C251.885 460.717 252.135 460.893 252.439 461.016C252.749 461.133 253.098 461.192 253.487 461.192C254.074 461.192 254.546 461.08 254.903 460.856C255.261 460.627 255.439 460.277 255.439 459.808C255.439 459.483 255.346 459.221 255.159 459.024C254.978 458.827 254.701 458.683 254.327 458.592L252.543 458.136C251.893 457.971 251.375 457.723 250.991 457.392C250.607 457.056 250.413 456.589 250.407 455.992C250.407 455.517 250.519 455.099 250.743 454.736C250.973 454.373 251.314 454.088 251.767 453.88C252.221 453.672 252.789 453.568 253.471 453.568C254.341 453.568 255.042 453.763 255.575 454.152C256.109 454.541 256.391 455.123 256.423 455.896H255.287C255.234 455.475 255.053 455.141 254.743 454.896C254.434 454.645 254.007 454.52 253.463 454.52C252.903 454.52 252.447 454.635 252.095 454.864C251.749 455.093 251.575 455.448 251.575 455.928C251.575 456.248 251.695 456.499 251.935 456.68C252.175 456.856 252.525 457.003 252.983 457.12L254.727 457.576C255.09 457.672 255.389 457.8 255.623 457.96C255.863 458.115 256.053 458.291 256.191 458.488C256.335 458.68 256.437 458.885 256.495 459.104C256.559 459.323 256.591 459.533 256.591 459.736C256.591 460.232 256.471 460.661 256.231 461.024C255.991 461.387 255.639 461.667 255.175 461.864C254.717 462.061 254.154 462.16 253.487 462.16ZM262.541 454.664H260.669V460C260.669 460.32 260.698 460.555 260.757 460.704C260.821 460.848 260.93 460.941 261.085 460.984C261.245 461.021 261.466 461.04 261.749 461.04H262.597V461.904C262.495 461.941 262.343 461.973 262.141 462C261.943 462.021 261.706 462.032 261.429 462.032C260.901 462.032 260.49 461.957 260.197 461.808C259.909 461.659 259.706 461.437 259.589 461.144C259.471 460.851 259.413 460.483 259.413 460.04V454.664H258.069V453.728H259.445L259.741 451.344H260.669V453.72H262.541V454.664ZM266.18 453.728V462H264.964V453.728H266.18ZM266.22 450.44V451.816H264.908V450.44H266.22ZM269.014 462V453.728H270.214V454.936C270.353 454.696 270.542 454.475 270.782 454.272C271.028 454.069 271.324 453.907 271.67 453.784C272.022 453.661 272.417 453.6 272.854 453.6C273.388 453.6 273.873 453.707 274.31 453.92C274.753 454.128 275.105 454.453 275.366 454.896C275.628 455.339 275.758 455.907 275.758 456.6V462H274.51V456.712C274.51 456.008 274.332 455.488 273.974 455.152C273.617 454.816 273.145 454.648 272.558 454.648C272.158 454.648 271.782 454.712 271.43 454.84C271.078 454.968 270.796 455.163 270.582 455.424C270.369 455.685 270.262 456.013 270.262 456.408V462H269.014ZM281.403 453.568C281.973 453.568 282.491 453.675 282.955 453.888C283.419 454.101 283.803 454.408 284.107 454.808C284.411 455.203 284.605 455.68 284.691 456.24H283.547C283.493 455.931 283.373 455.653 283.187 455.408C283 455.157 282.755 454.96 282.451 454.816C282.152 454.672 281.805 454.6 281.411 454.6C280.659 454.6 280.045 454.869 279.571 455.408C279.101 455.941 278.867 456.765 278.867 457.88C278.867 458.877 279.08 459.677 279.507 460.28C279.939 460.877 280.579 461.176 281.427 461.176C281.821 461.176 282.168 461.104 282.467 460.96C282.771 460.811 283.016 460.613 283.203 460.368C283.389 460.117 283.507 459.843 283.555 459.544H284.683C284.603 460.088 284.408 460.557 284.099 460.952C283.789 461.341 283.403 461.64 282.939 461.848C282.48 462.056 281.968 462.16 281.403 462.16C280.667 462.16 280.016 462 279.451 461.68C278.885 461.36 278.443 460.883 278.123 460.248C277.808 459.613 277.651 458.827 277.651 457.888C277.651 457.029 277.795 456.277 278.083 455.632C278.371 454.981 278.792 454.475 279.347 454.112C279.907 453.749 280.592 453.568 281.403 453.568ZM290.509 454.664H288.637V460C288.637 460.32 288.667 460.555 288.725 460.704C288.789 460.848 288.899 460.941 289.053 460.984C289.213 461.021 289.435 461.04 289.717 461.04H290.565V461.904C290.464 461.941 290.312 461.973 290.109 462C289.912 462.021 289.675 462.032 289.397 462.032C288.869 462.032 288.459 461.957 288.165 461.808C287.877 461.659 287.675 461.437 287.557 461.144C287.44 460.851 287.381 460.483 287.381 460.04V454.664H286.037V453.728H287.413L287.709 451.344H288.637V453.72H290.509V454.664ZM294.149 453.728V462H292.933V453.728H294.149ZM294.189 450.44V451.816H292.877V450.44H294.189ZM303.162 453.728L300.218 462H298.962L296.01 453.728H297.202L299.506 460.456H299.658L301.986 453.728H303.162ZM305.393 458.152C305.393 458.707 305.484 459.211 305.665 459.664C305.847 460.117 306.127 460.48 306.505 460.752C306.884 461.024 307.364 461.16 307.945 461.16C308.505 461.16 308.988 461.029 309.393 460.768C309.799 460.501 310.052 460.125 310.153 459.64H311.353C311.252 460.195 311.031 460.659 310.689 461.032C310.353 461.405 309.945 461.688 309.465 461.88C308.991 462.067 308.489 462.16 307.961 462.16C307.204 462.16 306.535 461.995 305.953 461.664C305.377 461.328 304.927 460.845 304.601 460.216C304.281 459.587 304.121 458.829 304.121 457.944C304.121 457.064 304.268 456.296 304.561 455.64C304.855 454.979 305.279 454.469 305.833 454.112C306.393 453.749 307.068 453.568 307.857 453.568C308.62 453.568 309.265 453.733 309.793 454.064C310.321 454.389 310.724 454.856 311.001 455.464C311.279 456.072 311.417 456.797 311.417 457.64V458.152H305.393ZM305.401 457.264H310.201C310.201 456.752 310.116 456.291 309.945 455.88C309.775 455.469 309.516 455.144 309.169 454.904C308.823 454.664 308.383 454.544 307.849 454.544C307.284 454.544 306.82 454.68 306.457 454.952C306.1 455.219 305.833 455.56 305.657 455.976C305.481 456.392 305.396 456.821 305.401 457.264ZM315.482 462.088C315.087 462.088 314.762 462.032 314.506 461.92C314.255 461.803 314.058 461.643 313.914 461.44C313.775 461.237 313.679 461.005 313.626 460.744C313.572 460.483 313.546 460.208 313.546 459.92V450.112H314.778V459.816C314.778 460.269 314.863 460.603 315.034 460.816C315.204 461.024 315.428 461.136 315.706 461.152L316.17 461.16V461.976C316.052 462.013 315.932 462.04 315.81 462.056C315.687 462.077 315.578 462.088 315.482 462.088ZM318.577 464.64C318.113 464.64 317.799 464.608 317.633 464.544C317.468 464.485 317.385 464.456 317.385 464.456V463.64L318.233 463.648C318.527 463.659 318.772 463.637 318.969 463.584C319.172 463.531 319.335 463.456 319.457 463.36C319.58 463.269 319.676 463.165 319.745 463.048C319.82 462.936 319.881 462.824 319.929 462.712L320.257 461.84L317.025 453.728H318.289L320.857 460.384L323.393 453.728H324.617L321.097 462.776C320.9 463.256 320.676 463.629 320.425 463.896C320.18 464.168 319.903 464.36 319.593 464.472C319.284 464.584 318.945 464.64 318.577 464.64ZM325.138 462V460.288H326.682V462H325.138Z" fill="white"/>
</g>
<path d="M28.128 405V402.336H32.52C33.304 402.336 33.912 402.096 34.344 401.616C34.792 401.136 35.016 400.568 35.016 399.912C35.016 399.464 34.92 399.056 34.728 398.688C34.536 398.32 34.248 398.032 33.864 397.824C33.496 397.6 33.048 397.488 32.52 397.488H28.128V394.848H32.16C32.832 394.848 33.368 394.68 33.768 394.344C34.184 394.008 34.392 393.504 34.392 392.832C34.392 392.144 34.184 391.632 33.768 391.296C33.368 390.96 32.832 390.792 32.16 390.792H28.128V388.128H32.544C33.664 388.128 34.6 388.336 35.352 388.752C36.12 389.152 36.696 389.688 37.08 390.36C37.464 391.016 37.656 391.736 37.656 392.52C37.656 393.48 37.36 394.312 36.768 395.016C36.192 395.704 35.344 396.216 34.224 396.552L34.368 395.496C35.616 395.848 36.576 396.432 37.248 397.248C37.936 398.048 38.28 399.016 38.28 400.152C38.28 401.048 38.056 401.864 37.608 402.6C37.176 403.32 36.536 403.904 35.688 404.352C34.856 404.784 33.84 405 32.64 405H28.128ZM25.728 405V388.128H28.968V405H25.728ZM45.3806 405.24C44.3246 405.24 43.3726 404.976 42.5246 404.448C41.6766 403.92 41.0126 403.2 40.5326 402.288C40.0526 401.376 39.8126 400.352 39.8126 399.216C39.8126 398.064 40.0526 397.032 40.5326 396.12C41.0126 395.208 41.6766 394.488 42.5246 393.96C43.3726 393.432 44.3246 393.168 45.3806 393.168C46.2126 393.168 46.9566 393.336 47.6126 393.672C48.2686 394.008 48.7886 394.48 49.1726 395.088C49.5726 395.68 49.7886 396.352 49.8206 397.104V401.28C49.7886 402.048 49.5726 402.728 49.1726 403.32C48.7886 403.912 48.2686 404.384 47.6126 404.736C46.9566 405.072 46.2126 405.24 45.3806 405.24ZM45.9566 402.336C46.8366 402.336 47.5486 402.048 48.0926 401.472C48.6366 400.88 48.9086 400.12 48.9086 399.192C48.9086 398.584 48.7806 398.048 48.5246 397.584C48.2846 397.104 47.9406 396.736 47.4926 396.48C47.0606 396.208 46.5486 396.072 45.9566 396.072C45.3806 396.072 44.8686 396.208 44.4206 396.48C43.9886 396.736 43.6446 397.104 43.3886 397.584C43.1486 398.048 43.0286 398.584 43.0286 399.192C43.0286 399.816 43.1486 400.368 43.3886 400.848C43.6446 401.312 43.9886 401.68 44.4206 401.952C44.8686 402.208 45.3806 402.336 45.9566 402.336ZM48.7406 405V401.88L49.2446 399.048L48.7406 396.264V393.408H51.8606V405H48.7406ZM62.442 405V398.352C62.442 397.664 62.226 397.104 61.794 396.672C61.362 396.24 60.802 396.024 60.114 396.024C59.666 396.024 59.266 396.12 58.914 396.312C58.562 396.504 58.282 396.776 58.074 397.128C57.882 397.48 57.786 397.888 57.786 398.352L56.562 397.728C56.562 396.816 56.754 396.024 57.138 395.352C57.538 394.664 58.082 394.128 58.77 393.744C59.474 393.36 60.266 393.168 61.146 393.168C61.994 393.168 62.754 393.384 63.426 393.816C64.098 394.232 64.626 394.784 65.01 395.472C65.394 396.144 65.586 396.872 65.586 397.656V405H62.442ZM54.642 405V393.408H57.786V405H54.642ZM75.5106 405L71.0226 399.024L75.4866 393.408H79.1106L73.8786 399.744L73.9986 398.208L79.3506 405H75.5106ZM68.1186 405V387.648H71.2626V405H68.1186ZM80.4233 405V393.408H83.5673V405H80.4233ZM83.5673 398.592L82.3433 397.776C82.4873 396.352 82.9033 395.232 83.5913 394.416C84.2793 393.584 85.2713 393.168 86.5673 393.168C87.1273 393.168 87.6313 393.264 88.0793 393.456C88.5273 393.632 88.9353 393.928 89.3033 394.344L87.3353 396.6C87.1593 396.408 86.9433 396.264 86.6873 396.168C86.4473 396.072 86.1673 396.024 85.8473 396.024C85.1753 396.024 84.6233 396.24 84.1913 396.672C83.7753 397.088 83.5673 397.728 83.5673 398.592ZM95.3516 405.24C94.3276 405.24 93.4156 405.024 92.6156 404.592C91.8316 404.16 91.2156 403.56 90.7676 402.792C90.3196 402.024 90.0956 401.136 90.0956 400.128V393.408H93.2636V400.056C93.2636 400.536 93.3436 400.952 93.5036 401.304C93.6636 401.64 93.9036 401.896 94.2236 402.072C94.5436 402.248 94.9196 402.336 95.3516 402.336C96.0076 402.336 96.5196 402.136 96.8876 401.736C97.2556 401.336 97.4396 400.776 97.4396 400.056V393.408H100.584V400.128C100.584 401.152 100.36 402.048 99.9116 402.816C99.4796 403.584 98.8636 404.184 98.0636 404.616C97.2796 405.032 96.3756 405.24 95.3516 405.24ZM109.519 405.24C108.687 405.24 107.935 405.072 107.263 404.736C106.591 404.384 106.055 403.912 105.655 403.32C105.255 402.728 105.039 402.048 105.007 401.28V397.176C105.039 396.408 105.255 395.728 105.655 395.136C106.071 394.528 106.607 394.048 107.263 393.696C107.935 393.344 108.687 393.168 109.519 393.168C110.591 393.168 111.551 393.432 112.399 393.96C113.247 394.488 113.911 395.208 114.391 396.12C114.887 397.032 115.135 398.064 115.135 399.216C115.135 400.352 114.887 401.376 114.391 402.288C113.911 403.2 113.247 403.92 112.399 404.448C111.551 404.976 110.591 405.24 109.519 405.24ZM108.967 402.336C109.543 402.336 110.055 402.208 110.503 401.952C110.951 401.68 111.295 401.312 111.535 400.848C111.791 400.368 111.919 399.816 111.919 399.192C111.919 398.584 111.791 398.048 111.535 397.584C111.295 397.104 110.951 396.736 110.503 396.48C110.055 396.208 109.543 396.072 108.967 396.072C108.407 396.072 107.903 396.208 107.455 396.48C107.007 396.736 106.655 397.104 106.399 397.584C106.159 398.048 106.039 398.584 106.039 399.192C106.039 399.816 106.159 400.368 106.399 400.848C106.655 401.312 106.999 401.68 107.431 401.952C107.879 402.208 108.391 402.336 108.967 402.336ZM103.087 409.848V393.408H106.231V396.456L105.703 399.264L106.207 402.072V409.848H103.087ZM118.619 405V388.584H121.763V405H118.619ZM115.907 396.168V393.408H124.475V396.168H115.907ZM131.434 405.24C130.25 405.24 129.186 404.976 128.242 404.448C127.298 403.92 126.554 403.2 126.01 402.288C125.466 401.376 125.194 400.352 125.194 399.216C125.194 398.064 125.466 397.032 126.01 396.12C126.554 395.208 127.298 394.488 128.242 393.96C129.202 393.416 130.266 393.144 131.434 393.144C132.346 393.144 133.186 393.312 133.954 393.648C134.722 393.984 135.386 394.464 135.946 395.088L133.93 397.128C133.626 396.792 133.258 396.536 132.826 396.36C132.41 396.184 131.946 396.096 131.434 396.096C130.858 396.096 130.338 396.232 129.874 396.504C129.426 396.76 129.066 397.12 128.794 397.584C128.538 398.032 128.41 398.568 128.41 399.192C128.41 399.8 128.538 400.344 128.794 400.824C129.066 401.288 129.426 401.656 129.874 401.928C130.338 402.184 130.858 402.312 131.434 402.312C131.962 402.312 132.434 402.224 132.85 402.048C133.282 401.856 133.65 401.584 133.954 401.232L135.994 403.272C135.402 403.912 134.722 404.4 133.954 404.736C133.186 405.072 132.346 405.24 131.434 405.24ZM141.423 405.096L136.575 393.408H139.983L143.199 402.336H142.047L145.383 393.408H148.815L143.655 405.072L141.423 405.096ZM138.207 409.848L141.735 402.384L143.655 405.072L141.543 409.848H138.207ZM155.095 405V387.648H158.239V405H155.095ZM165.873 405.24C164.817 405.24 163.865 404.976 163.017 404.448C162.169 403.92 161.505 403.2 161.025 402.288C160.545 401.376 160.305 400.352 160.305 399.216C160.305 398.064 160.545 397.032 161.025 396.12C161.505 395.208 162.169 394.488 163.017 393.96C163.865 393.432 164.817 393.168 165.873 393.168C166.705 393.168 167.449 393.336 168.105 393.672C168.761 394.008 169.281 394.48 169.665 395.088C170.065 395.68 170.281 396.352 170.313 397.104V401.28C170.281 402.048 170.065 402.728 169.665 403.32C169.281 403.912 168.761 404.384 168.105 404.736C167.449 405.072 166.705 405.24 165.873 405.24ZM166.449 402.336C167.329 402.336 168.041 402.048 168.585 401.472C169.129 400.88 169.401 400.12 169.401 399.192C169.401 398.584 169.273 398.048 169.017 397.584C168.777 397.104 168.433 396.736 167.985 396.48C167.553 396.208 167.041 396.072 166.449 396.072C165.873 396.072 165.361 396.208 164.913 396.48C164.481 396.736 164.137 397.104 163.881 397.584C163.641 398.048 163.521 398.584 163.521 399.192C163.521 399.816 163.641 400.368 163.881 400.848C164.137 401.312 164.481 401.68 164.913 401.952C165.361 402.208 165.873 402.336 166.449 402.336ZM169.233 405V401.88L169.737 399.048L169.233 396.264V393.408H172.353V405H169.233ZM178.23 405L173.886 393.408H177.054L179.886 401.832L178.926 401.856L181.83 393.408H184.11L187.014 401.856L186.054 401.832L188.886 393.408H192.054L187.734 405H185.454L182.526 396.984H183.414L180.486 405H178.23ZM199.971 405V388.584H203.115V405H199.971ZM197.259 396.168V393.408H205.827V396.168H197.259ZM215.395 405V398.352C215.395 397.664 215.179 397.104 214.747 396.672C214.315 396.24 213.755 396.024 213.067 396.024C212.619 396.024 212.219 396.12 211.867 396.312C211.515 396.504 211.235 396.776 211.027 397.128C210.835 397.48 210.739 397.888 210.739 398.352L209.515 397.728C209.515 396.816 209.707 396.024 210.091 395.352C210.475 394.664 211.003 394.128 211.675 393.744C212.363 393.36 213.147 393.168 214.027 393.168C214.907 393.168 215.683 393.36 216.355 393.744C217.043 394.128 217.579 394.656 217.963 395.328C218.347 396 218.539 396.776 218.539 397.656V405H215.395ZM207.595 405V387.648H210.739V405H207.595ZM226.616 405.24C225.4 405.24 224.32 404.984 223.376 404.472C222.432 403.944 221.68 403.224 221.12 402.312C220.576 401.4 220.304 400.36 220.304 399.192C220.304 398.04 220.568 397.016 221.096 396.12C221.64 395.208 222.376 394.488 223.304 393.96C224.232 393.416 225.264 393.144 226.4 393.144C227.52 393.144 228.504 393.4 229.352 393.912C230.216 394.408 230.888 395.096 231.368 395.976C231.864 396.84 232.112 397.824 232.112 398.928C232.112 399.136 232.096 399.352 232.064 399.576C232.048 399.784 232.008 400.024 231.944 400.296L222.2 400.32V397.968L230.48 397.944L229.208 398.928C229.176 398.24 229.048 397.664 228.824 397.2C228.616 396.736 228.304 396.384 227.888 396.144C227.488 395.888 226.992 395.76 226.4 395.76C225.776 395.76 225.232 395.904 224.768 396.192C224.304 396.464 223.944 396.856 223.688 397.368C223.448 397.864 223.328 398.456 223.328 399.144C223.328 399.848 223.456 400.464 223.712 400.992C223.984 401.504 224.368 401.904 224.864 402.192C225.36 402.464 225.936 402.6 226.592 402.6C227.184 402.6 227.72 402.504 228.2 402.312C228.68 402.104 229.096 401.8 229.448 401.4L231.296 403.248C230.736 403.904 230.048 404.4 229.232 404.736C228.432 405.072 227.56 405.24 226.616 405.24ZM240.28 405V392.16C240.28 391.232 240.48 390.416 240.88 389.712C241.28 388.992 241.848 388.424 242.584 388.008C243.32 387.592 244.184 387.384 245.176 387.384C245.928 387.384 246.576 387.512 247.12 387.768C247.664 388.024 248.152 388.376 248.584 388.824L246.592 390.84C246.416 390.664 246.224 390.528 246.016 390.432C245.808 390.336 245.544 390.288 245.224 390.288C244.648 390.288 244.2 390.448 243.88 390.768C243.576 391.072 243.424 391.512 243.424 392.088V405H240.28ZM237.592 396.168V393.408H246.856V396.168H237.592ZM253.803 405.24C252.587 405.24 251.507 404.984 250.563 404.472C249.619 403.944 248.867 403.224 248.307 402.312C247.763 401.4 247.491 400.36 247.491 399.192C247.491 398.04 247.755 397.016 248.283 396.12C248.827 395.208 249.563 394.488 250.491 393.96C251.419 393.416 252.451 393.144 253.587 393.144C254.707 393.144 255.691 393.4 256.539 393.912C257.403 394.408 258.075 395.096 258.555 395.976C259.051 396.84 259.299 397.824 259.299 398.928C259.299 399.136 259.283 399.352 259.251 399.576C259.235 399.784 259.195 400.024 259.131 400.296L249.387 400.32V397.968L257.667 397.944L256.395 398.928C256.363 398.24 256.235 397.664 256.011 397.2C255.803 396.736 255.491 396.384 255.075 396.144C254.675 395.888 254.179 395.76 253.587 395.76C252.963 395.76 252.419 395.904 251.955 396.192C251.491 396.464 251.131 396.856 250.875 397.368C250.635 397.864 250.515 398.456 250.515 399.144C250.515 399.848 250.643 400.464 250.899 400.992C251.171 401.504 251.555 401.904 252.051 402.192C252.547 402.464 253.123 402.6 253.779 402.6C254.371 402.6 254.907 402.504 255.387 402.312C255.867 402.104 256.283 401.8 256.635 401.4L258.483 403.248C257.923 403.904 257.235 404.4 256.419 404.736C255.619 405.072 254.747 405.24 253.803 405.24ZM266.14 405.24C265.068 405.24 264.108 404.976 263.26 404.448C262.412 403.92 261.74 403.2 261.244 402.288C260.764 401.376 260.524 400.352 260.524 399.216C260.524 398.064 260.764 397.032 261.244 396.12C261.74 395.208 262.404 394.488 263.236 393.96C264.084 393.432 265.052 393.168 266.14 393.168C266.972 393.168 267.716 393.336 268.372 393.672C269.044 394.008 269.58 394.48 269.98 395.088C270.396 395.68 270.62 396.352 270.652 397.104V401.232C270.62 401.984 270.404 402.664 270.004 403.272C269.604 403.88 269.068 404.36 268.396 404.712C267.724 405.064 266.972 405.24 266.14 405.24ZM266.668 402.336C267.26 402.336 267.772 402.208 268.204 401.952C268.652 401.68 268.996 401.312 269.236 400.848C269.492 400.368 269.62 399.816 269.62 399.192C269.62 398.584 269.492 398.048 269.236 397.584C268.996 397.104 268.652 396.736 268.204 396.48C267.772 396.208 267.268 396.072 266.692 396.072C266.1 396.072 265.58 396.208 265.132 396.48C264.7 396.752 264.356 397.12 264.1 397.584C263.86 398.048 263.74 398.584 263.74 399.192C263.74 399.816 263.86 400.368 264.1 400.848C264.356 401.312 264.708 401.68 265.156 401.952C265.604 402.208 266.108 402.336 266.668 402.336ZM272.572 405H269.452V401.88L269.956 399.048L269.428 396.264V387.648H272.572V405ZM280.897 405.24C279.681 405.24 278.601 404.984 277.657 404.472C276.713 403.944 275.961 403.224 275.401 402.312C274.857 401.4 274.585 400.36 274.585 399.192C274.585 398.04 274.849 397.016 275.377 396.12C275.921 395.208 276.657 394.488 277.585 393.96C278.513 393.416 279.545 393.144 280.681 393.144C281.801 393.144 282.785 393.4 283.633 393.912C284.497 394.408 285.169 395.096 285.649 395.976C286.145 396.84 286.393 397.824 286.393 398.928C286.393 399.136 286.377 399.352 286.345 399.576C286.329 399.784 286.289 400.024 286.225 400.296L276.481 400.32V397.968L284.761 397.944L283.489 398.928C283.457 398.24 283.329 397.664 283.105 397.2C282.897 396.736 282.585 396.384 282.169 396.144C281.769 395.888 281.273 395.76 280.681 395.76C280.057 395.76 279.513 395.904 279.049 396.192C278.585 396.464 278.225 396.856 277.969 397.368C277.729 397.864 277.609 398.456 277.609 399.144C277.609 399.848 277.737 400.464 277.993 400.992C278.265 401.504 278.649 401.904 279.145 402.192C279.641 402.464 280.217 402.6 280.873 402.6C281.465 402.6 282.001 402.504 282.481 402.312C282.961 402.104 283.377 401.8 283.729 401.4L285.577 403.248C285.017 403.904 284.329 404.4 283.513 404.736C282.713 405.072 281.841 405.24 280.897 405.24ZM288.337 405V393.408H291.481V405H288.337ZM291.481 398.592L290.257 397.776C290.401 396.352 290.817 395.232 291.505 394.416C292.193 393.584 293.185 393.168 294.481 393.168C295.041 393.168 295.545 393.264 295.993 393.456C296.441 393.632 296.849 393.928 297.217 394.344L295.249 396.6C295.073 396.408 294.857 396.264 294.601 396.168C294.361 396.072 294.081 396.024 293.761 396.024C293.089 396.024 292.537 396.24 292.105 396.672C291.689 397.088 291.481 397.728 291.481 398.592ZM302.842 405.24C301.786 405.24 300.834 404.976 299.986 404.448C299.138 403.92 298.474 403.2 297.994 402.288C297.514 401.376 297.274 400.352 297.274 399.216C297.274 398.064 297.514 397.032 297.994 396.12C298.474 395.208 299.138 394.488 299.986 393.96C300.834 393.432 301.786 393.168 302.842 393.168C303.674 393.168 304.418 393.336 305.074 393.672C305.73 394.008 306.25 394.48 306.634 395.088C307.034 395.68 307.25 396.352 307.282 397.104V401.28C307.25 402.048 307.034 402.728 306.634 403.32C306.25 403.912 305.73 404.384 305.074 404.736C304.418 405.072 303.674 405.24 302.842 405.24ZM303.418 402.336C304.298 402.336 305.01 402.048 305.554 401.472C306.098 400.88 306.37 400.12 306.37 399.192C306.37 398.584 306.242 398.048 305.986 397.584C305.746 397.104 305.402 396.736 304.954 396.48C304.522 396.208 304.01 396.072 303.418 396.072C302.842 396.072 302.33 396.208 301.882 396.48C301.45 396.736 301.106 397.104 300.85 397.584C300.61 398.048 300.49 398.584 300.49 399.192C300.49 399.816 300.61 400.368 300.85 400.848C301.106 401.312 301.45 401.68 301.882 401.952C302.33 402.208 302.842 402.336 303.418 402.336ZM306.202 405V401.88L306.706 399.048L306.202 396.264V393.408H309.322V405H306.202ZM312.103 405V387.648H315.247V405H312.103ZM322.72 405V387.648H325.864V405H322.72ZM333.498 405.24C332.442 405.24 331.49 404.976 330.642 404.448C329.794 403.92 329.13 403.2 328.65 402.288C328.17 401.376 327.93 400.352 327.93 399.216C327.93 398.064 328.17 397.032 328.65 396.12C329.13 395.208 329.794 394.488 330.642 393.96C331.49 393.432 332.442 393.168 333.498 393.168C334.33 393.168 335.074 393.336 335.73 393.672C336.386 394.008 336.906 394.48 337.29 395.088C337.69 395.68 337.906 396.352 337.938 397.104V401.28C337.906 402.048 337.69 402.728 337.29 403.32C336.906 403.912 336.386 404.384 335.73 404.736C335.074 405.072 334.33 405.24 333.498 405.24ZM334.074 402.336C334.954 402.336 335.666 402.048 336.21 401.472C336.754 400.88 337.026 400.12 337.026 399.192C337.026 398.584 336.898 398.048 336.642 397.584C336.402 397.104 336.058 396.736 335.61 396.48C335.178 396.208 334.666 396.072 334.074 396.072C333.498 396.072 332.986 396.208 332.538 396.48C332.106 396.736 331.762 397.104 331.506 397.584C331.266 398.048 331.146 398.584 331.146 399.192C331.146 399.816 331.266 400.368 331.506 400.848C331.762 401.312 332.106 401.68 332.538 401.952C332.986 402.208 333.498 402.336 334.074 402.336ZM336.858 405V401.88L337.362 399.048L336.858 396.264V393.408H339.978V405H336.858ZM345.855 405L341.511 393.408H344.679L347.511 401.832L346.551 401.856L349.455 393.408H351.735L354.639 401.856L353.679 401.832L356.511 393.408H359.679L355.359 405H353.079L350.151 396.984H351.039L348.111 405H345.855Z" fill="white"/>
<path d="M213.968 355V354.032V353.52C213.968 352.933 214.077 352.424 214.296 351.992C214.52 351.56 214.813 351.184 215.176 350.864C215.539 350.539 215.936 350.251 216.368 350C216.805 349.749 217.24 349.509 217.672 349.28C218.104 349.051 218.501 348.813 218.864 348.568C219.227 348.317 219.517 348.037 219.736 347.728C219.96 347.413 220.072 347.045 220.072 346.624C220.072 346.069 219.877 345.619 219.488 345.272C219.099 344.925 218.571 344.752 217.904 344.752C217.195 344.752 216.619 344.952 216.176 345.352C215.733 345.752 215.477 346.304 215.408 347.008H213.728C213.744 346.32 213.912 345.693 214.232 345.128C214.552 344.563 215.024 344.112 215.648 343.776C216.272 343.44 217.045 343.272 217.968 343.272C218.768 343.272 219.459 343.413 220.04 343.696C220.627 343.973 221.08 344.363 221.4 344.864C221.72 345.365 221.88 345.949 221.88 346.616C221.88 347.208 221.771 347.717 221.552 348.144C221.333 348.571 221.045 348.939 220.688 349.248C220.336 349.557 219.947 349.832 219.52 350.072C219.093 350.307 218.667 350.533 218.24 350.752C217.813 350.965 217.421 351.192 217.064 351.432C216.707 351.667 216.419 351.933 216.2 352.232C215.981 352.531 215.872 352.891 215.872 353.312V353.512H221.92V355H213.968ZM223.583 346.856C223.583 346.083 223.767 345.432 224.135 344.904C224.508 344.371 225.004 343.965 225.623 343.688C226.247 343.411 226.938 343.272 227.695 343.272C228.511 343.272 229.234 343.387 229.863 343.616C230.492 343.845 230.986 344.184 231.343 344.632C231.706 345.08 231.887 345.632 231.887 346.288C231.887 346.859 231.708 347.373 231.351 347.832C230.999 348.285 230.45 348.64 229.703 348.896C230.188 349.029 230.618 349.227 230.991 349.488C231.364 349.744 231.655 350.064 231.863 350.448C232.076 350.832 232.183 351.277 232.183 351.784C232.183 352.323 232.068 352.803 231.839 353.224C231.61 353.645 231.29 354.003 230.879 354.296C230.468 354.589 229.986 354.811 229.431 354.96C228.876 355.109 228.276 355.181 227.631 355.176C226.799 355.171 226.074 355.024 225.455 354.736C224.836 354.443 224.354 354.029 224.007 353.496C223.66 352.963 223.476 352.333 223.455 351.608H225.143C225.255 352.307 225.538 352.837 225.991 353.2C226.45 353.557 227.012 353.736 227.679 353.736C228.223 353.736 228.692 353.653 229.087 353.488C229.487 353.317 229.796 353.085 230.015 352.792C230.234 352.493 230.343 352.147 230.343 351.752C230.343 351.325 230.223 350.963 229.983 350.664C229.748 350.365 229.423 350.139 229.007 349.984C228.596 349.824 228.135 349.739 227.623 349.728L226.559 349.704V348.28L227.551 348.248C228.036 348.237 228.466 348.147 228.839 347.976C229.218 347.8 229.514 347.571 229.727 347.288C229.94 347.005 230.047 346.693 230.047 346.352C230.047 346.043 229.951 345.76 229.759 345.504C229.572 345.248 229.3 345.045 228.943 344.896C228.591 344.741 228.167 344.664 227.671 344.664C227.271 344.664 226.89 344.739 226.527 344.888C226.17 345.037 225.874 345.275 225.639 345.6C225.41 345.92 225.284 346.339 225.263 346.856H223.583ZM241.562 355H239.786L237.298 351.008L235.81 352.552V355H234.098V343.112H235.81V350.672L239.466 346.728H241.385L238.394 349.92L241.562 355ZM250.087 348.528V349.832L242.999 349.84V348.536L250.087 348.528ZM247.207 352.72H245.903L245.895 345.632H247.199L247.207 352.72ZM262.378 346.728L259.37 355H257.922L254.906 346.728H256.49L258.586 352.832H258.698L260.794 346.728H262.378ZM265.671 346.728V355H264.023V346.728H265.671ZM265.703 343.44V345.128H263.983V343.44H265.703ZM269.425 351.264C269.425 351.76 269.505 352.205 269.665 352.6C269.83 352.989 270.078 353.299 270.409 353.528C270.739 353.752 271.15 353.864 271.641 353.864C272.131 353.864 272.555 353.752 272.913 353.528C273.275 353.304 273.513 352.971 273.625 352.528H275.209C275.113 353.093 274.886 353.573 274.529 353.968C274.177 354.363 273.75 354.661 273.249 354.864C272.747 355.061 272.222 355.16 271.673 355.16C270.889 355.16 270.198 354.992 269.601 354.656C269.003 354.315 268.537 353.829 268.201 353.2C267.87 352.571 267.705 351.821 267.705 350.952C267.705 350.093 267.857 349.336 268.161 348.68C268.465 348.019 268.905 347.501 269.481 347.128C270.057 346.755 270.75 346.568 271.561 346.568C272.361 346.568 273.033 346.739 273.577 347.08C274.126 347.421 274.542 347.901 274.825 348.52C275.107 349.133 275.249 349.859 275.249 350.696V351.264H269.425ZM269.425 350.152H273.617C273.617 349.72 273.542 349.328 273.393 348.976C273.243 348.619 273.014 348.339 272.705 348.136C272.401 347.928 272.017 347.824 271.553 347.824C271.078 347.824 270.683 347.939 270.369 348.168C270.054 348.397 269.817 348.691 269.657 349.048C269.502 349.405 269.425 349.773 269.425 350.152ZM287.895 346.728L285.327 355H283.759L281.967 349.192L280.247 355H278.703L276.111 346.728H277.671L279.479 352.752H279.591L281.359 346.728H282.631L284.455 352.736H284.567L286.311 346.728H287.895Z" fill="white"/>
<path d="M202.96 349.107C202.176 347.079 200.815 345.325 199.045 344.061C197.275 342.798 195.173 342.082 193 342C190.827 342.082 188.725 342.798 186.955 344.061C185.185 345.325 183.824 347.079 183.04 349.107C182.987 349.253 182.987 349.414 183.04 349.56C183.824 351.589 185.185 353.343 186.955 354.606C188.725 355.869 190.827 356.585 193 356.667C195.173 356.585 197.275 355.869 199.045 354.606C200.815 353.343 202.176 351.589 202.96 349.56C203.013 349.414 203.013 349.253 202.96 349.107ZM193 355.334C189.467 355.334 185.733 352.714 184.38 349.334C185.733 345.953 189.467 343.333 193 343.333C196.533 343.333 200.267 345.953 201.62 349.334C200.267 352.714 196.533 355.334 193 355.334Z" fill="#FE461C"/>
<path d="M193 345.333C192.209 345.333 191.435 345.568 190.778 346.008C190.12 346.447 189.607 347.072 189.304 347.803C189.002 348.534 188.922 349.338 189.077 350.114C189.231 350.89 189.612 351.603 190.171 352.162C190.731 352.721 191.444 353.102 192.22 353.257C192.996 353.411 193.8 353.332 194.531 353.029C195.262 352.726 195.886 352.214 196.326 351.556C196.765 350.898 197 350.125 197 349.333C197 348.273 196.579 347.255 195.828 346.505C195.078 345.755 194.061 345.333 193 345.333ZM193 352C192.473 352 191.957 351.844 191.518 351.551C191.08 351.258 190.738 350.841 190.536 350.354C190.334 349.867 190.282 349.331 190.384 348.813C190.487 348.296 190.741 347.821 191.114 347.448C191.487 347.075 191.962 346.821 192.48 346.718C192.997 346.615 193.533 346.668 194.02 346.87C194.508 347.072 194.924 347.413 195.217 347.852C195.51 348.29 195.667 348.806 195.667 349.333C195.667 350.041 195.386 350.719 194.886 351.219C194.386 351.719 193.707 352 193 352Z" fill="#FE461C"/>
<path d="M144.968 355V354.032V353.52C144.968 352.933 145.077 352.424 145.296 351.992C145.52 351.56 145.813 351.184 146.176 350.864C146.539 350.539 146.936 350.251 147.368 350C147.805 349.749 148.24 349.509 148.672 349.28C149.104 349.051 149.501 348.813 149.864 348.568C150.227 348.317 150.517 348.037 150.736 347.728C150.96 347.413 151.072 347.045 151.072 346.624C151.072 346.069 150.877 345.619 150.488 345.272C150.099 344.925 149.571 344.752 148.904 344.752C148.195 344.752 147.619 344.952 147.176 345.352C146.733 345.752 146.477 346.304 146.408 347.008H144.728C144.744 346.32 144.912 345.693 145.232 345.128C145.552 344.563 146.024 344.112 146.648 343.776C147.272 343.44 148.045 343.272 148.968 343.272C149.768 343.272 150.459 343.413 151.04 343.696C151.627 343.973 152.08 344.363 152.4 344.864C152.72 345.365 152.88 345.949 152.88 346.616C152.88 347.208 152.771 347.717 152.552 348.144C152.333 348.571 152.045 348.939 151.688 349.248C151.336 349.557 150.947 349.832 150.52 350.072C150.093 350.307 149.667 350.533 149.24 350.752C148.813 350.965 148.421 351.192 148.064 351.432C147.707 351.667 147.419 351.933 147.2 352.232C146.981 352.531 146.872 352.891 146.872 353.312V353.512H152.92V355H144.968ZM155.591 343.432H162.639L162.583 344.88H157.007L156.735 348.36C157.13 348.04 157.546 347.811 157.983 347.672C158.42 347.528 158.895 347.456 159.407 347.456C160.127 347.456 160.783 347.6 161.375 347.888C161.972 348.176 162.45 348.6 162.807 349.16C163.164 349.715 163.343 350.4 163.343 351.216C163.343 352.021 163.167 352.72 162.815 353.312C162.463 353.904 161.964 354.363 161.319 354.688C160.679 355.013 159.924 355.176 159.055 355.176C158.33 355.176 157.658 355.053 157.039 354.808C156.42 354.557 155.887 354.216 155.439 353.784C154.996 353.347 154.668 352.843 154.455 352.272L155.887 351.592C156.079 352.008 156.316 352.381 156.599 352.712C156.882 353.037 157.215 353.293 157.599 353.48C157.983 353.661 158.423 353.752 158.919 353.752C159.703 353.752 160.335 353.531 160.815 353.088C161.295 352.64 161.535 352.035 161.535 351.272C161.535 350.797 161.423 350.381 161.199 350.024C160.975 349.667 160.674 349.389 160.295 349.192C159.916 348.989 159.492 348.888 159.023 348.888C158.73 348.888 158.455 348.915 158.199 348.968C157.943 349.016 157.687 349.115 157.431 349.264C157.18 349.408 156.914 349.624 156.631 349.912C156.588 349.933 156.556 349.944 156.535 349.944C156.519 349.944 156.484 349.931 156.431 349.904L155.063 349.408L155.591 343.432Z" fill="white"/>
<path d="M121.407 343.407C121.456 342.753 121.75 342.141 122.231 341.695C122.712 341.248 123.344 341 124 341H131.2C131.699 341 132.193 341.098 132.654 341.289C133.115 341.48 133.534 341.76 133.887 342.113C134.24 342.466 134.52 342.885 134.711 343.346C134.902 343.807 135 344.301 135 344.8V349.6C135 350.256 134.752 350.888 134.305 351.369C133.859 351.85 133.247 352.144 132.593 352.193C132.544 352.847 132.25 353.459 131.769 353.905C131.288 354.352 130.656 354.6 130 354.6H125.934L123 356.8C122.341 357.294 121.4 356.824 121.4 356V354.592C120.747 354.542 120.137 354.247 119.692 353.766C119.247 353.286 119 352.655 119 352V346C119 345.344 119.248 344.712 119.695 344.231C120.141 343.75 120.753 343.456 121.407 343.407ZM122.614 343.4H130C130.69 343.4 131.351 343.674 131.838 344.162C132.326 344.649 132.6 345.31 132.6 346V350.986C132.933 350.938 133.238 350.771 133.458 350.516C133.679 350.262 133.8 349.937 133.8 349.6V344.8C133.8 344.11 133.526 343.449 133.038 342.962C132.551 342.474 131.89 342.2 131.2 342.2H124C123.663 342.2 123.338 342.321 123.084 342.542C122.829 342.762 122.662 343.067 122.614 343.4ZM121.6 353.4H122.6V355.6L125.534 353.4H130C130.371 353.4 130.727 353.252 130.99 352.99C131.253 352.727 131.4 352.371 131.4 352V346C131.4 345.629 131.253 345.273 130.99 345.01C130.727 344.747 130.371 344.6 130 344.6H121.6C121.229 344.6 120.873 344.747 120.61 345.01C120.347 345.273 120.2 345.629 120.2 346V352C120.2 352.773 120.827 353.4 121.6 353.4Z" fill="#FE461C"/>
<path d="M47.6 357L51.776 345.432H53.664L57.832 357H56.104L55.016 353.968H50.448L49.336 357H47.6ZM50.856 352.416H54.576L52.728 347.112L50.856 352.416ZM62.3948 357.16C61.3068 357.16 60.4508 356.789 59.8268 356.048C59.2028 355.301 58.8908 354.227 58.8908 352.824C58.8908 351.965 59.0161 351.219 59.2668 350.584C59.5174 349.944 59.8908 349.448 60.3868 349.096C60.8881 348.744 61.5068 348.568 62.2428 348.568C62.6161 348.568 62.9468 348.613 63.2348 348.704C63.5281 348.795 63.7841 348.912 64.0028 349.056C64.2268 349.2 64.4108 349.355 64.5548 349.52C64.7041 349.685 64.8188 349.84 64.8988 349.984V345.112H66.6188V357H65.3388L65.1468 355.304C65.0881 355.485 64.9974 355.683 64.8748 355.896C64.7521 356.109 64.5841 356.312 64.3708 356.504C64.1628 356.696 63.8961 356.853 63.5708 356.976C63.2454 357.099 62.8534 357.16 62.3948 357.16ZM62.7228 355.872C63.4908 355.872 64.0454 355.632 64.3868 355.152C64.7281 354.667 64.8988 353.872 64.8988 352.768C64.8934 352.144 64.8161 351.616 64.6668 351.184C64.5174 350.752 64.2854 350.427 63.9708 350.208C63.6614 349.984 63.2534 349.872 62.7468 349.872C62.1121 349.872 61.5948 350.101 61.1948 350.56C60.7948 351.013 60.5948 351.749 60.5948 352.768C60.5948 353.771 60.7761 354.539 61.1388 355.072C61.5068 355.605 62.0348 355.872 62.7228 355.872ZM69.035 357V348.728H70.699V349.92C70.9337 349.557 71.2537 349.243 71.659 348.976C72.0643 348.704 72.587 348.568 73.227 348.568C73.5257 348.568 73.827 348.619 74.131 348.72C74.4403 348.821 74.723 348.973 74.979 349.176C75.2403 349.373 75.4457 349.619 75.595 349.912C75.8563 349.517 76.2057 349.195 76.643 348.944C77.0803 348.693 77.571 348.568 78.115 348.568C78.4083 348.568 78.7123 348.616 79.027 348.712C79.3417 348.803 79.6323 348.96 79.899 349.184C80.171 349.403 80.3897 349.707 80.555 350.096C80.7257 350.485 80.811 350.979 80.811 351.576V357H79.091V351.76C79.091 351.307 79.0137 350.952 78.859 350.696C78.7097 350.44 78.5123 350.261 78.267 350.16C78.027 350.053 77.771 350 77.499 350C77.2537 350 76.9977 350.048 76.731 350.144C76.4643 350.24 76.2377 350.4 76.051 350.624C75.8643 350.848 75.771 351.152 75.771 351.536V357H74.059V351.392C74.059 351.088 73.9763 350.832 73.811 350.624C73.651 350.416 73.4483 350.261 73.203 350.16C72.963 350.053 72.723 350 72.483 350C72.2163 350 71.9497 350.053 71.683 350.16C71.4163 350.267 71.1923 350.435 71.011 350.664C70.835 350.888 70.747 351.179 70.747 351.536V357H69.035ZM84.8118 348.728V357H83.1638V348.728H84.8118ZM84.8438 345.44V347.128H83.1238V345.44H84.8438ZM87.3631 357V348.728H89.0351V349.92C89.1685 349.696 89.3471 349.485 89.5711 349.288C89.8005 349.091 90.0805 348.931 90.4111 348.808C90.7471 348.685 91.1338 348.624 91.5711 348.624C92.0885 348.624 92.5658 348.728 93.0031 348.936C93.4458 349.139 93.8005 349.459 94.0671 349.896C94.3338 350.328 94.4671 350.888 94.4671 351.576V357H92.7551V351.76C92.7551 351.168 92.5951 350.728 92.2751 350.44C91.9605 350.152 91.5525 350.008 91.0511 350.008C90.7151 350.008 90.3951 350.064 90.0911 350.176C89.7871 350.288 89.5418 350.459 89.3551 350.688C89.1685 350.912 89.0751 351.195 89.0751 351.536V357H87.3631Z" fill="white"/>
<path d="M33.7812 350.5C32.875 350.5 32.4688 351 31 351C29.5 351 29.0938 350.5 28.1875 350.5C25.875 350.5 24 352.406 24 354.719V355.5C24 356.344 24.6562 357 25.5 357H36.5C37.3125 357 38 356.344 38 355.5V354.719C38 352.406 36.0938 350.5 33.7812 350.5ZM36.5 355.5H25.5V354.719C25.5 353.219 26.6875 352 28.1875 352C28.6562 352 29.375 352.5 31 352.5C32.5938 352.5 33.3125 352 33.7812 352C35.2812 352 36.5 353.219 36.5 354.719V355.5ZM31 350C33.4688 350 35.5 348 35.5 345.5C35.5 343.031 33.4688 341 31 341C28.5 341 26.5 343.031 26.5 345.5C26.5 348 28.5 350 31 350ZM31 342.5C32.625 342.5 34 343.875 34 345.5C34 347.156 32.625 348.5 31 348.5C29.3438 348.5 28 347.156 28 345.5C28 343.875 29.3438 342.5 31 342.5Z" fill="#FE461C"/>
<rect x="24" width="424" height="315" rx="8" fill="#D9D9D9"/>
<defs>
<filter id="filter0_d_2_73" x="0.888" y="402.112" width="399.912" height="86.624" filterUnits="userSpaceOnUse" color-interpolation-filters="sRGB">
<feFlood flood-opacity="0" result="BackgroundImageFix"/>
<feColorMatrix in="SourceAlpha" type="matrix" values="0 0 0 0 0 0 0 0 0 0 0 0 0 0 0 0 0 0 127 0" result="hardAlpha"/>
<feOffset/>
<feGaussianBlur stdDeviation="12"/>
<feColorMatrix type="matrix" values="0 0 0 0 0.703125 0 0 0 0 0.710106 0 0 0 0 0.75 0 0 0 0.42 0"/>
<feBlend mode="normal" in2="BackgroundImageFix" result="effect1_dropShadow_2_73"/>
<feBlend mode="normal" in="SourceGraphic" in2="effect1_dropShadow_2_73" result="shape"/>
</filter>
</defs>
</svg>
