<svg width="46" height="16" viewBox="0 0 46 16" fill="none" xmlns="http://www.w3.org/2000/svg">
<path d="M25.968 14V13.032V12.52C25.968 11.9333 26.0773 11.424 26.296 10.992C26.52 10.56 26.8133 10.184 27.176 9.864C27.5387 9.53867 27.936 9.25067 28.368 9C28.8053 8.74933 29.24 8.50933 29.672 8.28C30.104 8.05067 30.5013 7.81333 30.864 7.568C31.2267 7.31733 31.5173 7.03733 31.736 6.728C31.96 6.41333 32.072 6.04533 32.072 5.624C32.072 5.06933 31.8773 4.61867 31.488 4.272C31.0987 3.92533 30.5707 3.752 29.904 3.752C29.1947 3.752 28.6187 3.952 28.176 4.352C27.7333 4.752 27.4773 5.304 27.408 6.008H25.728C25.744 5.32 25.912 4.69333 26.232 4.128C26.552 3.56267 27.024 3.112 27.648 2.776C28.272 2.44 29.0453 2.272 29.968 2.272C30.768 2.272 31.4587 2.41333 32.04 2.696C32.6267 2.97333 33.08 3.36267 33.4 3.864C33.72 4.36533 33.88 4.94933 33.88 5.616C33.88 6.208 33.7707 6.71733 33.552 7.144C33.3333 7.57067 33.0453 7.93867 32.688 8.248C32.336 8.55733 31.9467 8.832 31.52 9.072C31.0933 9.30667 30.6667 9.53333 30.24 9.752C29.8133 9.96533 29.4213 10.192 29.064 10.432C28.7067 10.6667 28.4187 10.9333 28.2 11.232C27.9813 11.5307 27.872 11.8907 27.872 12.312V12.512H33.92V14H25.968ZM36.5911 2.432H43.6391L43.5831 3.88H38.0071L37.7351 7.36C38.1298 7.04 38.5458 6.81067 38.9831 6.672C39.4205 6.528 39.8951 6.456 40.4071 6.456C41.1271 6.456 41.7831 6.6 42.3751 6.888C42.9725 7.176 43.4498 7.6 43.8071 8.16C44.1645 8.71467 44.3431 9.4 44.3431 10.216C44.3431 11.0213 44.1671 11.72 43.8151 12.312C43.4631 12.904 42.9645 13.3627 42.3191 13.688C41.6791 14.0133 40.9245 14.176 40.0551 14.176C39.3298 14.176 38.6578 14.0533 38.0391 13.808C37.4205 13.5573 36.8871 13.216 36.4391 12.784C35.9965 12.3467 35.6685 11.8427 35.4551 11.272L36.8871 10.592C37.0791 11.008 37.3165 11.3813 37.5991 11.712C37.8818 12.0373 38.2151 12.2933 38.5991 12.48C38.9831 12.6613 39.4231 12.752 39.9191 12.752C40.7031 12.752 41.3351 12.5307 41.8151 12.088C42.2951 11.64 42.5351 11.0347 42.5351 10.272C42.5351 9.79733 42.4231 9.38133 42.1991 9.024C41.9751 8.66667 41.6738 8.38933 41.2951 8.192C40.9165 7.98933 40.4925 7.888 40.0231 7.888C39.7298 7.888 39.4551 7.91467 39.1991 7.968C38.9431 8.016 38.6871 8.11467 38.4311 8.264C38.1805 8.408 37.9138 8.624 37.6311 8.912C37.5885 8.93333 37.5565 8.944 37.5351 8.944C37.5191 8.944 37.4845 8.93067 37.4311 8.904L36.0631 8.408L36.5911 2.432Z" fill="white"/>
<path d="M2.4072 2.4072C2.45586 1.75283 2.75014 1.14105 3.23103 0.69459C3.71191 0.248131 4.34382 1.0528e-05 5 0H12.2C12.699 0 13.1932 0.0982899 13.6542 0.289258C14.1152 0.480226 14.5341 0.760132 14.887 1.11299C15.2399 1.46586 15.5198 1.88477 15.7107 2.3458C15.9017 2.80684 16 3.30098 16 3.8V8.6C16 9.25618 15.7519 9.88809 15.3054 10.369C14.859 10.8499 14.2472 11.1441 13.5928 11.1928C13.5441 11.8472 13.2499 12.4589 12.769 12.9054C12.2881 13.3519 11.6562 13.6 11 13.6H6.9336L4 15.8C3.3408 16.2944 2.4 15.824 2.4 15V13.592C1.74705 13.5416 1.13716 13.2467 0.692222 12.7662C0.247284 12.2856 7.46275e-05 11.6549 0 11V5C1.0528e-05 4.34382 0.248131 3.71191 0.69459 3.23103C1.14105 2.75014 1.75283 2.45586 2.4072 2.4072ZM3.6144 2.4H11C11.6896 2.4 12.3509 2.67393 12.8385 3.16152C13.3261 3.64912 13.6 4.31044 13.6 5V9.9856C13.9332 9.93751 14.2379 9.77097 14.4583 9.51649C14.6787 9.26201 14.8 8.93664 14.8 8.6V3.8C14.8 3.11044 14.5261 2.44912 14.0385 1.96152C13.5509 1.47393 12.8896 1.2 12.2 1.2H5C4.66336 1.20001 4.33799 1.32132 4.08351 1.54171C3.82903 1.7621 3.66249 2.06681 3.6144 2.4ZM2.6 12.4H3.6V14.6L6.5336 12.4H11C11.3713 12.4 11.7274 12.2525 11.9899 11.9899C12.2525 11.7274 12.4 11.3713 12.4 11V5C12.4 4.6287 12.2525 4.2726 11.9899 4.01005C11.7274 3.7475 11.3713 3.6 11 3.6H2.6C2.2287 3.6 1.8726 3.7475 1.61005 4.01005C1.3475 4.2726 1.2 4.6287 1.2 5V11C1.2 11.7728 1.8272 12.4 2.6 12.4Z" fill="#FE461C"/>
</svg>
