<svg width="606" height="345" viewBox="0 0 606 345" fill="none" xmlns="http://www.w3.org/2000/svg">
<rect y="327" width="606" height="18" rx="9" fill="white"/>
<rect y="327" width="359" height="18" rx="9" fill="#FE461C"/>
<path d="M1.44 311V296.94H4.16V311H1.44ZM3.44 305.24V302.82H10.52V305.24H3.44ZM3.44 299.34V296.94H10.86V299.34H3.44ZM12.7225 311V301.34H15.3625V311H12.7225ZM14.0425 299.78C13.6158 299.78 13.2625 299.64 12.9825 299.36C12.7025 299.067 12.5625 298.707 12.5625 298.28C12.5625 297.867 12.7025 297.513 12.9825 297.22C13.2625 296.927 13.6158 296.78 14.0425 296.78C14.4825 296.78 14.8358 296.927 15.1025 297.22C15.3825 297.513 15.5225 297.867 15.5225 298.28C15.5225 298.707 15.3825 299.067 15.1025 299.36C14.8358 299.64 14.4825 299.78 14.0425 299.78ZM21.7234 315.28C20.6968 315.28 19.7901 315.093 19.0034 314.72C18.2168 314.36 17.5901 313.847 17.1234 313.18L18.7834 311.52C19.1568 311.96 19.5701 312.293 20.0234 312.52C20.4901 312.76 21.0501 312.88 21.7034 312.88C22.5168 312.88 23.1568 312.673 23.6234 312.26C24.1034 311.847 24.3434 311.273 24.3434 310.54V308.12L24.7834 306L24.3634 303.88V301.34H26.9634V310.5C26.9634 311.46 26.7368 312.293 26.2834 313C25.8434 313.72 25.2301 314.28 24.4434 314.68C23.6568 315.08 22.7501 315.28 21.7234 315.28ZM21.6034 310.74C20.7368 310.74 19.9568 310.533 19.2634 310.12C18.5701 309.693 18.0234 309.113 17.6234 308.38C17.2368 307.647 17.0434 306.827 17.0434 305.92C17.0434 305.013 17.2368 304.2 17.6234 303.48C18.0234 302.76 18.5701 302.193 19.2634 301.78C19.9568 301.353 20.7368 301.14 21.6034 301.14C22.3234 301.14 22.9568 301.28 23.5034 301.56C24.0634 301.84 24.5034 302.227 24.8234 302.72C25.1434 303.2 25.3168 303.767 25.3434 304.42V307.46C25.3168 308.1 25.1368 308.673 24.8034 309.18C24.4834 309.673 24.0434 310.06 23.4834 310.34C22.9368 310.607 22.3101 310.74 21.6034 310.74ZM22.1234 308.36C22.6034 308.36 23.0168 308.26 23.3634 308.06C23.7234 307.847 24.0034 307.56 24.2034 307.2C24.4034 306.827 24.5034 306.407 24.5034 305.94C24.5034 305.46 24.4034 305.04 24.2034 304.68C24.0034 304.32 23.7234 304.04 23.3634 303.84C23.0168 303.627 22.6034 303.52 22.1234 303.52C21.6434 303.52 21.2234 303.627 20.8634 303.84C20.5034 304.04 20.2234 304.327 20.0234 304.7C19.8234 305.06 19.7234 305.473 19.7234 305.94C19.7234 306.393 19.8234 306.807 20.0234 307.18C20.2234 307.54 20.5034 307.827 20.8634 308.04C21.2234 308.253 21.6434 308.36 22.1234 308.36ZM29.2655 311V301.34H31.8855V311H29.2655ZM35.5655 311V305.3C35.5655 304.74 35.3855 304.307 35.0255 304C34.6788 303.68 34.2455 303.52 33.7255 303.52C33.3788 303.52 33.0655 303.593 32.7855 303.74C32.5055 303.873 32.2855 304.073 32.1255 304.34C31.9655 304.607 31.8855 304.927 31.8855 305.3L30.8655 304.8C30.8655 304.053 31.0255 303.407 31.3455 302.86C31.6788 302.313 32.1255 301.893 32.6855 301.6C33.2455 301.293 33.8788 301.14 34.5855 301.14C35.2521 301.14 35.8588 301.293 36.4055 301.6C36.9521 301.893 37.3855 302.313 37.7055 302.86C38.0255 303.393 38.1855 304.04 38.1855 304.8V311H35.5655ZM41.8655 311V305.3C41.8655 304.74 41.6855 304.307 41.3255 304C40.9788 303.68 40.5455 303.52 40.0255 303.52C39.6921 303.52 39.3788 303.593 39.0855 303.74C38.8055 303.873 38.5855 304.073 38.4255 304.34C38.2655 304.607 38.1855 304.927 38.1855 305.3L36.6855 304.94C36.7388 304.167 36.9455 303.5 37.3055 302.94C37.6655 302.367 38.1388 301.927 38.7255 301.62C39.3121 301.3 39.9655 301.14 40.6855 301.14C41.4055 301.14 42.0521 301.293 42.6255 301.6C43.1988 301.893 43.6521 302.32 43.9855 302.88C44.3188 303.44 44.4855 304.107 44.4855 304.88V311H41.8655ZM50.6492 311.2C49.7692 311.2 48.9759 310.98 48.2692 310.54C47.5626 310.1 47.0092 309.5 46.6092 308.74C46.2092 307.98 46.0092 307.127 46.0092 306.18C46.0092 305.22 46.2092 304.36 46.6092 303.6C47.0092 302.84 47.5626 302.24 48.2692 301.8C48.9759 301.36 49.7692 301.14 50.6492 301.14C51.3426 301.14 51.9626 301.28 52.5092 301.56C53.0559 301.84 53.4892 302.233 53.8092 302.74C54.1426 303.233 54.3226 303.793 54.3492 304.42V307.9C54.3226 308.54 54.1426 309.107 53.8092 309.6C53.4892 310.093 53.0559 310.487 52.5092 310.78C51.9626 311.06 51.3426 311.2 50.6492 311.2ZM51.1292 308.78C51.8626 308.78 52.4559 308.54 52.9092 308.06C53.3626 307.567 53.5892 306.933 53.5892 306.16C53.5892 305.653 53.4826 305.207 53.2692 304.82C53.0692 304.42 52.7826 304.113 52.4092 303.9C52.0492 303.673 51.6226 303.56 51.1292 303.56C50.6492 303.56 50.2226 303.673 49.8492 303.9C49.4892 304.113 49.2026 304.42 48.9892 304.82C48.7892 305.207 48.6892 305.653 48.6892 306.16C48.6892 306.68 48.7892 307.14 48.9892 307.54C49.2026 307.927 49.4892 308.233 49.8492 308.46C50.2226 308.673 50.6492 308.78 51.1292 308.78ZM53.4492 311V308.4L53.8692 306.04L53.4492 303.72V301.34H56.0492V311H53.4492Z" fill="white"/>
<path d="M564.62 311.2C563.687 311.2 562.847 310.987 562.1 310.56C561.353 310.12 560.76 309.533 560.32 308.8C559.893 308.067 559.68 307.253 559.68 306.36C559.68 305.08 560.127 303.787 561.02 302.48L564.84 297H567.5L563.42 302.74L562.58 303.24C562.713 302.933 562.88 302.673 563.08 302.46C563.293 302.233 563.567 302.06 563.9 301.94C564.247 301.82 564.673 301.76 565.18 301.76C565.993 301.76 566.727 301.953 567.38 302.34C568.047 302.713 568.58 303.24 568.98 303.92C569.38 304.587 569.58 305.373 569.58 306.28C569.58 307.187 569.36 308.013 568.92 308.76C568.48 309.507 567.88 310.1 567.12 310.54C566.373 310.98 565.54 311.2 564.62 311.2ZM564.62 309.04C565.127 309.04 565.58 308.92 565.98 308.68C566.38 308.44 566.693 308.113 566.92 307.7C567.16 307.273 567.28 306.8 567.28 306.28C567.28 305.76 567.16 305.293 566.92 304.88C566.693 304.467 566.38 304.147 565.98 303.92C565.58 303.68 565.127 303.56 564.62 303.56C564.113 303.56 563.66 303.68 563.26 303.92C562.86 304.16 562.547 304.487 562.32 304.9C562.093 305.3 561.98 305.76 561.98 306.28C561.98 306.8 562.093 307.273 562.32 307.7C562.547 308.113 562.86 308.44 563.26 308.68C563.66 308.92 564.113 309.04 564.62 309.04ZM576.81 311.2C575.757 311.2 574.79 310.907 573.91 310.32C573.044 309.72 572.35 308.88 571.83 307.8C571.31 306.72 571.05 305.447 571.05 303.98C571.05 302.513 571.304 301.247 571.81 300.18C572.33 299.1 573.024 298.267 573.89 297.68C574.757 297.093 575.717 296.8 576.77 296.8C577.837 296.8 578.804 297.093 579.67 297.68C580.537 298.267 581.224 299.1 581.73 300.18C582.25 301.247 582.51 302.52 582.51 304C582.51 305.467 582.25 306.74 581.73 307.82C581.224 308.9 580.537 309.733 579.67 310.32C578.817 310.907 577.864 311.2 576.81 311.2ZM576.77 309.04C577.464 309.04 578.064 308.853 578.57 308.48C579.077 308.107 579.47 307.547 579.75 306.8C580.044 306.053 580.19 305.113 580.19 303.98C580.19 302.86 580.044 301.927 579.75 301.18C579.47 300.433 579.07 299.88 578.55 299.52C578.044 299.147 577.45 298.96 576.77 298.96C576.09 298.96 575.49 299.147 574.97 299.52C574.464 299.88 574.07 300.433 573.79 301.18C573.51 301.913 573.37 302.847 573.37 303.98C573.37 305.113 573.51 306.053 573.79 306.8C574.07 307.547 574.464 308.107 574.97 308.48C575.49 308.853 576.09 309.04 576.77 309.04ZM586.976 302.46C586.456 302.46 585.976 302.333 585.536 302.08C585.109 301.827 584.769 301.487 584.516 301.06C584.263 300.633 584.136 300.153 584.136 299.62C584.136 299.087 584.263 298.613 584.516 298.2C584.769 297.773 585.109 297.433 585.536 297.18C585.963 296.927 586.443 296.8 586.976 296.8C587.509 296.8 587.989 296.927 588.416 297.18C588.856 297.433 589.203 297.773 589.456 298.2C589.709 298.613 589.836 299.087 589.836 299.62C589.836 300.153 589.709 300.633 589.456 301.06C589.203 301.487 588.863 301.827 588.436 302.08C588.009 302.333 587.523 302.46 586.976 302.46ZM586.976 300.76C587.309 300.76 587.576 300.653 587.776 300.44C587.976 300.227 588.076 299.953 588.076 299.62C588.076 299.287 587.969 299.02 587.756 298.82C587.556 298.607 587.296 298.5 586.976 298.5C586.656 298.5 586.396 298.607 586.196 298.82C585.996 299.02 585.896 299.287 585.896 299.62C585.896 299.953 585.996 300.227 586.196 300.44C586.396 300.653 586.656 300.76 586.976 300.76ZM592.836 311.2C592.316 311.2 591.836 311.073 591.396 310.82C590.969 310.567 590.629 310.227 590.376 309.8C590.123 309.373 589.996 308.893 589.996 308.36C589.996 307.827 590.123 307.353 590.376 306.94C590.629 306.513 590.969 306.173 591.396 305.92C591.823 305.667 592.303 305.54 592.836 305.54C593.369 305.54 593.849 305.667 594.276 305.92C594.716 306.173 595.063 306.513 595.316 306.94C595.569 307.353 595.696 307.827 595.696 308.36C595.696 308.893 595.569 309.373 595.316 309.8C595.063 310.227 594.723 310.567 594.296 310.82C593.869 311.073 593.383 311.2 592.836 311.2ZM592.836 309.5C593.169 309.5 593.436 309.393 593.636 309.18C593.849 308.967 593.956 308.693 593.956 308.36C593.956 308.04 593.849 307.773 593.636 307.56C593.423 307.347 593.156 307.24 592.836 307.24C592.516 307.24 592.256 307.347 592.056 307.56C591.856 307.773 591.756 308.04 591.756 308.36C591.756 308.693 591.856 308.967 592.056 309.18C592.256 309.393 592.516 309.5 592.836 309.5ZM584.336 311L593.316 297H595.496L586.516 311H584.336Z" fill="white"/>
<rect y="230" width="606" height="18" rx="9" fill="white"/>
<rect y="230" width="429" height="18" rx="9" fill="#FE461C"/>
<path d="M0.4 214L6.06 199.94H8.28L13.92 214H11.02L6.66 202.46H7.66L3.24 214H0.4ZM3.4 211.38V209.1H10.96V211.38H3.4ZM19.0095 214.2C18.1162 214.2 17.3162 213.98 16.6095 213.54C15.9029 213.1 15.3429 212.5 14.9295 211.74C14.5295 210.98 14.3295 210.127 14.3295 209.18C14.3295 208.22 14.5295 207.36 14.9295 206.6C15.3429 205.84 15.8962 205.24 16.5895 204.8C17.2962 204.36 18.1029 204.14 19.0095 204.14C19.7029 204.14 20.3229 204.28 20.8695 204.56C21.4295 204.84 21.8762 205.233 22.2095 205.74C22.5562 206.233 22.7429 206.793 22.7695 207.42V210.86C22.7429 211.487 22.5629 212.053 22.2295 212.56C21.8962 213.067 21.4495 213.467 20.8895 213.76C20.3295 214.053 19.7029 214.2 19.0095 214.2ZM19.4495 211.78C19.9429 211.78 20.3695 211.673 20.7295 211.46C21.1029 211.233 21.3895 210.927 21.5895 210.54C21.8029 210.14 21.9095 209.68 21.9095 209.16C21.9095 208.653 21.8029 208.207 21.5895 207.82C21.3895 207.42 21.1029 207.113 20.7295 206.9C20.3695 206.673 19.9495 206.56 19.4695 206.56C18.9762 206.56 18.5429 206.673 18.1695 206.9C17.8095 207.127 17.5229 207.433 17.3095 207.82C17.1095 208.207 17.0095 208.653 17.0095 209.16C17.0095 209.68 17.1095 210.14 17.3095 210.54C17.5229 210.927 17.8162 211.233 18.1895 211.46C18.5629 211.673 18.9829 211.78 19.4495 211.78ZM24.3695 214H21.7695V211.4L22.1895 209.04L21.7495 206.72V199.54H24.3695V214ZM31.2273 214.2C30.254 214.2 29.374 213.98 28.5873 213.54C27.814 213.087 27.194 212.48 26.7273 211.72C26.274 210.947 26.0473 210.087 26.0473 209.14C26.0473 208.193 26.274 207.347 26.7273 206.6C27.1807 205.84 27.8007 205.24 28.5873 204.8C29.374 204.347 30.2473 204.12 31.2073 204.12C32.194 204.12 33.074 204.347 33.8473 204.8C34.634 205.24 35.254 205.84 35.7073 206.6C36.1607 207.347 36.3873 208.193 36.3873 209.14C36.3873 210.087 36.1607 210.947 35.7073 211.72C35.254 212.48 34.634 213.087 33.8473 213.54C33.074 213.98 32.2007 214.2 31.2273 214.2ZM31.2073 211.76C31.7007 211.76 32.134 211.653 32.5073 211.44C32.894 211.213 33.1873 210.907 33.3873 210.52C33.6007 210.12 33.7073 209.667 33.7073 209.16C33.7073 208.653 33.6007 208.207 33.3873 207.82C33.174 207.433 32.8807 207.133 32.5073 206.92C32.134 206.693 31.7007 206.58 31.2073 206.58C30.7273 206.58 30.3007 206.693 29.9273 206.92C29.554 207.133 29.2607 207.433 29.0473 207.82C28.834 208.207 28.7273 208.653 28.7273 209.16C28.7273 209.667 28.834 210.12 29.0473 210.52C29.2607 210.907 29.554 211.213 29.9273 211.44C30.3007 211.653 30.7273 211.76 31.2073 211.76ZM43.4341 214.2C42.7407 214.2 42.1141 214.053 41.5541 213.76C40.9941 213.467 40.5474 213.067 40.2141 212.56C39.8807 212.053 39.7007 211.487 39.6741 210.86V207.42C39.7007 206.793 39.8807 206.233 40.2141 205.74C40.5607 205.233 41.0141 204.84 41.5741 204.56C42.1341 204.28 42.7541 204.14 43.4341 204.14C44.3274 204.14 45.1274 204.36 45.8341 204.8C46.5407 205.24 47.0941 205.84 47.4941 206.6C47.9074 207.36 48.1141 208.22 48.1141 209.18C48.1141 210.127 47.9074 210.98 47.4941 211.74C47.0941 212.5 46.5407 213.1 45.8341 213.54C45.1274 213.98 44.3274 214.2 43.4341 214.2ZM42.9941 211.78C43.4741 211.78 43.8941 211.673 44.2541 211.46C44.6274 211.233 44.9141 210.927 45.1141 210.54C45.3274 210.14 45.4341 209.68 45.4341 209.16C45.4341 208.653 45.3274 208.207 45.1141 207.82C44.9141 207.42 44.6274 207.113 44.2541 206.9C43.8807 206.673 43.4541 206.56 42.9741 206.56C42.4941 206.56 42.0674 206.673 41.6941 206.9C41.3341 207.113 41.0474 207.42 40.8341 207.82C40.6341 208.207 40.5341 208.653 40.5341 209.16C40.5341 209.68 40.6341 210.14 40.8341 210.54C41.0474 210.927 41.3407 211.233 41.7141 211.46C42.0874 211.673 42.5141 211.78 42.9941 211.78ZM38.0741 214V199.54H40.6941V206.72L40.2541 209.04L40.6741 211.4V214H38.0741ZM54.4519 214.2C53.4385 214.2 52.5385 213.987 51.7519 213.56C50.9652 213.12 50.3385 212.52 49.8719 211.76C49.4185 211 49.1919 210.133 49.1919 209.16C49.1919 208.2 49.4119 207.347 49.8519 206.6C50.3052 205.84 50.9185 205.24 51.6919 204.8C52.4652 204.347 53.3252 204.12 54.2719 204.12C55.2052 204.12 56.0252 204.333 56.7319 204.76C57.4519 205.173 58.0119 205.747 58.4119 206.48C58.8252 207.2 59.0319 208.02 59.0319 208.94C59.0319 209.113 59.0185 209.293 58.9919 209.48C58.9785 209.653 58.9452 209.853 58.8919 210.08L50.7719 210.1V208.14L57.6719 208.12L56.6119 208.94C56.5852 208.367 56.4785 207.887 56.2919 207.5C56.1185 207.113 55.8585 206.82 55.5119 206.62C55.1785 206.407 54.7652 206.3 54.2719 206.3C53.7519 206.3 53.2985 206.42 52.9119 206.66C52.5252 206.887 52.2252 207.213 52.0119 207.64C51.8119 208.053 51.7119 208.547 51.7119 209.12C51.7119 209.707 51.8185 210.22 52.0319 210.66C52.2585 211.087 52.5785 211.42 52.9919 211.66C53.4052 211.887 53.8852 212 54.4319 212C54.9252 212 55.3719 211.92 55.7719 211.76C56.1719 211.587 56.5185 211.333 56.8119 211L58.3519 212.54C57.8852 213.087 57.3119 213.5 56.6319 213.78C55.9652 214.06 55.2385 214.2 54.4519 214.2ZM63.232 214L68.892 199.94H71.112L76.752 214H73.852L69.492 202.46H70.492L66.072 214H63.232ZM66.232 211.38V209.1H73.792V211.38H66.232ZM78.8072 214V203.3C78.8072 202.527 78.9739 201.847 79.3072 201.26C79.6405 200.66 80.1139 200.187 80.7272 199.84C81.3405 199.493 82.0605 199.32 82.8872 199.32C83.5139 199.32 84.0539 199.427 84.5072 199.64C84.9605 199.853 85.3672 200.147 85.7272 200.52L84.0672 202.2C83.9205 202.053 83.7605 201.94 83.5872 201.86C83.4139 201.78 83.1939 201.74 82.9272 201.74C82.4472 201.74 82.0739 201.873 81.8072 202.14C81.5539 202.393 81.4272 202.76 81.4272 203.24V214H78.8072ZM76.5672 206.64V204.34H84.2872V206.64H76.5672ZM86.7597 214V200.32H89.3797V214H86.7597ZM84.4997 206.64V204.34H91.6397V206.64H84.4997ZM97.4988 214.2C96.4854 214.2 95.5854 213.987 94.7988 213.56C94.0121 213.12 93.3854 212.52 92.9188 211.76C92.4654 211 92.2388 210.133 92.2388 209.16C92.2388 208.2 92.4588 207.347 92.8988 206.6C93.3521 205.84 93.9654 205.24 94.7388 204.8C95.5121 204.347 96.3721 204.12 97.3188 204.12C98.2521 204.12 99.0721 204.333 99.7788 204.76C100.499 205.173 101.059 205.747 101.459 206.48C101.872 207.2 102.079 208.02 102.079 208.94C102.079 209.113 102.065 209.293 102.039 209.48C102.025 209.653 101.992 209.853 101.939 210.08L93.8188 210.1V208.14L100.719 208.12L99.6588 208.94C99.6321 208.367 99.5254 207.887 99.3388 207.5C99.1654 207.113 98.9054 206.82 98.5588 206.62C98.2254 206.407 97.8121 206.3 97.3188 206.3C96.7988 206.3 96.3454 206.42 95.9588 206.66C95.5721 206.887 95.2721 207.213 95.0588 207.64C94.8588 208.053 94.7588 208.547 94.7588 209.12C94.7588 209.707 94.8654 210.22 95.0788 210.66C95.3054 211.087 95.6254 211.42 96.0388 211.66C96.4521 211.887 96.9321 212 97.4788 212C97.9721 212 98.4188 211.92 98.8188 211.76C99.2188 211.587 99.5654 211.333 99.8588 211L101.399 212.54C100.932 213.087 100.359 213.5 99.6788 213.78C99.0121 214.06 98.2854 214.2 97.4988 214.2ZM103.699 214V204.34H106.319V214H103.699ZM106.319 208.66L105.299 207.98C105.419 206.793 105.766 205.86 106.339 205.18C106.912 204.487 107.739 204.14 108.819 204.14C109.286 204.14 109.706 204.22 110.079 204.38C110.452 204.527 110.792 204.773 111.099 205.12L109.459 207C109.312 206.84 109.132 206.72 108.919 206.64C108.719 206.56 108.486 206.52 108.219 206.52C107.659 206.52 107.199 206.7 106.839 207.06C106.492 207.407 106.319 207.94 106.319 208.66ZM116.557 214V199.94H119.277V214H116.557ZM118.557 214V211.6H126.337V214H118.557ZM118.557 207.98V205.66H125.637V207.98H118.557ZM118.557 202.34V199.94H126.237V202.34H118.557ZM129.588 214V203.72C129.588 202.907 129.755 202.187 130.088 201.56C130.435 200.933 130.922 200.44 131.548 200.08C132.188 199.707 132.935 199.52 133.788 199.52C134.642 199.52 135.342 199.7 135.888 200.06C136.448 200.42 136.862 200.9 137.128 201.5C137.408 202.087 137.548 202.747 137.548 203.48L135.568 203.62C135.568 203.06 135.422 202.627 135.128 202.32C134.848 202 134.435 201.84 133.888 201.84C133.342 201.84 132.922 201.993 132.628 202.3C132.348 202.607 132.208 203.027 132.208 203.56V214H129.588ZM127.348 206.64V204.34H141.048V206.64H127.348ZM135.568 214V203.3C135.568 202.54 135.735 201.86 136.068 201.26C136.402 200.66 136.875 200.187 137.488 199.84C138.102 199.493 138.822 199.32 139.648 199.32C140.275 199.32 140.815 199.427 141.268 199.64C141.722 199.853 142.128 200.147 142.488 200.52L140.828 202.2C140.682 202.053 140.522 201.94 140.348 201.86C140.175 201.78 139.955 201.74 139.688 201.74C139.208 201.74 138.835 201.873 138.568 202.14C138.315 202.393 138.188 202.76 138.188 203.24V214H135.568ZM146.835 214.2C145.821 214.2 144.921 213.987 144.135 213.56C143.348 213.12 142.721 212.52 142.255 211.76C141.801 211 141.575 210.133 141.575 209.16C141.575 208.2 141.795 207.347 142.235 206.6C142.688 205.84 143.301 205.24 144.075 204.8C144.848 204.347 145.708 204.12 146.655 204.12C147.588 204.12 148.408 204.333 149.115 204.76C149.835 205.173 150.395 205.747 150.795 206.48C151.208 207.2 151.415 208.02 151.415 208.94C151.415 209.113 151.401 209.293 151.375 209.48C151.361 209.653 151.328 209.853 151.275 210.08L143.155 210.1V208.14L150.055 208.12L148.995 208.94C148.968 208.367 148.861 207.887 148.675 207.5C148.501 207.113 148.241 206.82 147.895 206.62C147.561 206.407 147.148 206.3 146.655 206.3C146.135 206.3 145.681 206.42 145.295 206.66C144.908 206.887 144.608 207.213 144.395 207.64C144.195 208.053 144.095 208.547 144.095 209.12C144.095 209.707 144.201 210.22 144.415 210.66C144.641 211.087 144.961 211.42 145.375 211.66C145.788 211.887 146.268 212 146.815 212C147.308 212 147.755 211.92 148.155 211.76C148.555 211.587 148.901 211.333 149.195 211L150.735 212.54C150.268 213.087 149.695 213.5 149.015 213.78C148.348 214.06 147.621 214.2 146.835 214.2ZM157.595 214.2C156.608 214.2 155.722 213.98 154.935 213.54C154.148 213.1 153.528 212.5 153.075 211.74C152.622 210.98 152.395 210.127 152.395 209.18C152.395 208.22 152.622 207.36 153.075 206.6C153.528 205.84 154.148 205.24 154.935 204.8C155.735 204.347 156.622 204.12 157.595 204.12C158.355 204.12 159.055 204.26 159.695 204.54C160.335 204.82 160.888 205.22 161.355 205.74L159.675 207.44C159.422 207.16 159.115 206.947 158.755 206.8C158.408 206.653 158.022 206.58 157.595 206.58C157.115 206.58 156.682 206.693 156.295 206.92C155.922 207.133 155.622 207.433 155.395 207.82C155.182 208.193 155.075 208.64 155.075 209.16C155.075 209.667 155.182 210.12 155.395 210.52C155.622 210.907 155.922 211.213 156.295 211.44C156.682 211.653 157.115 211.76 157.595 211.76C158.035 211.76 158.428 211.687 158.775 211.54C159.135 211.38 159.442 211.153 159.695 210.86L161.395 212.56C160.902 213.093 160.335 213.5 159.695 213.78C159.055 214.06 158.355 214.2 157.595 214.2ZM164.143 214V200.32H166.763V214H164.143ZM161.883 206.64V204.34H169.023V206.64H161.883Z" fill="white"/>
<path d="M561.52 214L566.62 201.4H568.9L563.92 214H561.52ZM559.52 202.06V200H568.9V201.4L567.92 202.06H559.52ZM575.717 214.2C574.663 214.2 573.697 213.907 572.817 213.32C571.95 212.72 571.257 211.88 570.737 210.8C570.217 209.72 569.957 208.447 569.957 206.98C569.957 205.513 570.21 204.247 570.717 203.18C571.237 202.1 571.93 201.267 572.797 200.68C573.663 200.093 574.623 199.8 575.677 199.8C576.743 199.8 577.71 200.093 578.577 200.68C579.443 201.267 580.13 202.1 580.637 203.18C581.157 204.247 581.417 205.52 581.417 207C581.417 208.467 581.157 209.74 580.637 210.82C580.13 211.9 579.443 212.733 578.577 213.32C577.723 213.907 576.77 214.2 575.717 214.2ZM575.677 212.04C576.37 212.04 576.97 211.853 577.477 211.48C577.983 211.107 578.377 210.547 578.657 209.8C578.95 209.053 579.097 208.113 579.097 206.98C579.097 205.86 578.95 204.927 578.657 204.18C578.377 203.433 577.977 202.88 577.457 202.52C576.95 202.147 576.357 201.96 575.677 201.96C574.997 201.96 574.397 202.147 573.877 202.52C573.37 202.88 572.977 203.433 572.697 204.18C572.417 204.913 572.277 205.847 572.277 206.98C572.277 208.113 572.417 209.053 572.697 209.8C572.977 210.547 573.37 211.107 573.877 211.48C574.397 211.853 574.997 212.04 575.677 212.04ZM585.882 205.46C585.362 205.46 584.882 205.333 584.442 205.08C584.016 204.827 583.676 204.487 583.422 204.06C583.169 203.633 583.042 203.153 583.042 202.62C583.042 202.087 583.169 201.613 583.422 201.2C583.676 200.773 584.016 200.433 584.442 200.18C584.869 199.927 585.349 199.8 585.882 199.8C586.416 199.8 586.896 199.927 587.322 200.18C587.762 200.433 588.109 200.773 588.362 201.2C588.616 201.613 588.742 202.087 588.742 202.62C588.742 203.153 588.616 203.633 588.362 204.06C588.109 204.487 587.769 204.827 587.342 205.08C586.916 205.333 586.429 205.46 585.882 205.46ZM585.882 203.76C586.216 203.76 586.482 203.653 586.682 203.44C586.882 203.227 586.982 202.953 586.982 202.62C586.982 202.287 586.876 202.02 586.662 201.82C586.462 201.607 586.202 201.5 585.882 201.5C585.562 201.5 585.302 201.607 585.102 201.82C584.902 202.02 584.802 202.287 584.802 202.62C584.802 202.953 584.902 203.227 585.102 203.44C585.302 203.653 585.562 203.76 585.882 203.76ZM591.742 214.2C591.222 214.2 590.742 214.073 590.302 213.82C589.876 213.567 589.536 213.227 589.282 212.8C589.029 212.373 588.902 211.893 588.902 211.36C588.902 210.827 589.029 210.353 589.282 209.94C589.536 209.513 589.876 209.173 590.302 208.92C590.729 208.667 591.209 208.54 591.742 208.54C592.276 208.54 592.756 208.667 593.182 208.92C593.622 209.173 593.969 209.513 594.222 209.94C594.476 210.353 594.602 210.827 594.602 211.36C594.602 211.893 594.476 212.373 594.222 212.8C593.969 213.227 593.629 213.567 593.202 213.82C592.776 214.073 592.289 214.2 591.742 214.2ZM591.742 212.5C592.076 212.5 592.342 212.393 592.542 212.18C592.756 211.967 592.862 211.693 592.862 211.36C592.862 211.04 592.756 210.773 592.542 210.56C592.329 210.347 592.062 210.24 591.742 210.24C591.422 210.24 591.162 210.347 590.962 210.56C590.762 210.773 590.662 211.04 590.662 211.36C590.662 211.693 590.762 211.967 590.962 212.18C591.162 212.393 591.422 212.5 591.742 212.5ZM583.242 214L592.222 200H594.402L585.422 214H583.242Z" fill="white"/>
<rect y="133" width="606" height="18" rx="9" fill="white"/>
<rect y="133" width="496" height="18" rx="9" fill="#FE461C"/>
<path d="M0.4 117L6.06 102.94H8.28L13.92 117H11.02L6.66 105.46H7.66L3.24 117H0.4ZM3.4 114.38V112.1H10.96V114.38H3.4ZM19.0095 117.2C18.1162 117.2 17.3162 116.98 16.6095 116.54C15.9029 116.1 15.3429 115.5 14.9295 114.74C14.5295 113.98 14.3295 113.127 14.3295 112.18C14.3295 111.22 14.5295 110.36 14.9295 109.6C15.3429 108.84 15.8962 108.24 16.5895 107.8C17.2962 107.36 18.1029 107.14 19.0095 107.14C19.7029 107.14 20.3229 107.28 20.8695 107.56C21.4295 107.84 21.8762 108.233 22.2095 108.74C22.5562 109.233 22.7429 109.793 22.7695 110.42V113.86C22.7429 114.487 22.5629 115.053 22.2295 115.56C21.8962 116.067 21.4495 116.467 20.8895 116.76C20.3295 117.053 19.7029 117.2 19.0095 117.2ZM19.4495 114.78C19.9429 114.78 20.3695 114.673 20.7295 114.46C21.1029 114.233 21.3895 113.927 21.5895 113.54C21.8029 113.14 21.9095 112.68 21.9095 112.16C21.9095 111.653 21.8029 111.207 21.5895 110.82C21.3895 110.42 21.1029 110.113 20.7295 109.9C20.3695 109.673 19.9495 109.56 19.4695 109.56C18.9762 109.56 18.5429 109.673 18.1695 109.9C17.8095 110.127 17.5229 110.433 17.3095 110.82C17.1095 111.207 17.0095 111.653 17.0095 112.16C17.0095 112.68 17.1095 113.14 17.3095 113.54C17.5229 113.927 17.8162 114.233 18.1895 114.46C18.5629 114.673 18.9829 114.78 19.4495 114.78ZM24.3695 117H21.7695V114.4L22.1895 112.04L21.7495 109.72V102.54H24.3695V117ZM31.2273 117.2C30.254 117.2 29.374 116.98 28.5873 116.54C27.814 116.087 27.194 115.48 26.7273 114.72C26.274 113.947 26.0473 113.087 26.0473 112.14C26.0473 111.193 26.274 110.347 26.7273 109.6C27.1807 108.84 27.8007 108.24 28.5873 107.8C29.374 107.347 30.2473 107.12 31.2073 107.12C32.194 107.12 33.074 107.347 33.8473 107.8C34.634 108.24 35.254 108.84 35.7073 109.6C36.1607 110.347 36.3873 111.193 36.3873 112.14C36.3873 113.087 36.1607 113.947 35.7073 114.72C35.254 115.48 34.634 116.087 33.8473 116.54C33.074 116.98 32.2007 117.2 31.2273 117.2ZM31.2073 114.76C31.7007 114.76 32.134 114.653 32.5073 114.44C32.894 114.213 33.1873 113.907 33.3873 113.52C33.6007 113.12 33.7073 112.667 33.7073 112.16C33.7073 111.653 33.6007 111.207 33.3873 110.82C33.174 110.433 32.8807 110.133 32.5073 109.92C32.134 109.693 31.7007 109.58 31.2073 109.58C30.7273 109.58 30.3007 109.693 29.9273 109.92C29.554 110.133 29.2607 110.433 29.0473 110.82C28.834 111.207 28.7273 111.653 28.7273 112.16C28.7273 112.667 28.834 113.12 29.0473 113.52C29.2607 113.907 29.554 114.213 29.9273 114.44C30.3007 114.653 30.7273 114.76 31.2073 114.76ZM43.4341 117.2C42.7407 117.2 42.1141 117.053 41.5541 116.76C40.9941 116.467 40.5474 116.067 40.2141 115.56C39.8807 115.053 39.7007 114.487 39.6741 113.86V110.42C39.7007 109.793 39.8807 109.233 40.2141 108.74C40.5607 108.233 41.0141 107.84 41.5741 107.56C42.1341 107.28 42.7541 107.14 43.4341 107.14C44.3274 107.14 45.1274 107.36 45.8341 107.8C46.5407 108.24 47.0941 108.84 47.4941 109.6C47.9074 110.36 48.1141 111.22 48.1141 112.18C48.1141 113.127 47.9074 113.98 47.4941 114.74C47.0941 115.5 46.5407 116.1 45.8341 116.54C45.1274 116.98 44.3274 117.2 43.4341 117.2ZM42.9941 114.78C43.4741 114.78 43.8941 114.673 44.2541 114.46C44.6274 114.233 44.9141 113.927 45.1141 113.54C45.3274 113.14 45.4341 112.68 45.4341 112.16C45.4341 111.653 45.3274 111.207 45.1141 110.82C44.9141 110.42 44.6274 110.113 44.2541 109.9C43.8807 109.673 43.4541 109.56 42.9741 109.56C42.4941 109.56 42.0674 109.673 41.6941 109.9C41.3341 110.113 41.0474 110.42 40.8341 110.82C40.6341 111.207 40.5341 111.653 40.5341 112.16C40.5341 112.68 40.6341 113.14 40.8341 113.54C41.0474 113.927 41.3407 114.233 41.7141 114.46C42.0874 114.673 42.5141 114.78 42.9941 114.78ZM38.0741 117V102.54H40.6941V109.72L40.2541 112.04L40.6741 114.4V117H38.0741ZM54.4519 117.2C53.4385 117.2 52.5385 116.987 51.7519 116.56C50.9652 116.12 50.3385 115.52 49.8719 114.76C49.4185 114 49.1919 113.133 49.1919 112.16C49.1919 111.2 49.4119 110.347 49.8519 109.6C50.3052 108.84 50.9185 108.24 51.6919 107.8C52.4652 107.347 53.3252 107.12 54.2719 107.12C55.2052 107.12 56.0252 107.333 56.7319 107.76C57.4519 108.173 58.0119 108.747 58.4119 109.48C58.8252 110.2 59.0319 111.02 59.0319 111.94C59.0319 112.113 59.0185 112.293 58.9919 112.48C58.9785 112.653 58.9452 112.853 58.8919 113.08L50.7719 113.1V111.14L57.6719 111.12L56.6119 111.94C56.5852 111.367 56.4785 110.887 56.2919 110.5C56.1185 110.113 55.8585 109.82 55.5119 109.62C55.1785 109.407 54.7652 109.3 54.2719 109.3C53.7519 109.3 53.2985 109.42 52.9119 109.66C52.5252 109.887 52.2252 110.213 52.0119 110.64C51.8119 111.053 51.7119 111.547 51.7119 112.12C51.7119 112.707 51.8185 113.22 52.0319 113.66C52.2585 114.087 52.5785 114.42 52.9919 114.66C53.4052 114.887 53.8852 115 54.4319 115C54.9252 115 55.3719 114.92 55.7719 114.76C56.1719 114.587 56.5185 114.333 56.8119 114L58.3519 115.54C57.8852 116.087 57.3119 116.5 56.6319 116.78C55.9652 117.06 55.2385 117.2 54.4519 117.2ZM66.8384 111.78V109.56H70.0984C70.5251 109.56 70.9118 109.473 71.2584 109.3C71.6051 109.127 71.8784 108.88 72.0784 108.56C72.2784 108.227 72.3784 107.827 72.3784 107.36C72.3784 106.907 72.2784 106.513 72.0784 106.18C71.8784 105.847 71.6051 105.593 71.2584 105.42C70.9118 105.247 70.5251 105.16 70.0984 105.16H66.8384V102.94H70.3784C71.2718 102.94 72.0718 103.12 72.7784 103.48C73.4984 103.84 74.0651 104.353 74.4784 105.02C74.8918 105.673 75.0984 106.453 75.0984 107.36C75.0984 108.267 74.8918 109.053 74.4784 109.72C74.0651 110.373 73.4984 110.88 72.7784 111.24C72.0718 111.6 71.2718 111.78 70.3784 111.78H66.8384ZM64.8384 117V102.94H67.5584V117H64.8384ZM83.3827 117V111.46C83.3827 110.887 83.2027 110.42 82.8427 110.06C82.4827 109.7 82.016 109.52 81.4427 109.52C81.0693 109.52 80.736 109.6 80.4427 109.76C80.1493 109.92 79.916 110.147 79.7427 110.44C79.5827 110.733 79.5027 111.073 79.5027 111.46L78.4827 110.94C78.4827 110.18 78.6427 109.52 78.9627 108.96C79.2827 108.387 79.7227 107.94 80.2827 107.62C80.856 107.3 81.5093 107.14 82.2427 107.14C82.976 107.14 83.6227 107.3 84.1827 107.62C84.756 107.94 85.2027 108.38 85.5227 108.94C85.8427 109.5 86.0027 110.147 86.0027 110.88V117H83.3827ZM76.8827 117V102.54H79.5027V117H76.8827ZM92.6531 117.2C91.6798 117.2 90.7998 116.98 90.0131 116.54C89.2398 116.087 88.6198 115.48 88.1531 114.72C87.6998 113.947 87.4731 113.087 87.4731 112.14C87.4731 111.193 87.6998 110.347 88.1531 109.6C88.6065 108.84 89.2265 108.24 90.0131 107.8C90.7998 107.347 91.6731 107.12 92.6331 107.12C93.6198 107.12 94.4998 107.347 95.2731 107.8C96.0598 108.24 96.6798 108.84 97.1331 109.6C97.5865 110.347 97.8131 111.193 97.8131 112.14C97.8131 113.087 97.5865 113.947 97.1331 114.72C96.6798 115.48 96.0598 116.087 95.2731 116.54C94.4998 116.98 93.6265 117.2 92.6531 117.2ZM92.6331 114.76C93.1265 114.76 93.5598 114.653 93.9331 114.44C94.3198 114.213 94.6131 113.907 94.8131 113.52C95.0265 113.12 95.1331 112.667 95.1331 112.16C95.1331 111.653 95.0265 111.207 94.8131 110.82C94.5998 110.433 94.3065 110.133 93.9331 109.92C93.5598 109.693 93.1265 109.58 92.6331 109.58C92.1531 109.58 91.7265 109.693 91.3531 109.92C90.9798 110.133 90.6865 110.433 90.4731 110.82C90.2598 111.207 90.1531 111.653 90.1531 112.16C90.1531 112.667 90.2598 113.12 90.4731 113.52C90.6865 113.907 90.9798 114.213 91.3531 114.44C91.7265 114.653 92.1531 114.76 92.6331 114.76ZM100.685 117V103.32H103.305V117H100.685ZM98.4255 109.64V107.34H105.565V109.64H98.4255ZM111.345 117.2C110.371 117.2 109.491 116.98 108.705 116.54C107.931 116.087 107.311 115.48 106.845 114.72C106.391 113.947 106.165 113.087 106.165 112.14C106.165 111.193 106.391 110.347 106.845 109.6C107.298 108.84 107.918 108.24 108.705 107.8C109.491 107.347 110.365 107.12 111.325 107.12C112.311 107.12 113.191 107.347 113.965 107.8C114.751 108.24 115.371 108.84 115.825 109.6C116.278 110.347 116.505 111.193 116.505 112.14C116.505 113.087 116.278 113.947 115.825 114.72C115.371 115.48 114.751 116.087 113.965 116.54C113.191 116.98 112.318 117.2 111.345 117.2ZM111.325 114.76C111.818 114.76 112.251 114.653 112.625 114.44C113.011 114.213 113.305 113.907 113.505 113.52C113.718 113.12 113.825 112.667 113.825 112.16C113.825 111.653 113.718 111.207 113.505 110.82C113.291 110.433 112.998 110.133 112.625 109.92C112.251 109.693 111.818 109.58 111.325 109.58C110.845 109.58 110.418 109.693 110.045 109.92C109.671 110.133 109.378 110.433 109.165 110.82C108.951 111.207 108.845 111.653 108.845 112.16C108.845 112.667 108.951 113.12 109.165 113.52C109.378 113.907 109.671 114.213 110.045 114.44C110.418 114.653 110.845 114.76 111.325 114.76ZM121.511 117.22C120.965 117.22 120.425 117.147 119.891 117C119.371 116.853 118.891 116.653 118.451 116.4C118.011 116.133 117.631 115.813 117.311 115.44L118.871 113.86C119.205 114.233 119.591 114.513 120.031 114.7C120.471 114.887 120.958 114.98 121.491 114.98C121.918 114.98 122.238 114.92 122.451 114.8C122.678 114.68 122.791 114.5 122.791 114.26C122.791 113.993 122.671 113.787 122.431 113.64C122.205 113.493 121.905 113.373 121.531 113.28C121.158 113.173 120.765 113.06 120.351 112.94C119.951 112.807 119.565 112.64 119.191 112.44C118.818 112.227 118.511 111.94 118.271 111.58C118.045 111.207 117.931 110.727 117.931 110.14C117.931 109.527 118.078 108.993 118.371 108.54C118.678 108.087 119.111 107.733 119.671 107.48C120.231 107.227 120.891 107.1 121.651 107.1C122.451 107.1 123.171 107.24 123.811 107.52C124.465 107.8 125.005 108.22 125.431 108.78L123.851 110.36C123.558 110 123.225 109.74 122.851 109.58C122.491 109.42 122.098 109.34 121.671 109.34C121.285 109.34 120.985 109.4 120.771 109.52C120.571 109.64 120.471 109.807 120.471 110.02C120.471 110.26 120.585 110.447 120.811 110.58C121.051 110.713 121.358 110.833 121.731 110.94C122.105 111.033 122.491 111.147 122.891 111.28C123.305 111.4 123.691 111.573 124.051 111.8C124.425 112.027 124.725 112.327 124.951 112.7C125.191 113.073 125.311 113.553 125.311 114.14C125.311 115.087 124.971 115.84 124.291 116.4C123.611 116.947 122.685 117.22 121.511 117.22ZM133.578 117V111.46C133.578 110.887 133.398 110.42 133.038 110.06C132.678 109.7 132.211 109.52 131.638 109.52C131.265 109.52 130.931 109.6 130.638 109.76C130.345 109.92 130.111 110.147 129.938 110.44C129.778 110.733 129.698 111.073 129.698 111.46L128.678 110.94C128.678 110.18 128.838 109.52 129.158 108.96C129.478 108.387 129.918 107.94 130.478 107.62C131.051 107.3 131.705 107.14 132.438 107.14C133.171 107.14 133.818 107.3 134.378 107.62C134.951 107.94 135.398 108.38 135.718 108.94C136.038 109.5 136.198 110.147 136.198 110.88V117H133.578ZM127.078 117V102.54H129.698V117H127.078ZM142.848 117.2C141.875 117.2 140.995 116.98 140.208 116.54C139.435 116.087 138.815 115.48 138.348 114.72C137.895 113.947 137.668 113.087 137.668 112.14C137.668 111.193 137.895 110.347 138.348 109.6C138.802 108.84 139.422 108.24 140.208 107.8C140.995 107.347 141.868 107.12 142.828 107.12C143.815 107.12 144.695 107.347 145.468 107.8C146.255 108.24 146.875 108.84 147.328 109.6C147.782 110.347 148.008 111.193 148.008 112.14C148.008 113.087 147.782 113.947 147.328 114.72C146.875 115.48 146.255 116.087 145.468 116.54C144.695 116.98 143.822 117.2 142.848 117.2ZM142.828 114.76C143.322 114.76 143.755 114.653 144.128 114.44C144.515 114.213 144.808 113.907 145.008 113.52C145.222 113.12 145.328 112.667 145.328 112.16C145.328 111.653 145.222 111.207 145.008 110.82C144.795 110.433 144.502 110.133 144.128 109.92C143.755 109.693 143.322 109.58 142.828 109.58C142.348 109.58 141.922 109.693 141.548 109.92C141.175 110.133 140.882 110.433 140.668 110.82C140.455 111.207 140.348 111.653 140.348 112.16C140.348 112.667 140.455 113.12 140.668 113.52C140.882 113.907 141.175 114.213 141.548 114.44C141.922 114.653 142.348 114.76 142.828 114.76ZM155.055 117.2C154.362 117.2 153.735 117.06 153.175 116.78C152.615 116.487 152.168 116.093 151.835 115.6C151.502 115.107 151.322 114.54 151.295 113.9V110.48C151.322 109.84 151.502 109.273 151.835 108.78C152.182 108.273 152.628 107.873 153.175 107.58C153.735 107.287 154.362 107.14 155.055 107.14C155.948 107.14 156.748 107.36 157.455 107.8C158.162 108.24 158.715 108.84 159.115 109.6C159.528 110.36 159.735 111.22 159.735 112.18C159.735 113.127 159.528 113.98 159.115 114.74C158.715 115.5 158.162 116.1 157.455 116.54C156.748 116.98 155.948 117.2 155.055 117.2ZM154.595 114.78C155.075 114.78 155.502 114.673 155.875 114.46C156.248 114.233 156.535 113.927 156.735 113.54C156.948 113.14 157.055 112.68 157.055 112.16C157.055 111.653 156.948 111.207 156.735 110.82C156.535 110.42 156.248 110.113 155.875 109.9C155.502 109.673 155.075 109.56 154.595 109.56C154.128 109.56 153.708 109.673 153.335 109.9C152.962 110.113 152.668 110.42 152.455 110.82C152.255 111.207 152.155 111.653 152.155 112.16C152.155 112.68 152.255 113.14 152.455 113.54C152.668 113.927 152.955 114.233 153.315 114.46C153.688 114.673 154.115 114.78 154.595 114.78ZM149.695 121.04V107.34H152.315V109.88L151.875 112.22L152.295 114.56V121.04H149.695Z" fill="white"/>
<path d="M564.48 117.2C563.52 117.2 562.687 117.027 561.98 116.68C561.273 116.333 560.72 115.853 560.32 115.24C559.933 114.613 559.74 113.907 559.74 113.12C559.74 112.493 559.86 111.92 560.1 111.4C560.353 110.867 560.713 110.413 561.18 110.04C561.66 109.667 562.227 109.4 562.88 109.24L562.82 109.88C562.287 109.733 561.833 109.493 561.46 109.16C561.1 108.827 560.827 108.433 560.64 107.98C560.453 107.527 560.36 107.053 560.36 106.56C560.36 105.813 560.533 105.16 560.88 104.6C561.24 104.027 561.733 103.58 562.36 103.26C562.987 102.94 563.693 102.78 564.48 102.78C565.28 102.78 565.987 102.94 566.6 103.26C567.227 103.58 567.713 104.027 568.06 104.6C568.42 105.16 568.6 105.813 568.6 106.56C568.6 107.053 568.507 107.527 568.32 107.98C568.133 108.433 567.86 108.827 567.5 109.16C567.14 109.493 566.687 109.733 566.14 109.88L566.08 109.24C566.747 109.4 567.313 109.667 567.78 110.04C568.247 110.413 568.6 110.867 568.84 111.4C569.093 111.92 569.22 112.493 569.22 113.12C569.22 113.907 569.027 114.613 568.64 115.24C568.253 115.853 567.7 116.333 566.98 116.68C566.273 117.027 565.44 117.2 564.48 117.2ZM564.48 115.12C564.973 115.12 565.407 115.02 565.78 114.82C566.167 114.62 566.467 114.347 566.68 114C566.907 113.653 567.02 113.26 567.02 112.82C567.02 112.367 566.907 111.973 566.68 111.64C566.467 111.293 566.167 111.02 565.78 110.82C565.407 110.62 564.973 110.52 564.48 110.52C563.987 110.52 563.547 110.62 563.16 110.82C562.787 111.02 562.487 111.293 562.26 111.64C562.047 111.973 561.94 112.367 561.94 112.82C561.94 113.26 562.047 113.653 562.26 114C562.487 114.347 562.787 114.62 563.16 114.82C563.547 115.02 563.987 115.12 564.48 115.12ZM564.48 108.72C565.067 108.72 565.547 108.533 565.92 108.16C566.293 107.787 566.48 107.307 566.48 106.72C566.48 106.133 566.293 105.66 565.92 105.3C565.547 104.927 565.067 104.74 564.48 104.74C563.907 104.74 563.427 104.927 563.04 105.3C562.667 105.66 562.48 106.133 562.48 106.72C562.48 107.307 562.667 107.787 563.04 108.16C563.427 108.533 563.907 108.72 564.48 108.72ZM576.537 117.2C575.484 117.2 574.517 116.907 573.637 116.32C572.77 115.72 572.077 114.88 571.557 113.8C571.037 112.72 570.777 111.447 570.777 109.98C570.777 108.513 571.03 107.247 571.537 106.18C572.057 105.1 572.75 104.267 573.617 103.68C574.484 103.093 575.444 102.8 576.497 102.8C577.564 102.8 578.53 103.093 579.397 103.68C580.264 104.267 580.95 105.1 581.457 106.18C581.977 107.247 582.237 108.52 582.237 110C582.237 111.467 581.977 112.74 581.457 113.82C580.95 114.9 580.264 115.733 579.397 116.32C578.544 116.907 577.59 117.2 576.537 117.2ZM576.497 115.04C577.19 115.04 577.79 114.853 578.297 114.48C578.804 114.107 579.197 113.547 579.477 112.8C579.77 112.053 579.917 111.113 579.917 109.98C579.917 108.86 579.77 107.927 579.477 107.18C579.197 106.433 578.797 105.88 578.277 105.52C577.77 105.147 577.177 104.96 576.497 104.96C575.817 104.96 575.217 105.147 574.697 105.52C574.19 105.88 573.797 106.433 573.517 107.18C573.237 107.913 573.097 108.847 573.097 109.98C573.097 111.113 573.237 112.053 573.517 112.8C573.797 113.547 574.19 114.107 574.697 114.48C575.217 114.853 575.817 115.04 576.497 115.04ZM586.703 108.46C586.183 108.46 585.703 108.333 585.263 108.08C584.836 107.827 584.496 107.487 584.243 107.06C583.989 106.633 583.863 106.153 583.863 105.62C583.863 105.087 583.989 104.613 584.243 104.2C584.496 103.773 584.836 103.433 585.263 103.18C585.689 102.927 586.169 102.8 586.703 102.8C587.236 102.8 587.716 102.927 588.143 103.18C588.583 103.433 588.929 103.773 589.183 104.2C589.436 104.613 589.563 105.087 589.563 105.62C589.563 106.153 589.436 106.633 589.183 107.06C588.929 107.487 588.589 107.827 588.163 108.08C587.736 108.333 587.249 108.46 586.703 108.46ZM586.703 106.76C587.036 106.76 587.303 106.653 587.503 106.44C587.703 106.227 587.803 105.953 587.803 105.62C587.803 105.287 587.696 105.02 587.483 104.82C587.283 104.607 587.023 104.5 586.703 104.5C586.383 104.5 586.123 104.607 585.923 104.82C585.723 105.02 585.623 105.287 585.623 105.62C585.623 105.953 585.723 106.227 585.923 106.44C586.123 106.653 586.383 106.76 586.703 106.76ZM592.563 117.2C592.043 117.2 591.563 117.073 591.123 116.82C590.696 116.567 590.356 116.227 590.103 115.8C589.849 115.373 589.723 114.893 589.723 114.36C589.723 113.827 589.849 113.353 590.103 112.94C590.356 112.513 590.696 112.173 591.123 111.92C591.549 111.667 592.029 111.54 592.563 111.54C593.096 111.54 593.576 111.667 594.003 111.92C594.443 112.173 594.789 112.513 595.043 112.94C595.296 113.353 595.423 113.827 595.423 114.36C595.423 114.893 595.296 115.373 595.043 115.8C594.789 116.227 594.449 116.567 594.023 116.82C593.596 117.073 593.109 117.2 592.563 117.2ZM592.563 115.5C592.896 115.5 593.163 115.393 593.363 115.18C593.576 114.967 593.683 114.693 593.683 114.36C593.683 114.04 593.576 113.773 593.363 113.56C593.149 113.347 592.883 113.24 592.563 113.24C592.243 113.24 591.983 113.347 591.783 113.56C591.583 113.773 591.483 114.04 591.483 114.36C591.483 114.693 591.583 114.967 591.783 115.18C591.983 115.393 592.243 115.5 592.563 115.5ZM584.063 117L593.043 103H595.223L586.243 117H584.063Z" fill="white"/>
<rect y="36" width="606" height="18" rx="9" fill="white"/>
<rect y="36" width="541" height="18" rx="9" fill="#FE461C"/>
<path d="M0.4 20L6.06 5.94H8.28L13.92 20H11.02L6.66 8.46H7.66L3.24 20H0.4ZM3.4 17.38V15.1H10.96V17.38H3.4ZM19.0095 20.2C18.1162 20.2 17.3162 19.98 16.6095 19.54C15.9029 19.1 15.3429 18.5 14.9295 17.74C14.5295 16.98 14.3295 16.1267 14.3295 15.18C14.3295 14.22 14.5295 13.36 14.9295 12.6C15.3429 11.84 15.8962 11.24 16.5895 10.8C17.2962 10.36 18.1029 10.14 19.0095 10.14C19.7029 10.14 20.3229 10.28 20.8695 10.56C21.4295 10.84 21.8762 11.2333 22.2095 11.74C22.5562 12.2333 22.7429 12.7933 22.7695 13.42V16.86C22.7429 17.4867 22.5629 18.0533 22.2295 18.56C21.8962 19.0667 21.4495 19.4667 20.8895 19.76C20.3295 20.0533 19.7029 20.2 19.0095 20.2ZM19.4495 17.78C19.9429 17.78 20.3695 17.6733 20.7295 17.46C21.1029 17.2333 21.3895 16.9267 21.5895 16.54C21.8029 16.14 21.9095 15.68 21.9095 15.16C21.9095 14.6533 21.8029 14.2067 21.5895 13.82C21.3895 13.42 21.1029 13.1133 20.7295 12.9C20.3695 12.6733 19.9495 12.56 19.4695 12.56C18.9762 12.56 18.5429 12.6733 18.1695 12.9C17.8095 13.1267 17.5229 13.4333 17.3095 13.82C17.1095 14.2067 17.0095 14.6533 17.0095 15.16C17.0095 15.68 17.1095 16.14 17.3095 16.54C17.5229 16.9267 17.8162 17.2333 18.1895 17.46C18.5629 17.6733 18.9829 17.78 19.4495 17.78ZM24.3695 20H21.7695V17.4L22.1895 15.04L21.7495 12.72V5.54H24.3695V20ZM31.2273 20.2C30.254 20.2 29.374 19.98 28.5873 19.54C27.814 19.0867 27.194 18.48 26.7273 17.72C26.274 16.9467 26.0473 16.0867 26.0473 15.14C26.0473 14.1933 26.274 13.3467 26.7273 12.6C27.1807 11.84 27.8007 11.24 28.5873 10.8C29.374 10.3467 30.2473 10.12 31.2073 10.12C32.194 10.12 33.074 10.3467 33.8473 10.8C34.634 11.24 35.254 11.84 35.7073 12.6C36.1607 13.3467 36.3873 14.1933 36.3873 15.14C36.3873 16.0867 36.1607 16.9467 35.7073 17.72C35.254 18.48 34.634 19.0867 33.8473 19.54C33.074 19.98 32.2007 20.2 31.2273 20.2ZM31.2073 17.76C31.7007 17.76 32.134 17.6533 32.5073 17.44C32.894 17.2133 33.1873 16.9067 33.3873 16.52C33.6007 16.12 33.7073 15.6667 33.7073 15.16C33.7073 14.6533 33.6007 14.2067 33.3873 13.82C33.174 13.4333 32.8807 13.1333 32.5073 12.92C32.134 12.6933 31.7007 12.58 31.2073 12.58C30.7273 12.58 30.3007 12.6933 29.9273 12.92C29.554 13.1333 29.2607 13.4333 29.0473 13.82C28.834 14.2067 28.7273 14.6533 28.7273 15.16C28.7273 15.6667 28.834 16.12 29.0473 16.52C29.2607 16.9067 29.554 17.2133 29.9273 17.44C30.3007 17.6533 30.7273 17.76 31.2073 17.76ZM43.4341 20.2C42.7407 20.2 42.1141 20.0533 41.5541 19.76C40.9941 19.4667 40.5474 19.0667 40.2141 18.56C39.8807 18.0533 39.7007 17.4867 39.6741 16.86V13.42C39.7007 12.7933 39.8807 12.2333 40.2141 11.74C40.5607 11.2333 41.0141 10.84 41.5741 10.56C42.1341 10.28 42.7541 10.14 43.4341 10.14C44.3274 10.14 45.1274 10.36 45.8341 10.8C46.5407 11.24 47.0941 11.84 47.4941 12.6C47.9074 13.36 48.1141 14.22 48.1141 15.18C48.1141 16.1267 47.9074 16.98 47.4941 17.74C47.0941 18.5 46.5407 19.1 45.8341 19.54C45.1274 19.98 44.3274 20.2 43.4341 20.2ZM42.9941 17.78C43.4741 17.78 43.8941 17.6733 44.2541 17.46C44.6274 17.2333 44.9141 16.9267 45.1141 16.54C45.3274 16.14 45.4341 15.68 45.4341 15.16C45.4341 14.6533 45.3274 14.2067 45.1141 13.82C44.9141 13.42 44.6274 13.1133 44.2541 12.9C43.8807 12.6733 43.4541 12.56 42.9741 12.56C42.4941 12.56 42.0674 12.6733 41.6941 12.9C41.3341 13.1133 41.0474 13.42 40.8341 13.82C40.6341 14.2067 40.5341 14.6533 40.5341 15.16C40.5341 15.68 40.6341 16.14 40.8341 16.54C41.0474 16.9267 41.3407 17.2333 41.7141 17.46C42.0874 17.6733 42.5141 17.78 42.9941 17.78ZM38.0741 20V5.54H40.6941V12.72L40.2541 15.04L40.6741 17.4V20H38.0741ZM54.4519 20.2C53.4385 20.2 52.5385 19.9867 51.7519 19.56C50.9652 19.12 50.3385 18.52 49.8719 17.76C49.4185 17 49.1919 16.1333 49.1919 15.16C49.1919 14.2 49.4119 13.3467 49.8519 12.6C50.3052 11.84 50.9185 11.24 51.6919 10.8C52.4652 10.3467 53.3252 10.12 54.2719 10.12C55.2052 10.12 56.0252 10.3333 56.7319 10.76C57.4519 11.1733 58.0119 11.7467 58.4119 12.48C58.8252 13.2 59.0319 14.02 59.0319 14.94C59.0319 15.1133 59.0185 15.2933 58.9919 15.48C58.9785 15.6533 58.9452 15.8533 58.8919 16.08L50.7719 16.1V14.14L57.6719 14.12L56.6119 14.94C56.5852 14.3667 56.4785 13.8867 56.2919 13.5C56.1185 13.1133 55.8585 12.82 55.5119 12.62C55.1785 12.4067 54.7652 12.3 54.2719 12.3C53.7519 12.3 53.2985 12.42 52.9119 12.66C52.5252 12.8867 52.2252 13.2133 52.0119 13.64C51.8119 14.0533 51.7119 14.5467 51.7119 15.12C51.7119 15.7067 51.8185 16.22 52.0319 16.66C52.2585 17.0867 52.5785 17.42 52.9919 17.66C53.4052 17.8867 53.8852 18 54.4319 18C54.9252 18 55.3719 17.92 55.7719 17.76C56.1719 17.5867 56.5185 17.3333 56.8119 17L58.3519 18.54C57.8852 19.0867 57.3119 19.5 56.6319 19.78C55.9652 20.06 55.2385 20.2 54.4519 20.2ZM63.232 20L68.892 5.94H71.112L76.752 20H73.852L69.492 8.46H70.492L66.072 20H63.232ZM66.232 17.38V15.1H73.792V17.38H66.232ZM78.2889 20V10.34H80.9289V20H78.2889ZM79.6089 8.78C79.1822 8.78 78.8289 8.64 78.5489 8.36C78.2689 8.06667 78.1289 7.70667 78.1289 7.28C78.1289 6.86667 78.2689 6.51333 78.5489 6.22C78.8289 5.92667 79.1822 5.78 79.6089 5.78C80.0489 5.78 80.4022 5.92667 80.6689 6.22C80.9489 6.51333 81.0889 6.86667 81.0889 7.28C81.0889 7.70667 80.9489 8.06667 80.6689 8.36C80.4022 8.64 80.0489 8.78 79.6089 8.78ZM83.2498 20V5.54H85.8698V20H83.2498ZM88.1913 20V5.54H90.8113V20H88.1913ZM97.2527 20.2C96.3993 20.2 95.6393 20.02 94.9727 19.66C94.3193 19.3 93.806 18.8 93.4327 18.16C93.0593 17.52 92.8727 16.78 92.8727 15.94V10.34H95.5127V15.88C95.5127 16.28 95.5793 16.6267 95.7127 16.92C95.846 17.2 96.046 17.4133 96.3127 17.56C96.5793 17.7067 96.8927 17.78 97.2527 17.78C97.7993 17.78 98.226 17.6133 98.5327 17.28C98.8393 16.9467 98.9927 16.48 98.9927 15.88V10.34H101.613V15.94C101.613 16.7933 101.426 17.54 101.053 18.18C100.693 18.82 100.179 19.32 99.5127 19.68C98.8593 20.0267 98.106 20.2 97.2527 20.2ZM107.019 20.22C106.472 20.22 105.932 20.1467 105.399 20C104.879 19.8533 104.399 19.6533 103.959 19.4C103.519 19.1333 103.139 18.8133 102.819 18.44L104.379 16.86C104.712 17.2333 105.099 17.5133 105.539 17.7C105.979 17.8867 106.466 17.98 106.999 17.98C107.426 17.98 107.746 17.92 107.959 17.8C108.186 17.68 108.299 17.5 108.299 17.26C108.299 16.9933 108.179 16.7867 107.939 16.64C107.712 16.4933 107.412 16.3733 107.039 16.28C106.666 16.1733 106.272 16.06 105.859 15.94C105.459 15.8067 105.072 15.64 104.699 15.44C104.326 15.2267 104.019 14.94 103.779 14.58C103.552 14.2067 103.439 13.7267 103.439 13.14C103.439 12.5267 103.586 11.9933 103.879 11.54C104.186 11.0867 104.619 10.7333 105.179 10.48C105.739 10.2267 106.399 10.1 107.159 10.1C107.959 10.1 108.679 10.24 109.319 10.52C109.972 10.8 110.512 11.22 110.939 11.78L109.359 13.36C109.066 13 108.732 12.74 108.359 12.58C107.999 12.42 107.606 12.34 107.179 12.34C106.792 12.34 106.492 12.4 106.279 12.52C106.079 12.64 105.979 12.8067 105.979 13.02C105.979 13.26 106.092 13.4467 106.319 13.58C106.559 13.7133 106.866 13.8333 107.239 13.94C107.612 14.0333 107.999 14.1467 108.399 14.28C108.812 14.4 109.199 14.5733 109.559 14.8C109.932 15.0267 110.232 15.3267 110.459 15.7C110.699 16.0733 110.819 16.5533 110.819 17.14C110.819 18.0867 110.479 18.84 109.799 19.4C109.119 19.9467 108.192 20.22 107.019 20.22ZM114.006 20V6.32H116.626V20H114.006ZM111.746 12.64V10.34H118.886V12.64H111.746ZM120.359 20V10.34H122.979V20H120.359ZM122.979 14.66L121.959 13.98C122.079 12.7933 122.426 11.86 122.999 11.18C123.573 10.4867 124.399 10.14 125.479 10.14C125.946 10.14 126.366 10.22 126.739 10.38C127.113 10.5267 127.453 10.7733 127.759 11.12L126.119 13C125.973 12.84 125.793 12.72 125.579 12.64C125.379 12.56 125.146 12.52 124.879 12.52C124.319 12.52 123.859 12.7 123.499 13.06C123.153 13.4067 122.979 13.94 122.979 14.66ZM132.446 20.2C131.566 20.2 130.773 19.98 130.066 19.54C129.359 19.1 128.806 18.5 128.406 17.74C128.006 16.98 127.806 16.1267 127.806 15.18C127.806 14.22 128.006 13.36 128.406 12.6C128.806 11.84 129.359 11.24 130.066 10.8C130.773 10.36 131.566 10.14 132.446 10.14C133.139 10.14 133.759 10.28 134.306 10.56C134.853 10.84 135.286 11.2333 135.606 11.74C135.939 12.2333 136.119 12.7933 136.146 13.42V16.9C136.119 17.54 135.939 18.1067 135.606 18.6C135.286 19.0933 134.853 19.4867 134.306 19.78C133.759 20.06 133.139 20.2 132.446 20.2ZM132.926 17.78C133.659 17.78 134.253 17.54 134.706 17.06C135.159 16.5667 135.386 15.9333 135.386 15.16C135.386 14.6533 135.279 14.2067 135.066 13.82C134.866 13.42 134.579 13.1133 134.206 12.9C133.846 12.6733 133.419 12.56 132.926 12.56C132.446 12.56 132.019 12.6733 131.646 12.9C131.286 13.1133 130.999 13.42 130.786 13.82C130.586 14.2067 130.486 14.6533 130.486 15.16C130.486 15.68 130.586 16.14 130.786 16.54C130.999 16.9267 131.286 17.2333 131.646 17.46C132.019 17.6733 132.446 17.78 132.926 17.78ZM135.246 20V17.4L135.666 15.04L135.246 12.72V10.34H137.846V20H135.246ZM141.584 20V6.32H144.204V20H141.584ZM139.324 12.64V10.34H146.464V12.64H139.324ZM152.243 20.2C151.27 20.2 150.39 19.98 149.603 19.54C148.83 19.0867 148.21 18.48 147.743 17.72C147.29 16.9467 147.063 16.0867 147.063 15.14C147.063 14.1933 147.29 13.3467 147.743 12.6C148.196 11.84 148.816 11.24 149.603 10.8C150.39 10.3467 151.263 10.12 152.223 10.12C153.21 10.12 154.09 10.3467 154.863 10.8C155.65 11.24 156.27 11.84 156.723 12.6C157.176 13.3467 157.403 14.1933 157.403 15.14C157.403 16.0867 157.176 16.9467 156.723 17.72C156.27 18.48 155.65 19.0867 154.863 19.54C154.09 19.98 153.216 20.2 152.243 20.2ZM152.223 17.76C152.716 17.76 153.15 17.6533 153.523 17.44C153.91 17.2133 154.203 16.9067 154.403 16.52C154.616 16.12 154.723 15.6667 154.723 15.16C154.723 14.6533 154.616 14.2067 154.403 13.82C154.19 13.4333 153.896 13.1333 153.523 12.92C153.15 12.6933 152.716 12.58 152.223 12.58C151.743 12.58 151.316 12.6933 150.943 12.92C150.57 13.1333 150.276 13.4333 150.063 13.82C149.85 14.2067 149.743 14.6533 149.743 15.16C149.743 15.6667 149.85 16.12 150.063 16.52C150.276 16.9067 150.57 17.2133 150.943 17.44C151.316 17.6533 151.743 17.76 152.223 17.76ZM159.09 20V10.34H161.71V20H159.09ZM161.71 14.66L160.69 13.98C160.81 12.7933 161.156 11.86 161.73 11.18C162.303 10.4867 163.13 10.14 164.21 10.14C164.676 10.14 165.096 10.22 165.47 10.38C165.843 10.5267 166.183 10.7733 166.49 11.12L164.85 13C164.703 12.84 164.523 12.72 164.31 12.64C164.11 12.56 163.876 12.52 163.61 12.52C163.05 12.52 162.59 12.7 162.23 13.06C161.883 13.4067 161.71 13.94 161.71 14.66Z" fill="white"/>
<path d="M561.74 20L565.84 14.26L566.66 13.76C566.527 14.0533 566.353 14.3133 566.14 14.54C565.94 14.7667 565.673 14.94 565.34 15.06C565.007 15.18 564.58 15.24 564.06 15.24C563.26 15.24 562.527 15.0533 561.86 14.68C561.193 14.2933 560.66 13.76 560.26 13.08C559.86 12.4 559.66 11.6133 559.66 10.72C559.66 9.81333 559.88 8.98667 560.32 8.24C560.773 7.49333 561.373 6.9 562.12 6.46C562.867 6.02 563.7 5.8 564.62 5.8C565.553 5.8 566.393 6.02 567.14 6.46C567.887 6.88667 568.473 7.46667 568.9 8.2C569.34 8.92 569.56 9.73333 569.56 10.64C569.56 11.92 569.113 13.2133 568.22 14.52L564.4 20H561.74ZM564.62 13.44C565.127 13.44 565.58 13.32 565.98 13.08C566.38 12.84 566.693 12.5133 566.92 12.1C567.147 11.6867 567.26 11.2267 567.26 10.72C567.26 10.1867 567.147 9.71333 566.92 9.3C566.693 8.88667 566.38 8.56 565.98 8.32C565.58 8.08 565.127 7.96 564.62 7.96C564.113 7.96 563.66 8.08 563.26 8.32C562.86 8.56 562.54 8.88667 562.3 9.3C562.073 9.71333 561.96 10.1867 561.96 10.72C561.96 11.24 562.073 11.7067 562.3 12.12C562.54 12.52 562.86 12.84 563.26 13.08C563.673 13.32 564.127 13.44 564.62 13.44ZM576.81 20.2C575.757 20.2 574.79 19.9067 573.91 19.32C573.044 18.72 572.35 17.88 571.83 16.8C571.31 15.72 571.05 14.4467 571.05 12.98C571.05 11.5133 571.304 10.2467 571.81 9.18C572.33 8.1 573.024 7.26667 573.89 6.68C574.757 6.09333 575.717 5.8 576.77 5.8C577.837 5.8 578.804 6.09333 579.67 6.68C580.537 7.26667 581.224 8.1 581.73 9.18C582.25 10.2467 582.51 11.52 582.51 13C582.51 14.4667 582.25 15.74 581.73 16.82C581.224 17.9 580.537 18.7333 579.67 19.32C578.817 19.9067 577.864 20.2 576.81 20.2ZM576.77 18.04C577.464 18.04 578.064 17.8533 578.57 17.48C579.077 17.1067 579.47 16.5467 579.75 15.8C580.044 15.0533 580.19 14.1133 580.19 12.98C580.19 11.86 580.044 10.9267 579.75 10.18C579.47 9.43333 579.07 8.88 578.55 8.52C578.044 8.14667 577.45 7.96 576.77 7.96C576.09 7.96 575.49 8.14667 574.97 8.52C574.464 8.88 574.07 9.43333 573.79 10.18C573.51 10.9133 573.37 11.8467 573.37 12.98C573.37 14.1133 573.51 15.0533 573.79 15.8C574.07 16.5467 574.464 17.1067 574.97 17.48C575.49 17.8533 576.09 18.04 576.77 18.04ZM586.976 11.46C586.456 11.46 585.976 11.3333 585.536 11.08C585.109 10.8267 584.769 10.4867 584.516 10.06C584.263 9.63333 584.136 9.15333 584.136 8.62C584.136 8.08667 584.263 7.61333 584.516 7.2C584.769 6.77333 585.109 6.43333 585.536 6.18C585.963 5.92667 586.443 5.8 586.976 5.8C587.509 5.8 587.989 5.92667 588.416 6.18C588.856 6.43333 589.203 6.77333 589.456 7.2C589.709 7.61333 589.836 8.08667 589.836 8.62C589.836 9.15333 589.709 9.63333 589.456 10.06C589.203 10.4867 588.863 10.8267 588.436 11.08C588.009 11.3333 587.523 11.46 586.976 11.46ZM586.976 9.76C587.309 9.76 587.576 9.65333 587.776 9.44C587.976 9.22667 588.076 8.95333 588.076 8.62C588.076 8.28667 587.969 8.02 587.756 7.82C587.556 7.60667 587.296 7.5 586.976 7.5C586.656 7.5 586.396 7.60667 586.196 7.82C585.996 8.02 585.896 8.28667 585.896 8.62C585.896 8.95333 585.996 9.22667 586.196 9.44C586.396 9.65333 586.656 9.76 586.976 9.76ZM592.836 20.2C592.316 20.2 591.836 20.0733 591.396 19.82C590.969 19.5667 590.629 19.2267 590.376 18.8C590.123 18.3733 589.996 17.8933 589.996 17.36C589.996 16.8267 590.123 16.3533 590.376 15.94C590.629 15.5133 590.969 15.1733 591.396 14.92C591.823 14.6667 592.303 14.54 592.836 14.54C593.369 14.54 593.849 14.6667 594.276 14.92C594.716 15.1733 595.063 15.5133 595.316 15.94C595.569 16.3533 595.696 16.8267 595.696 17.36C595.696 17.8933 595.569 18.3733 595.316 18.8C595.063 19.2267 594.723 19.5667 594.296 19.82C593.869 20.0733 593.383 20.2 592.836 20.2ZM592.836 18.5C593.169 18.5 593.436 18.3933 593.636 18.18C593.849 17.9667 593.956 17.6933 593.956 17.36C593.956 17.04 593.849 16.7733 593.636 16.56C593.423 16.3467 593.156 16.24 592.836 16.24C592.516 16.24 592.256 16.3467 592.056 16.56C591.856 16.7733 591.756 17.04 591.756 17.36C591.756 17.6933 591.856 17.9667 592.056 18.18C592.256 18.3933 592.516 18.5 592.836 18.5ZM584.336 20L593.316 6H595.496L586.516 20H584.336Z" fill="white"/>
</svg>
