<svg width="265" height="17" viewBox="0 0 265 17" fill="none" xmlns="http://www.w3.org/2000/svg">
<path d="M189.968 14V13.032V12.52C189.968 11.9333 190.077 11.424 190.296 10.992C190.52 10.56 190.813 10.184 191.176 9.864C191.539 9.53867 191.936 9.25067 192.368 9C192.805 8.74933 193.24 8.50933 193.672 8.28C194.104 8.05067 194.501 7.81333 194.864 7.568C195.227 7.31733 195.517 7.03733 195.736 6.728C195.96 6.41333 196.072 6.04533 196.072 5.624C196.072 5.06933 195.877 4.61867 195.488 4.272C195.099 3.92533 194.571 3.752 193.904 3.752C193.195 3.752 192.619 3.952 192.176 4.352C191.733 4.752 191.477 5.304 191.408 6.008H189.728C189.744 5.32 189.912 4.69333 190.232 4.128C190.552 3.56267 191.024 3.112 191.648 2.776C192.272 2.44 193.045 2.272 193.968 2.272C194.768 2.272 195.459 2.41333 196.04 2.696C196.627 2.97333 197.08 3.36267 197.4 3.864C197.72 4.36533 197.88 4.94933 197.88 5.616C197.88 6.208 197.771 6.71733 197.552 7.144C197.333 7.57067 197.045 7.93867 196.688 8.248C196.336 8.55733 195.947 8.832 195.52 9.072C195.093 9.30667 194.667 9.53333 194.24 9.752C193.813 9.96533 193.421 10.192 193.064 10.432C192.707 10.6667 192.419 10.9333 192.2 11.232C191.981 11.5307 191.872 11.8907 191.872 12.312V12.512H197.92V14H189.968ZM199.583 5.856C199.583 5.08267 199.767 4.432 200.135 3.904C200.508 3.37067 201.004 2.96533 201.623 2.688C202.247 2.41067 202.938 2.272 203.695 2.272C204.511 2.272 205.234 2.38667 205.863 2.616C206.492 2.84533 206.986 3.184 207.343 3.632C207.706 4.08 207.887 4.632 207.887 5.288C207.887 5.85867 207.708 6.37333 207.351 6.832C206.999 7.28533 206.45 7.64 205.703 7.896C206.188 8.02933 206.618 8.22667 206.991 8.488C207.364 8.744 207.655 9.064 207.863 9.448C208.076 9.832 208.183 10.2773 208.183 10.784C208.183 11.3227 208.068 11.8027 207.839 12.224C207.61 12.6453 207.29 13.0027 206.879 13.296C206.468 13.5893 205.986 13.8107 205.431 13.96C204.876 14.1093 204.276 14.1813 203.631 14.176C202.799 14.1707 202.074 14.024 201.455 13.736C200.836 13.4427 200.354 13.0293 200.007 12.496C199.66 11.9627 199.476 11.3333 199.455 10.608H201.143C201.255 11.3067 201.538 11.8373 201.991 12.2C202.45 12.5573 203.012 12.736 203.679 12.736C204.223 12.736 204.692 12.6533 205.087 12.488C205.487 12.3173 205.796 12.0853 206.015 11.792C206.234 11.4933 206.343 11.1467 206.343 10.752C206.343 10.3253 206.223 9.96267 205.983 9.664C205.748 9.36533 205.423 9.13867 205.007 8.984C204.596 8.824 204.135 8.73867 203.623 8.728L202.559 8.704V7.28L203.551 7.248C204.036 7.23733 204.466 7.14667 204.839 6.976C205.218 6.8 205.514 6.57067 205.727 6.288C205.94 6.00533 206.047 5.69333 206.047 5.352C206.047 5.04267 205.951 4.76 205.759 4.504C205.572 4.248 205.3 4.04533 204.943 3.896C204.591 3.74133 204.167 3.664 203.671 3.664C203.271 3.664 202.89 3.73867 202.527 3.888C202.17 4.03733 201.874 4.27467 201.639 4.6C201.41 4.92 201.284 5.33867 201.263 5.856H199.583ZM217.562 14H215.786L213.298 10.008L211.81 11.552V14H210.098V2.112H211.81V9.672L215.466 5.728H217.385L214.394 8.92L217.562 14ZM226.087 7.528V8.832L218.999 8.84V7.536L226.087 7.528ZM223.207 11.72H221.903L221.895 4.632H223.199L223.207 11.72ZM238.378 5.728L235.37 14H233.922L230.906 5.728H232.49L234.586 11.832H234.698L236.794 5.728H238.378ZM241.671 5.728V14H240.023V5.728H241.671ZM241.703 2.44V4.128H239.983V2.44H241.703ZM245.425 10.264C245.425 10.76 245.505 11.2053 245.665 11.6C245.83 11.9893 246.078 12.2987 246.409 12.528C246.739 12.752 247.15 12.864 247.641 12.864C248.131 12.864 248.555 12.752 248.913 12.528C249.275 12.304 249.513 11.9707 249.625 11.528H251.209C251.113 12.0933 250.886 12.5733 250.529 12.968C250.177 13.3627 249.75 13.6613 249.249 13.864C248.747 14.0613 248.222 14.16 247.673 14.16C246.889 14.16 246.198 13.992 245.601 13.656C245.003 13.3147 244.537 12.8293 244.201 12.2C243.87 11.5707 243.705 10.8213 243.705 9.952C243.705 9.09333 243.857 8.336 244.161 7.68C244.465 7.01867 244.905 6.50133 245.481 6.128C246.057 5.75467 246.75 5.568 247.561 5.568C248.361 5.568 249.033 5.73867 249.577 6.08C250.126 6.42133 250.542 6.90133 250.825 7.52C251.107 8.13333 251.249 8.85867 251.249 9.696V10.264H245.425ZM245.425 9.152H249.617C249.617 8.72 249.542 8.328 249.393 7.976C249.243 7.61867 249.014 7.33867 248.705 7.136C248.401 6.928 248.017 6.824 247.553 6.824C247.078 6.824 246.683 6.93867 246.369 7.168C246.054 7.39733 245.817 7.69067 245.657 8.048C245.502 8.40533 245.425 8.77333 245.425 9.152ZM263.895 5.728L261.327 14H259.759L257.967 8.192L256.247 14H254.703L252.111 5.728H253.671L255.479 11.752H255.591L257.359 5.728H258.631L260.455 11.736H260.567L262.311 5.728H263.895Z" fill="white"/>
<path d="M178.96 8.10687C178.176 6.07858 176.815 4.32451 175.045 3.06145C173.275 1.79839 171.173 1.08172 169 1C166.827 1.08172 164.725 1.79839 162.955 3.06145C161.185 4.32451 159.824 6.07858 159.04 8.10687C158.987 8.25334 158.987 8.41374 159.04 8.56021C159.824 10.5885 161.185 12.3426 162.955 13.6056C164.725 14.8687 166.827 15.5854 169 15.6671C171.173 15.5854 173.275 14.8687 175.045 13.6056C176.815 12.3426 178.176 10.5885 178.96 8.56021C179.013 8.41374 179.013 8.25334 178.96 8.10687ZM169 14.3337C165.467 14.3337 161.733 11.7136 160.38 8.33354C161.733 4.95345 165.467 2.33337 169 2.33337C172.533 2.33337 176.267 4.95345 177.62 8.33354C176.267 11.7136 172.533 14.3337 169 14.3337Z" fill="#FE461C"/>
<path d="M169 4.33337C168.209 4.33337 167.435 4.56798 166.778 5.00752C166.12 5.44705 165.607 6.07179 165.304 6.80271C165.002 7.53364 164.922 8.33792 165.077 9.11387C165.231 9.88982 165.612 10.6026 166.171 11.162C166.731 11.7214 167.444 12.1024 168.22 12.2567C168.996 12.4111 169.8 12.3319 170.531 12.0291C171.262 11.7264 171.886 11.2136 172.326 10.5558C172.765 9.89802 173 9.12464 173 8.33349C173 7.27259 172.579 6.25515 171.828 5.50498C171.078 4.75481 170.061 4.33337 169 4.33337ZM169 11.0002C168.473 11.0002 167.957 10.8438 167.518 10.5508C167.08 10.2578 166.738 9.84129 166.536 9.35401C166.334 8.86672 166.282 8.33053 166.384 7.81323C166.487 7.29593 166.741 6.82077 167.114 6.44782C167.487 6.07487 167.962 5.82088 168.48 5.71799C168.997 5.61509 169.533 5.6679 170.02 5.86974C170.508 6.07158 170.924 6.41338 171.217 6.85193C171.51 7.29047 171.667 7.80606 171.667 8.33349C171.667 9.04075 171.386 9.71905 170.886 10.2192C170.386 10.7193 169.707 11.0002 169 11.0002Z" fill="#FE461C"/>
<path d="M120.968 14V13.032V12.52C120.968 11.9333 121.077 11.424 121.296 10.992C121.52 10.56 121.813 10.184 122.176 9.864C122.539 9.53867 122.936 9.25067 123.368 9C123.805 8.74933 124.24 8.50933 124.672 8.28C125.104 8.05067 125.501 7.81333 125.864 7.568C126.227 7.31733 126.517 7.03733 126.736 6.728C126.96 6.41333 127.072 6.04533 127.072 5.624C127.072 5.06933 126.877 4.61867 126.488 4.272C126.099 3.92533 125.571 3.752 124.904 3.752C124.195 3.752 123.619 3.952 123.176 4.352C122.733 4.752 122.477 5.304 122.408 6.008H120.728C120.744 5.32 120.912 4.69333 121.232 4.128C121.552 3.56267 122.024 3.112 122.648 2.776C123.272 2.44 124.045 2.272 124.968 2.272C125.768 2.272 126.459 2.41333 127.04 2.696C127.627 2.97333 128.08 3.36267 128.4 3.864C128.72 4.36533 128.88 4.94933 128.88 5.616C128.88 6.208 128.771 6.71733 128.552 7.144C128.333 7.57067 128.045 7.93867 127.688 8.248C127.336 8.55733 126.947 8.832 126.52 9.072C126.093 9.30667 125.667 9.53333 125.24 9.752C124.813 9.96533 124.421 10.192 124.064 10.432C123.707 10.6667 123.419 10.9333 123.2 11.232C122.981 11.5307 122.872 11.8907 122.872 12.312V12.512H128.92V14H120.968ZM131.591 2.432H138.639L138.583 3.88H133.007L132.735 7.36C133.13 7.04 133.546 6.81067 133.983 6.672C134.42 6.528 134.895 6.456 135.407 6.456C136.127 6.456 136.783 6.6 137.375 6.888C137.972 7.176 138.45 7.6 138.807 8.16C139.164 8.71467 139.343 9.4 139.343 10.216C139.343 11.0213 139.167 11.72 138.815 12.312C138.463 12.904 137.964 13.3627 137.319 13.688C136.679 14.0133 135.924 14.176 135.055 14.176C134.33 14.176 133.658 14.0533 133.039 13.808C132.42 13.5573 131.887 13.216 131.439 12.784C130.996 12.3467 130.668 11.8427 130.455 11.272L131.887 10.592C132.079 11.008 132.316 11.3813 132.599 11.712C132.882 12.0373 133.215 12.2933 133.599 12.48C133.983 12.6613 134.423 12.752 134.919 12.752C135.703 12.752 136.335 12.5307 136.815 12.088C137.295 11.64 137.535 11.0347 137.535 10.272C137.535 9.79733 137.423 9.38133 137.199 9.024C136.975 8.66667 136.674 8.38933 136.295 8.192C135.916 7.98933 135.492 7.888 135.023 7.888C134.73 7.888 134.455 7.91467 134.199 7.968C133.943 8.016 133.687 8.11467 133.431 8.264C133.18 8.408 132.914 8.624 132.631 8.912C132.588 8.93333 132.556 8.944 132.535 8.944C132.519 8.944 132.484 8.93067 132.431 8.904L131.063 8.408L131.591 2.432Z" fill="white"/>
<path d="M97.4072 2.4072C97.4559 1.75283 97.7501 1.14105 98.231 0.69459C98.7119 0.248131 99.3438 1.0528e-05 100 0H107.2C107.699 0 108.193 0.0982899 108.654 0.289258C109.115 0.480226 109.534 0.760132 109.887 1.11299C110.24 1.46586 110.52 1.88477 110.711 2.3458C110.902 2.80684 111 3.30098 111 3.8V8.6C111 9.25618 110.752 9.88809 110.305 10.369C109.859 10.8499 109.247 11.1441 108.593 11.1928C108.544 11.8472 108.25 12.4589 107.769 12.9054C107.288 13.3519 106.656 13.6 106 13.6H101.934L99 15.8C98.3408 16.2944 97.4 15.824 97.4 15V13.592C96.747 13.5416 96.1372 13.2467 95.6922 12.7662C95.2473 12.2856 95.0001 11.6549 95 11V5C95 4.34382 95.2481 3.71191 95.6946 3.23103C96.141 2.75014 96.7528 2.45586 97.4072 2.4072ZM98.6144 2.4H106C106.69 2.4 107.351 2.67393 107.838 3.16152C108.326 3.64912 108.6 4.31044 108.6 5V9.9856C108.933 9.93751 109.238 9.77097 109.458 9.51649C109.679 9.26201 109.8 8.93664 109.8 8.6V3.8C109.8 3.11044 109.526 2.44912 109.038 1.96152C108.551 1.47393 107.89 1.2 107.2 1.2H100C99.6634 1.20001 99.338 1.32132 99.0835 1.54171C98.829 1.7621 98.6625 2.06681 98.6144 2.4ZM97.6 12.4H98.6V14.6L101.534 12.4H106C106.371 12.4 106.727 12.2525 106.99 11.9899C107.253 11.7274 107.4 11.3713 107.4 11V5C107.4 4.6287 107.253 4.2726 106.99 4.01005C106.727 3.7475 106.371 3.6 106 3.6H97.6C97.2287 3.6 96.8726 3.7475 96.6101 4.01005C96.3475 4.2726 96.2 4.6287 96.2 5V11C96.2 11.7728 96.8272 12.4 97.6 12.4Z" fill="#FE461C"/>
<path d="M23.6 16L27.776 4.432H29.664L33.832 16H32.104L31.016 12.968H26.448L25.336 16H23.6ZM26.856 11.416H30.576L28.728 6.112L26.856 11.416ZM38.3948 16.16C37.3068 16.16 36.4508 15.7893 35.8268 15.048C35.2028 14.3013 34.8908 13.2267 34.8908 11.824C34.8908 10.9653 35.0161 10.2187 35.2668 9.584C35.5174 8.944 35.8908 8.448 36.3868 8.096C36.8881 7.744 37.5068 7.568 38.2428 7.568C38.6161 7.568 38.9468 7.61333 39.2348 7.704C39.5281 7.79467 39.7841 7.912 40.0028 8.056C40.2268 8.2 40.4108 8.35467 40.5548 8.52C40.7041 8.68533 40.8188 8.84 40.8988 8.984V4.112H42.6188V16H41.3388L41.1468 14.304C41.0881 14.4853 40.9974 14.6827 40.8748 14.896C40.7521 15.1093 40.5841 15.312 40.3708 15.504C40.1628 15.696 39.8961 15.8533 39.5708 15.976C39.2454 16.0987 38.8534 16.16 38.3948 16.16ZM38.7228 14.872C39.4908 14.872 40.0454 14.632 40.3868 14.152C40.7281 13.6667 40.8988 12.872 40.8988 11.768C40.8934 11.144 40.8161 10.616 40.6668 10.184C40.5174 9.752 40.2854 9.42667 39.9708 9.208C39.6614 8.984 39.2534 8.872 38.7468 8.872C38.1121 8.872 37.5948 9.10133 37.1948 9.56C36.7948 10.0133 36.5948 10.7493 36.5948 11.768C36.5948 12.7707 36.7761 13.5387 37.1388 14.072C37.5068 14.6053 38.0348 14.872 38.7228 14.872ZM45.035 16V7.728H46.699V8.92C46.9337 8.55733 47.2537 8.24267 47.659 7.976C48.0643 7.704 48.587 7.568 49.227 7.568C49.5257 7.568 49.827 7.61867 50.131 7.72C50.4403 7.82133 50.723 7.97333 50.979 8.176C51.2403 8.37333 51.4457 8.61867 51.595 8.912C51.8563 8.51733 52.2057 8.19467 52.643 7.944C53.0803 7.69333 53.571 7.568 54.115 7.568C54.4083 7.568 54.7123 7.616 55.027 7.712C55.3417 7.80267 55.6323 7.96 55.899 8.184C56.171 8.40267 56.3897 8.70667 56.555 9.096C56.7257 9.48533 56.811 9.97867 56.811 10.576V16H55.091V10.76C55.091 10.3067 55.0137 9.952 54.859 9.696C54.7097 9.44 54.5123 9.26133 54.267 9.16C54.027 9.05333 53.771 9 53.499 9C53.2537 9 52.9977 9.048 52.731 9.144C52.4643 9.24 52.2377 9.4 52.051 9.624C51.8643 9.848 51.771 10.152 51.771 10.536V16H50.059V10.392C50.059 10.088 49.9763 9.832 49.811 9.624C49.651 9.416 49.4483 9.26133 49.203 9.16C48.963 9.05333 48.723 9 48.483 9C48.2163 9 47.9497 9.05333 47.683 9.16C47.4163 9.26667 47.1923 9.43467 47.011 9.664C46.835 9.888 46.747 10.1787 46.747 10.536V16H45.035ZM60.8118 7.728V16H59.1638V7.728H60.8118ZM60.8438 4.44V6.128H59.1238V4.44H60.8438ZM63.3631 16V7.728H65.0351V8.92C65.1685 8.696 65.3471 8.48533 65.5711 8.288C65.8005 8.09067 66.0805 7.93067 66.4111 7.808C66.7471 7.68533 67.1338 7.624 67.5711 7.624C68.0885 7.624 68.5658 7.728 69.0031 7.936C69.4458 8.13867 69.8005 8.45867 70.0671 8.896C70.3338 9.328 70.4671 9.888 70.4671 10.576V16H68.7551V10.76C68.7551 10.168 68.5951 9.728 68.2751 9.44C67.9605 9.152 67.5525 9.008 67.0511 9.008C66.7151 9.008 66.3951 9.064 66.0911 9.176C65.7871 9.288 65.5418 9.45867 65.3551 9.688C65.1685 9.912 65.0751 10.1947 65.0751 10.536V16H63.3631Z" fill="white"/>
<path d="M9.78125 9.5C8.875 9.5 8.46875 10 7 10C5.5 10 5.09375 9.5 4.1875 9.5C1.875 9.5 0 11.4062 0 13.7188V14.5C0 15.3438 0.65625 16 1.5 16H12.5C13.3125 16 14 15.3438 14 14.5V13.7188C14 11.4062 12.0938 9.5 9.78125 9.5ZM12.5 14.5H1.5V13.7188C1.5 12.2188 2.6875 11 4.1875 11C4.65625 11 5.375 11.5 7 11.5C8.59375 11.5 9.3125 11 9.78125 11C11.2812 11 12.5 12.2188 12.5 13.7188V14.5ZM7 9C9.46875 9 11.5 7 11.5 4.5C11.5 2.03125 9.46875 0 7 0C4.5 0 2.5 2.03125 2.5 4.5C2.5 7 4.5 9 7 9ZM7 1.5C8.625 1.5 10 2.875 10 4.5C10 6.15625 8.625 7.5 7 7.5C5.34375 7.5 4 6.15625 4 4.5C4 2.875 5.34375 1.5 7 1.5Z" fill="#FE461C"/>
</svg>
