<svg width="1320" height="828" viewBox="0 0 1320 828" fill="none" xmlns="http://www.w3.org/2000/svg">
<rect width="424" height="260" rx="8" fill="#D9D9D9"/>
<rect x="448" width="424" height="544" rx="8" fill="#D9D9D9"/>
<path d="M486.232 509.28C486.232 509.557 486.216 509.851 486.184 510.16H479.176C479.229 511.024 479.523 511.701 480.056 512.192C480.6 512.672 481.256 512.912 482.024 512.912C482.653 512.912 483.176 512.768 483.592 512.48C484.019 512.181 484.317 511.787 484.488 511.296H486.056C485.821 512.139 485.352 512.827 484.648 513.36C483.944 513.883 483.069 514.144 482.024 514.144C481.192 514.144 480.445 513.957 479.784 513.584C479.133 513.211 478.621 512.683 478.248 512C477.875 511.307 477.688 510.507 477.688 509.6C477.688 508.693 477.869 507.899 478.232 507.216C478.595 506.533 479.101 506.011 479.752 505.648C480.413 505.275 481.171 505.088 482.024 505.088C482.856 505.088 483.592 505.269 484.232 505.632C484.872 505.995 485.363 506.496 485.704 507.136C486.056 507.765 486.232 508.48 486.232 509.28ZM484.728 508.976C484.728 508.421 484.605 507.947 484.36 507.552C484.115 507.147 483.779 506.843 483.352 506.64C482.936 506.427 482.472 506.32 481.96 506.32C481.224 506.32 480.595 506.555 480.072 507.024C479.56 507.493 479.267 508.144 479.192 508.976H484.728ZM492.73 514L490.65 510.736L488.65 514H487.13L489.962 509.648L487.13 505.232H488.778L490.858 508.48L492.842 505.232H494.362L491.546 509.568L494.378 514H492.73ZM496.562 503.808C496.285 503.808 496.05 503.712 495.858 503.52C495.666 503.328 495.57 503.093 495.57 502.816C495.57 502.539 495.666 502.304 495.858 502.112C496.05 501.92 496.285 501.824 496.562 501.824C496.829 501.824 497.053 501.92 497.234 502.112C497.426 502.304 497.522 502.539 497.522 502.816C497.522 503.093 497.426 503.328 497.234 503.52C497.053 503.712 496.829 503.808 496.562 503.808ZM497.266 505.232V514H495.81V505.232H497.266ZM502.852 514.144C502.18 514.144 501.577 514.032 501.044 513.808C500.51 513.573 500.089 513.253 499.78 512.848C499.47 512.432 499.3 511.957 499.268 511.424H500.772C500.814 511.861 501.017 512.219 501.38 512.496C501.753 512.773 502.238 512.912 502.836 512.912C503.39 512.912 503.828 512.789 504.148 512.544C504.468 512.299 504.628 511.989 504.628 511.616C504.628 511.232 504.457 510.949 504.116 510.768C503.774 510.576 503.246 510.389 502.532 510.208C501.881 510.037 501.348 509.867 500.932 509.696C500.526 509.515 500.174 509.253 499.876 508.912C499.588 508.56 499.444 508.101 499.444 507.536C499.444 507.088 499.577 506.677 499.844 506.304C500.11 505.931 500.489 505.637 500.98 505.424C501.47 505.2 502.03 505.088 502.66 505.088C503.63 505.088 504.414 505.333 505.012 505.824C505.609 506.315 505.929 506.987 505.972 507.84H504.516C504.484 507.381 504.297 507.013 503.956 506.736C503.625 506.459 503.177 506.32 502.612 506.32C502.089 506.32 501.673 506.432 501.364 506.656C501.054 506.88 500.9 507.173 500.9 507.536C500.9 507.824 500.99 508.064 501.172 508.256C501.364 508.437 501.598 508.587 501.876 508.704C502.164 508.811 502.558 508.933 503.06 509.072C503.689 509.243 504.201 509.413 504.596 509.584C504.99 509.744 505.326 509.989 505.604 510.32C505.892 510.651 506.041 511.083 506.052 511.616C506.052 512.096 505.918 512.528 505.652 512.912C505.385 513.296 505.006 513.6 504.516 513.824C504.036 514.037 503.481 514.144 502.852 514.144ZM509.883 506.432V511.6C509.883 512.027 509.974 512.331 510.155 512.512C510.336 512.683 510.651 512.768 511.099 512.768H512.171V514H510.859C510.048 514 509.44 513.813 509.035 513.44C508.63 513.067 508.427 512.453 508.427 511.6V506.432H507.291V505.232H508.427V503.024H509.883V505.232H512.171V506.432H509.883ZM514.687 503.808C514.41 503.808 514.175 503.712 513.983 503.52C513.791 503.328 513.695 503.093 513.695 502.816C513.695 502.539 513.791 502.304 513.983 502.112C514.175 501.92 514.41 501.824 514.687 501.824C514.954 501.824 515.178 501.92 515.359 502.112C515.551 502.304 515.647 502.539 515.647 502.816C515.647 503.093 515.551 503.328 515.359 503.52C515.178 503.712 514.954 503.808 514.687 503.808ZM515.391 505.232V514H513.935V505.232H515.391ZM522.145 505.072C523.211 505.072 524.075 505.397 524.737 506.048C525.398 506.688 525.729 507.616 525.729 508.832V514H524.289V509.04C524.289 508.165 524.07 507.499 523.633 507.04C523.195 506.571 522.598 506.336 521.841 506.336C521.073 506.336 520.459 506.576 520.001 507.056C519.553 507.536 519.329 508.235 519.329 509.152V514H517.873V505.232H519.329V506.48C519.617 506.032 520.006 505.685 520.497 505.44C520.998 505.195 521.547 505.072 522.145 505.072ZM531.723 505.088C532.48 505.088 533.142 505.253 533.707 505.584C534.283 505.915 534.71 506.331 534.987 506.832V505.232H536.459V514.192C536.459 514.992 536.288 515.701 535.947 516.32C535.606 516.949 535.115 517.44 534.475 517.792C533.846 518.144 533.11 518.32 532.267 518.32C531.115 518.32 530.155 518.048 529.387 517.504C528.619 516.96 528.166 516.219 528.027 515.28H529.467C529.627 515.813 529.958 516.24 530.459 516.56C530.96 516.891 531.563 517.056 532.267 517.056C533.067 517.056 533.718 516.805 534.219 516.304C534.731 515.803 534.987 515.099 534.987 514.192V512.352C534.699 512.864 534.272 513.291 533.707 513.632C533.142 513.973 532.48 514.144 531.723 514.144C530.944 514.144 530.235 513.952 529.595 513.568C528.966 513.184 528.47 512.645 528.107 511.952C527.744 511.259 527.563 510.469 527.563 509.584C527.563 508.688 527.744 507.904 528.107 507.232C528.47 506.549 528.966 506.021 529.595 505.648C530.235 505.275 530.944 505.088 531.723 505.088ZM534.987 509.6C534.987 508.939 534.854 508.363 534.587 507.872C534.32 507.381 533.958 507.008 533.499 506.752C533.051 506.485 532.555 506.352 532.011 506.352C531.467 506.352 530.971 506.48 530.523 506.736C530.075 506.992 529.718 507.365 529.451 507.856C529.184 508.347 529.051 508.923 529.051 509.584C529.051 510.256 529.184 510.843 529.451 511.344C529.718 511.835 530.075 512.213 530.523 512.48C530.971 512.736 531.467 512.864 532.011 512.864C532.555 512.864 533.051 512.736 533.499 512.48C533.958 512.213 534.32 511.835 534.587 511.344C534.854 510.843 534.987 510.261 534.987 509.6ZM546.289 514.144C545.617 514.144 545.014 514.032 544.481 513.808C543.948 513.573 543.526 513.253 543.217 512.848C542.908 512.432 542.737 511.957 542.705 511.424H544.209C544.252 511.861 544.454 512.219 544.817 512.496C545.19 512.773 545.676 512.912 546.273 512.912C546.828 512.912 547.265 512.789 547.585 512.544C547.905 512.299 548.065 511.989 548.065 511.616C548.065 511.232 547.894 510.949 547.553 510.768C547.212 510.576 546.684 510.389 545.969 510.208C545.318 510.037 544.785 509.867 544.369 509.696C543.964 509.515 543.612 509.253 543.313 508.912C543.025 508.56 542.881 508.101 542.881 507.536C542.881 507.088 543.014 506.677 543.281 506.304C543.548 505.931 543.926 505.637 544.417 505.424C544.908 505.2 545.468 505.088 546.097 505.088C547.068 505.088 547.852 505.333 548.449 505.824C549.046 506.315 549.366 506.987 549.409 507.84H547.953C547.921 507.381 547.734 507.013 547.393 506.736C547.062 506.459 546.614 506.32 546.049 506.32C545.526 506.32 545.11 506.432 544.801 506.656C544.492 506.88 544.337 507.173 544.337 507.536C544.337 507.824 544.428 508.064 544.609 508.256C544.801 508.437 545.036 508.587 545.313 508.704C545.601 508.811 545.996 508.933 546.497 509.072C547.126 509.243 547.638 509.413 548.033 509.584C548.428 509.744 548.764 509.989 549.041 510.32C549.329 510.651 549.478 511.083 549.489 511.616C549.489 512.096 549.356 512.528 549.089 512.912C548.822 513.296 548.444 513.6 547.953 513.824C547.473 514.037 546.918 514.144 546.289 514.144ZM555.369 514.144C554.547 514.144 553.801 513.957 553.129 513.584C552.467 513.211 551.945 512.683 551.561 512C551.187 511.307 551.001 510.507 551.001 509.6C551.001 508.704 551.193 507.915 551.577 507.232C551.971 506.539 552.505 506.011 553.177 505.648C553.849 505.275 554.601 505.088 555.433 505.088C556.265 505.088 557.017 505.275 557.689 505.648C558.361 506.011 558.889 506.533 559.273 507.216C559.667 507.899 559.865 508.693 559.865 509.6C559.865 510.507 559.662 511.307 559.257 512C558.862 512.683 558.323 513.211 557.641 513.584C556.958 513.957 556.201 514.144 555.369 514.144ZM555.369 512.864C555.891 512.864 556.382 512.741 556.841 512.496C557.299 512.251 557.667 511.883 557.945 511.392C558.233 510.901 558.377 510.304 558.377 509.6C558.377 508.896 558.238 508.299 557.961 507.808C557.683 507.317 557.321 506.955 556.873 506.72C556.425 506.475 555.939 506.352 555.417 506.352C554.883 506.352 554.393 506.475 553.945 506.72C553.507 506.955 553.155 507.317 552.889 507.808C552.622 508.299 552.489 508.896 552.489 509.6C552.489 510.315 552.617 510.917 552.873 511.408C553.139 511.899 553.491 512.267 553.929 512.512C554.366 512.747 554.846 512.864 555.369 512.864ZM563.235 502.16V514H561.779V502.16H563.235ZM573.492 505.232V514H572.036V512.704C571.759 513.152 571.37 513.504 570.868 513.76C570.378 514.005 569.834 514.128 569.236 514.128C568.554 514.128 567.94 513.989 567.396 513.712C566.852 513.424 566.42 512.997 566.1 512.432C565.791 511.867 565.636 511.179 565.636 510.368V505.232H567.076V510.176C567.076 511.04 567.295 511.707 567.732 512.176C568.17 512.635 568.767 512.864 569.524 512.864C570.303 512.864 570.916 512.624 571.364 512.144C571.812 511.664 572.036 510.965 572.036 510.048V505.232H573.492ZM577.727 506.432V511.6C577.727 512.027 577.817 512.331 577.999 512.512C578.18 512.683 578.495 512.768 578.943 512.768H580.015V514H578.703C577.892 514 577.284 513.813 576.879 513.44C576.473 513.067 576.271 512.453 576.271 511.6V506.432H575.135V505.232H576.271V503.024H577.727V505.232H580.015V506.432H577.727ZM582.531 503.808C582.254 503.808 582.019 503.712 581.827 503.52C581.635 503.328 581.539 503.093 581.539 502.816C581.539 502.539 581.635 502.304 581.827 502.112C582.019 501.92 582.254 501.824 582.531 501.824C582.798 501.824 583.022 501.92 583.203 502.112C583.395 502.304 583.491 502.539 583.491 502.816C583.491 503.093 583.395 503.328 583.203 503.52C583.022 503.712 582.798 503.808 582.531 503.808ZM583.235 505.232V514H581.779V505.232H583.235ZM589.54 514.144C588.719 514.144 587.972 513.957 587.3 513.584C586.639 513.211 586.116 512.683 585.732 512C585.359 511.307 585.172 510.507 585.172 509.6C585.172 508.704 585.364 507.915 585.748 507.232C586.143 506.539 586.676 506.011 587.348 505.648C588.02 505.275 588.772 505.088 589.604 505.088C590.436 505.088 591.188 505.275 591.86 505.648C592.532 506.011 593.06 506.533 593.444 507.216C593.839 507.899 594.036 508.693 594.036 509.6C594.036 510.507 593.834 511.307 593.428 512C593.034 512.683 592.495 513.211 591.812 513.584C591.13 513.957 590.372 514.144 589.54 514.144ZM589.54 512.864C590.063 512.864 590.554 512.741 591.012 512.496C591.471 512.251 591.839 511.883 592.116 511.392C592.404 510.901 592.548 510.304 592.548 509.6C592.548 508.896 592.41 508.299 592.132 507.808C591.855 507.317 591.492 506.955 591.044 506.72C590.596 506.475 590.111 506.352 589.588 506.352C589.055 506.352 588.564 506.475 588.116 506.72C587.679 506.955 587.327 507.317 587.06 507.808C586.794 508.299 586.66 508.896 586.66 509.6C586.66 510.315 586.788 510.917 587.044 511.408C587.311 511.899 587.663 512.267 588.1 512.512C588.538 512.747 589.018 512.864 589.54 512.864ZM600.223 505.072C601.289 505.072 602.153 505.397 602.815 506.048C603.476 506.688 603.807 507.616 603.807 508.832V514H602.367V509.04C602.367 508.165 602.148 507.499 601.711 507.04C601.273 506.571 600.676 506.336 599.919 506.336C599.151 506.336 598.537 506.576 598.079 507.056C597.631 507.536 597.407 508.235 597.407 509.152V514H595.951V505.232H597.407V506.48C597.695 506.032 598.084 505.685 598.575 505.44C599.076 505.195 599.625 505.072 600.223 505.072ZM609.289 514.144C608.617 514.144 608.014 514.032 607.481 513.808C606.948 513.573 606.526 513.253 606.217 512.848C605.908 512.432 605.737 511.957 605.705 511.424H607.209C607.252 511.861 607.454 512.219 607.817 512.496C608.19 512.773 608.676 512.912 609.273 512.912C609.828 512.912 610.265 512.789 610.585 512.544C610.905 512.299 611.065 511.989 611.065 511.616C611.065 511.232 610.894 510.949 610.553 510.768C610.212 510.576 609.684 510.389 608.969 510.208C608.318 510.037 607.785 509.867 607.369 509.696C606.964 509.515 606.612 509.253 606.313 508.912C606.025 508.56 605.881 508.101 605.881 507.536C605.881 507.088 606.014 506.677 606.281 506.304C606.548 505.931 606.926 505.637 607.417 505.424C607.908 505.2 608.468 505.088 609.097 505.088C610.068 505.088 610.852 505.333 611.449 505.824C612.046 506.315 612.366 506.987 612.409 507.84H610.953C610.921 507.381 610.734 507.013 610.393 506.736C610.062 506.459 609.614 506.32 609.049 506.32C608.526 506.32 608.11 506.432 607.801 506.656C607.492 506.88 607.337 507.173 607.337 507.536C607.337 507.824 607.428 508.064 607.609 508.256C607.801 508.437 608.036 508.587 608.313 508.704C608.601 508.811 608.996 508.933 609.497 509.072C610.126 509.243 610.638 509.413 611.033 509.584C611.428 509.744 611.764 509.989 612.041 510.32C612.329 510.651 612.478 511.083 612.489 511.616C612.489 512.096 612.356 512.528 612.089 512.912C611.822 513.296 611.444 513.6 610.953 513.824C610.473 514.037 609.918 514.144 609.289 514.144ZM622.634 514.144C621.813 514.144 621.066 513.957 620.394 513.584C619.733 513.211 619.21 512.683 618.826 512C618.453 511.307 618.266 510.507 618.266 509.6C618.266 508.704 618.458 507.915 618.842 507.232C619.237 506.539 619.77 506.011 620.442 505.648C621.114 505.275 621.866 505.088 622.698 505.088C623.53 505.088 624.282 505.275 624.954 505.648C625.626 506.011 626.154 506.533 626.538 507.216C626.933 507.899 627.13 508.693 627.13 509.6C627.13 510.507 626.927 511.307 626.522 512C626.127 512.683 625.589 513.211 624.906 513.584C624.223 513.957 623.466 514.144 622.634 514.144ZM622.634 512.864C623.157 512.864 623.647 512.741 624.106 512.496C624.565 512.251 624.933 511.883 625.21 511.392C625.498 510.901 625.642 510.304 625.642 509.6C625.642 508.896 625.503 508.299 625.226 507.808C624.949 507.317 624.586 506.955 624.138 506.72C623.69 506.475 623.205 506.352 622.682 506.352C622.149 506.352 621.658 506.475 621.21 506.72C620.773 506.955 620.421 507.317 620.154 507.808C619.887 508.299 619.754 508.896 619.754 509.6C619.754 510.315 619.882 510.917 620.138 511.408C620.405 511.899 620.757 512.267 621.194 512.512C621.631 512.747 622.111 512.864 622.634 512.864ZM632.613 506.432H630.773V514H629.317V506.432H628.181V505.232H629.317V504.608C629.317 503.627 629.567 502.912 630.069 502.464C630.581 502.005 631.397 501.776 632.516 501.776V502.992C631.877 502.992 631.423 503.12 631.157 503.376C630.901 503.621 630.773 504.032 630.773 504.608V505.232H632.613V506.432ZM637.878 506.432H636.038V514H634.582V506.432H633.446V505.232H634.582V504.608C634.582 503.627 634.833 502.912 635.334 502.464C635.846 502.005 636.662 501.776 637.782 501.776V502.992C637.142 502.992 636.689 503.12 636.422 503.376C636.166 503.621 636.038 504.032 636.038 504.608V505.232H637.878V506.432ZM647.576 509.28C647.576 509.557 647.56 509.851 647.528 510.16H640.52C640.573 511.024 640.866 511.701 641.4 512.192C641.944 512.672 642.6 512.912 643.368 512.912C643.997 512.912 644.52 512.768 644.936 512.48C645.362 512.181 645.661 511.787 645.832 511.296H647.4C647.165 512.139 646.696 512.827 645.992 513.36C645.288 513.883 644.413 514.144 643.368 514.144C642.536 514.144 641.789 513.957 641.128 513.584C640.477 513.211 639.965 512.683 639.592 512C639.218 511.307 639.032 510.507 639.032 509.6C639.032 508.693 639.213 507.899 639.576 507.216C639.938 506.533 640.445 506.011 641.096 505.648C641.757 505.275 642.514 505.088 643.368 505.088C644.2 505.088 644.936 505.269 645.576 505.632C646.216 505.995 646.706 506.496 647.048 507.136C647.4 507.765 647.576 508.48 647.576 509.28ZM646.072 508.976C646.072 508.421 645.949 507.947 645.704 507.552C645.458 507.147 645.122 506.843 644.696 506.64C644.28 506.427 643.816 506.32 643.304 506.32C642.568 506.32 641.938 506.555 641.416 507.024C640.904 507.493 640.61 508.144 640.536 508.976H646.072ZM650.954 506.656C651.21 506.155 651.572 505.765 652.042 505.488C652.522 505.211 653.103 505.072 653.786 505.072V506.576H653.402C651.77 506.576 650.954 507.461 650.954 509.232V514H649.498V505.232H650.954V506.656ZM661.508 506.432V511.6C661.508 512.027 661.599 512.331 661.78 512.512C661.961 512.683 662.276 512.768 662.724 512.768H663.796V514H662.484C661.673 514 661.065 513.813 660.66 513.44C660.255 513.067 660.052 512.453 660.052 511.6V506.432H658.916V505.232H660.052V503.024H661.508V505.232H663.796V506.432H661.508ZM669.384 514.144C668.563 514.144 667.816 513.957 667.144 513.584C666.483 513.211 665.96 512.683 665.576 512C665.203 511.307 665.016 510.507 665.016 509.6C665.016 508.704 665.208 507.915 665.592 507.232C665.987 506.539 666.52 506.011 667.192 505.648C667.864 505.275 668.616 505.088 669.448 505.088C670.28 505.088 671.032 505.275 671.704 505.648C672.376 506.011 672.904 506.533 673.288 507.216C673.683 507.899 673.88 508.693 673.88 509.6C673.88 510.507 673.677 511.307 673.272 512C672.877 512.683 672.339 513.211 671.656 513.584C670.973 513.957 670.216 514.144 669.384 514.144ZM669.384 512.864C669.907 512.864 670.397 512.741 670.856 512.496C671.315 512.251 671.683 511.883 671.96 511.392C672.248 510.901 672.392 510.304 672.392 509.6C672.392 508.896 672.253 508.299 671.976 507.808C671.699 507.317 671.336 506.955 670.888 506.72C670.44 506.475 669.955 506.352 669.432 506.352C668.899 506.352 668.408 506.475 667.96 506.72C667.523 506.955 667.171 507.317 666.904 507.808C666.637 508.299 666.504 508.896 666.504 509.6C666.504 510.315 666.632 510.917 666.888 511.408C667.155 511.899 667.507 512.267 667.944 512.512C668.381 512.747 668.861 512.864 669.384 512.864ZM683.164 514.144C682.492 514.144 681.889 514.032 681.356 513.808C680.823 513.573 680.401 513.253 680.092 512.848C679.783 512.432 679.612 511.957 679.58 511.424H681.084C681.127 511.861 681.329 512.219 681.692 512.496C682.065 512.773 682.551 512.912 683.148 512.912C683.703 512.912 684.14 512.789 684.46 512.544C684.78 512.299 684.94 511.989 684.94 511.616C684.94 511.232 684.769 510.949 684.428 510.768C684.087 510.576 683.559 510.389 682.844 510.208C682.193 510.037 681.66 509.867 681.244 509.696C680.839 509.515 680.487 509.253 680.188 508.912C679.9 508.56 679.756 508.101 679.756 507.536C679.756 507.088 679.889 506.677 680.156 506.304C680.423 505.931 680.801 505.637 681.292 505.424C681.783 505.2 682.343 505.088 682.972 505.088C683.943 505.088 684.727 505.333 685.324 505.824C685.921 506.315 686.241 506.987 686.284 507.84H684.828C684.796 507.381 684.609 507.013 684.268 506.736C683.937 506.459 683.489 506.32 682.924 506.32C682.401 506.32 681.985 506.432 681.676 506.656C681.367 506.88 681.212 507.173 681.212 507.536C681.212 507.824 681.303 508.064 681.484 508.256C681.676 508.437 681.911 508.587 682.188 508.704C682.476 508.811 682.871 508.933 683.372 509.072C684.001 509.243 684.513 509.413 684.908 509.584C685.303 509.744 685.639 509.989 685.916 510.32C686.204 510.651 686.353 511.083 686.364 511.616C686.364 512.096 686.231 512.528 685.964 512.912C685.697 513.296 685.319 513.6 684.828 513.824C684.348 514.037 683.793 514.144 683.164 514.144ZM692.244 514.144C691.422 514.144 690.676 513.957 690.004 513.584C689.342 513.211 688.82 512.683 688.436 512C688.062 511.307 687.876 510.507 687.876 509.6C687.876 508.704 688.068 507.915 688.452 507.232C688.846 506.539 689.38 506.011 690.052 505.648C690.724 505.275 691.476 505.088 692.308 505.088C693.14 505.088 693.892 505.275 694.564 505.648C695.236 506.011 695.764 506.533 696.148 507.216C696.542 507.899 696.74 508.693 696.74 509.6C696.74 510.507 696.537 511.307 696.132 512C695.737 512.683 695.198 513.211 694.516 513.584C693.833 513.957 693.076 514.144 692.244 514.144ZM692.244 512.864C692.766 512.864 693.257 512.741 693.716 512.496C694.174 512.251 694.542 511.883 694.82 511.392C695.108 510.901 695.252 510.304 695.252 509.6C695.252 508.896 695.113 508.299 694.836 507.808C694.558 507.317 694.196 506.955 693.748 506.72C693.3 506.475 692.814 506.352 692.292 506.352C691.758 506.352 691.268 506.475 690.82 506.72C690.382 506.955 690.03 507.317 689.764 507.808C689.497 508.299 689.364 508.896 689.364 509.6C689.364 510.315 689.492 510.917 689.748 511.408C690.014 511.899 690.366 512.267 690.804 512.512C691.241 512.747 691.721 512.864 692.244 512.864ZM700.11 502.16V514H698.654V502.16H700.11ZM705.855 512.656L708.575 505.232H710.127L706.687 514H704.991L701.551 505.232H703.119L705.855 512.656ZM719.56 509.28C719.56 509.557 719.544 509.851 719.512 510.16H712.504C712.557 511.024 712.851 511.701 713.384 512.192C713.928 512.672 714.584 512.912 715.352 512.912C715.981 512.912 716.504 512.768 716.92 512.48C717.347 512.181 717.645 511.787 717.816 511.296H719.384C719.149 512.139 718.68 512.827 717.976 513.36C717.272 513.883 716.397 514.144 715.352 514.144C714.52 514.144 713.773 513.957 713.112 513.584C712.461 513.211 711.949 512.683 711.576 512C711.203 511.307 711.016 510.507 711.016 509.6C711.016 508.693 711.197 507.899 711.56 507.216C711.923 506.533 712.429 506.011 713.08 505.648C713.741 505.275 714.499 505.088 715.352 505.088C716.184 505.088 716.92 505.269 717.56 505.632C718.2 505.995 718.691 506.496 719.032 507.136C719.384 507.765 719.56 508.48 719.56 509.28ZM718.056 508.976C718.056 508.421 717.933 507.947 717.688 507.552C717.443 507.147 717.107 506.843 716.68 506.64C716.264 506.427 715.8 506.32 715.288 506.32C714.552 506.32 713.923 506.555 713.4 507.024C712.888 507.493 712.595 508.144 712.52 508.976H718.056ZM726.212 514.096C725.934 514.096 725.7 514 725.508 513.808C725.316 513.616 725.22 513.381 725.22 513.104C725.22 512.827 725.316 512.592 725.508 512.4C725.7 512.208 725.934 512.112 726.212 512.112C726.478 512.112 726.702 512.208 726.884 512.4C727.076 512.592 727.172 512.827 727.172 513.104C727.172 513.381 727.076 513.616 726.884 513.808C726.702 514 726.478 514.096 726.212 514.096ZM729.571 514.096C729.294 514.096 729.059 514 728.867 513.808C728.675 513.616 728.579 513.381 728.579 513.104C728.579 512.827 728.675 512.592 728.867 512.4C729.059 512.208 729.294 512.112 729.571 512.112C729.838 512.112 730.062 512.208 730.243 512.4C730.435 512.592 730.531 512.827 730.531 513.104C730.531 513.381 730.435 513.616 730.243 513.808C730.062 514 729.838 514.096 729.571 514.096ZM732.93 514.096C732.653 514.096 732.418 514 732.226 513.808C732.034 513.616 731.938 513.381 731.938 513.104C731.938 512.827 732.034 512.592 732.226 512.4C732.418 512.208 732.653 512.112 732.93 512.112C733.197 512.112 733.421 512.208 733.602 512.4C733.794 512.592 733.89 512.827 733.89 513.104C733.89 513.381 733.794 513.616 733.602 513.808C733.421 514 733.197 514.096 732.93 514.096Z" fill="white"/>
<path d="M494.688 485L494.664 473.864L489.144 483.08H487.752L482.232 474.008V485H479.256V468.2H481.824L488.496 479.336L495.048 468.2H497.616L497.64 485H494.688ZM507.65 485.168C506.354 485.168 505.186 484.888 504.146 484.328C503.106 483.768 502.29 482.992 501.698 482C501.122 480.992 500.834 479.856 500.834 478.592C500.834 477.328 501.122 476.2 501.698 475.208C502.29 474.216 503.106 473.44 504.146 472.88C505.186 472.32 506.354 472.04 507.65 472.04C508.962 472.04 510.138 472.32 511.178 472.88C512.218 473.44 513.026 474.216 513.602 475.208C514.194 476.2 514.49 477.328 514.49 478.592C514.49 479.856 514.194 480.992 513.602 482C513.026 482.992 512.218 483.768 511.178 484.328C510.138 484.888 508.962 485.168 507.65 485.168ZM507.65 482.6C508.754 482.6 509.666 482.232 510.386 481.496C511.106 480.76 511.466 479.792 511.466 478.592C511.466 477.392 511.106 476.424 510.386 475.688C509.666 474.952 508.754 474.584 507.65 474.584C506.546 474.584 505.634 474.952 504.914 475.688C504.21 476.424 503.858 477.392 503.858 478.592C503.858 479.792 504.21 480.76 504.914 481.496C505.634 482.232 506.546 482.6 507.65 482.6ZM524.463 472.04C525.711 472.04 526.823 472.312 527.799 472.856C528.791 473.4 529.567 474.168 530.127 475.16C530.687 476.152 530.967 477.296 530.967 478.592C530.967 479.888 530.687 481.04 530.127 482.048C529.567 483.04 528.791 483.808 527.799 484.352C526.823 484.896 525.711 485.168 524.463 485.168C523.583 485.168 522.775 485.016 522.039 484.712C521.319 484.408 520.711 483.952 520.215 483.344V485H517.359V467.192H520.359V473.744C520.871 473.184 521.471 472.76 522.159 472.472C522.863 472.184 523.631 472.04 524.463 472.04ZM524.127 482.6C525.231 482.6 526.135 482.232 526.839 481.496C527.559 480.76 527.919 479.792 527.919 478.592C527.919 477.392 527.559 476.424 526.839 475.688C526.135 474.952 525.231 474.584 524.127 474.584C523.407 474.584 522.759 474.752 522.183 475.088C521.607 475.408 521.151 475.872 520.815 476.48C520.479 477.088 520.311 477.792 520.311 478.592C520.311 479.392 520.479 480.096 520.815 480.704C521.151 481.312 521.607 481.784 522.183 482.12C522.759 482.44 523.407 482.6 524.127 482.6ZM533.812 472.184H536.812V485H533.812V472.184ZM535.324 470.072C534.78 470.072 534.324 469.904 533.956 469.568C533.588 469.216 533.404 468.784 533.404 468.272C533.404 467.76 533.588 467.336 533.956 467C534.324 466.648 534.78 466.472 535.324 466.472C535.868 466.472 536.324 466.64 536.692 466.976C537.06 467.296 537.244 467.704 537.244 468.2C537.244 468.728 537.06 469.176 536.692 469.544C536.34 469.896 535.884 470.072 535.324 470.072ZM540.749 467.192H543.749V485H540.749V467.192ZM559.735 478.664C559.735 478.872 559.719 479.168 559.687 479.552H549.631C549.807 480.496 550.263 481.248 550.999 481.808C551.751 482.352 552.679 482.624 553.783 482.624C555.191 482.624 556.351 482.16 557.263 481.232L558.871 483.08C558.295 483.768 557.567 484.288 556.687 484.64C555.807 484.992 554.815 485.168 553.711 485.168C552.303 485.168 551.063 484.888 549.991 484.328C548.919 483.768 548.087 482.992 547.495 482C546.919 480.992 546.631 479.856 546.631 478.592C546.631 477.344 546.911 476.224 547.471 475.232C548.047 474.224 548.839 473.44 549.847 472.88C550.855 472.32 551.991 472.04 553.255 472.04C554.503 472.04 555.615 472.32 556.591 472.88C557.583 473.424 558.351 474.2 558.895 475.208C559.455 476.2 559.735 477.352 559.735 478.664ZM553.255 474.44C552.295 474.44 551.479 474.728 550.807 475.304C550.151 475.864 549.751 476.616 549.607 477.56H556.879C556.751 476.632 556.359 475.88 555.703 475.304C555.047 474.728 554.231 474.44 553.255 474.44ZM584.969 485L584.945 473.864L579.425 483.08H578.033L572.513 474.008V485H569.537V468.2H572.105L578.777 479.336L585.329 468.2H587.897L587.921 485H584.969ZM597.931 485.168C596.635 485.168 595.467 484.888 594.427 484.328C593.387 483.768 592.571 482.992 591.979 482C591.403 480.992 591.115 479.856 591.115 478.592C591.115 477.328 591.403 476.2 591.979 475.208C592.571 474.216 593.387 473.44 594.427 472.88C595.467 472.32 596.635 472.04 597.931 472.04C599.243 472.04 600.419 472.32 601.459 472.88C602.499 473.44 603.307 474.216 603.883 475.208C604.475 476.2 604.771 477.328 604.771 478.592C604.771 479.856 604.475 480.992 603.883 482C603.307 482.992 602.499 483.768 601.459 484.328C600.419 484.888 599.243 485.168 597.931 485.168ZM597.931 482.6C599.035 482.6 599.947 482.232 600.667 481.496C601.387 480.76 601.747 479.792 601.747 478.592C601.747 477.392 601.387 476.424 600.667 475.688C599.947 474.952 599.035 474.584 597.931 474.584C596.827 474.584 595.915 474.952 595.195 475.688C594.491 476.424 594.139 477.392 594.139 478.592C594.139 479.792 594.491 480.76 595.195 481.496C595.915 482.232 596.827 482.6 597.931 482.6ZM613.52 485.168C612.192 485.168 611 484.888 609.944 484.328C608.888 483.768 608.064 482.992 607.472 482C606.88 480.992 606.584 479.856 606.584 478.592C606.584 477.328 606.88 476.2 607.472 475.208C608.064 474.216 608.88 473.44 609.92 472.88C610.976 472.32 612.176 472.04 613.52 472.04C614.784 472.04 615.888 472.296 616.832 472.808C617.792 473.32 618.512 474.056 618.992 475.016L616.688 476.36C616.32 475.768 615.856 475.328 615.296 475.04C614.752 474.736 614.152 474.584 613.496 474.584C612.376 474.584 611.448 474.952 610.712 475.688C609.976 476.408 609.608 477.376 609.608 478.592C609.608 479.808 609.968 480.784 610.688 481.52C611.424 482.24 612.36 482.6 613.496 482.6C614.152 482.6 614.752 482.456 615.296 482.168C615.856 481.864 616.32 481.416 616.688 480.824L618.992 482.168C618.496 483.128 617.768 483.872 616.808 484.4C615.864 484.912 614.768 485.168 613.52 485.168ZM626.7 479.504L624.468 481.616V485H621.468V467.192H624.468V477.944L630.684 472.184H634.284L628.932 477.56L634.788 485H631.14L626.7 479.504ZM648.899 472.184V485H646.043V483.368C645.563 483.944 644.963 484.392 644.243 484.712C643.523 485.016 642.747 485.168 641.915 485.168C640.203 485.168 638.851 484.696 637.859 483.752C636.883 482.792 636.395 481.376 636.395 479.504V472.184H639.395V479.096C639.395 480.248 639.651 481.112 640.163 481.688C640.691 482.248 641.435 482.528 642.395 482.528C643.467 482.528 644.315 482.2 644.939 481.544C645.579 480.872 645.899 479.912 645.899 478.664V472.184H648.899ZM659.931 472.04C661.179 472.04 662.291 472.312 663.267 472.856C664.259 473.4 665.035 474.168 665.595 475.16C666.155 476.152 666.435 477.296 666.435 478.592C666.435 479.888 666.155 481.04 665.595 482.048C665.035 483.04 664.259 483.808 663.267 484.352C662.291 484.896 661.179 485.168 659.931 485.168C658.203 485.168 656.835 484.592 655.827 483.44V489.656H652.827V472.184H655.683V473.864C656.179 473.256 656.787 472.8 657.507 472.496C658.243 472.192 659.051 472.04 659.931 472.04ZM659.595 482.6C660.699 482.6 661.603 482.232 662.307 481.496C663.027 480.76 663.387 479.792 663.387 478.592C663.387 477.392 663.027 476.424 662.307 475.688C661.603 474.952 660.699 474.584 659.595 474.584C658.875 474.584 658.227 474.752 657.651 475.088C657.075 475.408 656.619 475.872 656.283 476.48C655.947 477.088 655.779 477.792 655.779 478.592C655.779 479.392 655.947 480.096 656.283 480.704C656.619 481.312 657.075 481.784 657.651 482.12C658.227 482.44 658.875 482.6 659.595 482.6ZM676.201 468.2H683.545C685.337 468.2 686.929 468.552 688.321 469.256C689.713 469.944 690.793 470.928 691.561 472.208C692.329 473.472 692.713 474.936 692.713 476.6C692.713 478.264 692.329 479.736 691.561 481.016C690.793 482.28 689.713 483.264 688.321 483.968C686.929 484.656 685.337 485 683.545 485H676.201V468.2ZM683.401 482.36C684.633 482.36 685.713 482.128 686.641 481.664C687.585 481.184 688.305 480.512 688.801 479.648C689.313 478.768 689.569 477.752 689.569 476.6C689.569 475.448 689.313 474.44 688.801 473.576C688.305 472.696 687.585 472.024 686.641 471.56C685.713 471.08 684.633 470.84 683.401 470.84H679.321V482.36H683.401ZM707.789 478.664C707.789 478.872 707.773 479.168 707.741 479.552H697.685C697.861 480.496 698.317 481.248 699.053 481.808C699.805 482.352 700.733 482.624 701.837 482.624C703.245 482.624 704.405 482.16 705.317 481.232L706.925 483.08C706.349 483.768 705.621 484.288 704.741 484.64C703.861 484.992 702.869 485.168 701.765 485.168C700.357 485.168 699.117 484.888 698.045 484.328C696.973 483.768 696.141 482.992 695.549 482C694.973 480.992 694.685 479.856 694.685 478.592C694.685 477.344 694.965 476.224 695.525 475.232C696.101 474.224 696.893 473.44 697.901 472.88C698.909 472.32 700.045 472.04 701.309 472.04C702.557 472.04 703.669 472.32 704.645 472.88C705.637 473.424 706.405 474.2 706.949 475.208C707.509 476.2 707.789 477.352 707.789 478.664ZM701.309 474.44C700.349 474.44 699.533 474.728 698.861 475.304C698.205 475.864 697.805 476.616 697.661 477.56H704.933C704.805 476.632 704.413 475.88 703.757 475.304C703.101 474.728 702.285 474.44 701.309 474.44ZM714.631 485.168C713.591 485.168 712.575 485.032 711.583 484.76C710.591 484.488 709.799 484.144 709.207 483.728L710.359 481.448C710.935 481.832 711.623 482.144 712.423 482.384C713.239 482.608 714.039 482.72 714.823 482.72C716.615 482.72 717.511 482.248 717.511 481.304C717.511 480.856 717.279 480.544 716.815 480.368C716.367 480.192 715.639 480.024 714.631 479.864C713.575 479.704 712.711 479.52 712.039 479.312C711.383 479.104 710.807 478.744 710.311 478.232C709.831 477.704 709.591 476.976 709.591 476.048C709.591 474.832 710.095 473.864 711.103 473.144C712.127 472.408 713.503 472.04 715.231 472.04C716.111 472.04 716.991 472.144 717.871 472.352C718.751 472.544 719.471 472.808 720.031 473.144L718.879 475.424C717.791 474.784 716.567 474.464 715.207 474.464C714.327 474.464 713.655 474.6 713.191 474.872C712.743 475.128 712.519 475.472 712.519 475.904C712.519 476.384 712.759 476.728 713.239 476.936C713.735 477.128 714.495 477.312 715.519 477.488C716.543 477.648 717.383 477.832 718.039 478.04C718.695 478.248 719.255 478.6 719.719 479.096C720.199 479.592 720.439 480.296 720.439 481.208C720.439 482.408 719.919 483.368 718.879 484.088C717.839 484.808 716.423 485.168 714.631 485.168ZM723.023 472.184H726.023V485H723.023V472.184ZM724.535 470.072C723.991 470.072 723.535 469.904 723.167 469.568C722.799 469.216 722.615 468.784 722.615 468.272C722.615 467.76 722.799 467.336 723.167 467C723.535 466.648 723.991 466.472 724.535 466.472C725.079 466.472 725.535 466.64 725.903 466.976C726.271 467.296 726.455 467.704 726.455 468.2C726.455 468.728 726.271 469.176 725.903 469.544C725.551 469.896 725.095 470.072 724.535 470.072ZM742.68 472.184V483.056C742.68 487.568 740.376 489.824 735.768 489.824C734.536 489.824 733.368 489.664 732.264 489.344C731.16 489.04 730.248 488.592 729.528 488L730.872 485.744C731.432 486.208 732.136 486.576 732.984 486.848C733.848 487.136 734.72 487.28 735.6 487.28C737.008 487.28 738.04 486.96 738.696 486.32C739.352 485.68 739.68 484.704 739.68 483.392V482.72C739.168 483.28 738.544 483.704 737.808 483.992C737.072 484.28 736.264 484.424 735.384 484.424C734.168 484.424 733.064 484.168 732.072 483.656C731.096 483.128 730.32 482.392 729.744 481.448C729.184 480.504 728.904 479.424 728.904 478.208C728.904 476.992 729.184 475.92 729.744 474.992C730.32 474.048 731.096 473.32 732.072 472.808C733.064 472.296 734.168 472.04 735.384 472.04C736.312 472.04 737.152 472.192 737.904 472.496C738.672 472.8 739.312 473.264 739.824 473.888V472.184H742.68ZM735.84 481.88C736.976 481.88 737.904 481.544 738.624 480.872C739.36 480.184 739.728 479.296 739.728 478.208C739.728 477.136 739.36 476.264 738.624 475.592C737.904 474.92 736.976 474.584 735.84 474.584C734.688 474.584 733.744 474.92 733.008 475.592C732.288 476.264 731.928 477.136 731.928 478.208C731.928 479.296 732.288 480.184 733.008 480.872C733.744 481.544 734.688 481.88 735.84 481.88ZM753.896 472.04C755.512 472.04 756.808 472.512 757.784 473.456C758.76 474.4 759.248 475.8 759.248 477.656V485H756.248V478.04C756.248 476.92 755.984 476.08 755.456 475.52C754.928 474.944 754.176 474.656 753.2 474.656C752.096 474.656 751.224 474.992 750.584 475.664C749.944 476.32 749.624 477.272 749.624 478.52V485H746.624V472.184H749.48V473.84C749.976 473.248 750.6 472.8 751.352 472.496C752.104 472.192 752.952 472.04 753.896 472.04Z" fill="white"/>
<rect y="284" width="424" height="544" rx="8" fill="#D9D9D9"/>
<rect x="896" width="424" height="260" rx="8" fill="#D9D9D9"/>
<rect x="448" y="568" width="424" height="260" rx="8" fill="#D9D9D9"/>
<rect x="896" y="284" width="424" height="544" rx="8" fill="#D9D9D9"/>
</svg>
