<svg width="106" height="15" viewBox="0 0 106 15" fill="none" xmlns="http://www.w3.org/2000/svg">
<path d="M30.968 13V12.032V11.52C30.968 10.9333 31.0773 10.424 31.296 9.992C31.52 9.56 31.8133 9.184 32.176 8.864C32.5387 8.53867 32.936 8.25067 33.368 8C33.8053 7.74933 34.24 7.50933 34.672 7.28C35.104 7.05067 35.5013 6.81333 35.864 6.568C36.2267 6.31733 36.5173 6.03733 36.736 5.728C36.96 5.41333 37.072 5.04533 37.072 4.624C37.072 4.06933 36.8773 3.61867 36.488 3.272C36.0987 2.92533 35.5707 2.752 34.904 2.752C34.1947 2.752 33.6187 2.952 33.176 3.352C32.7333 3.752 32.4773 4.304 32.408 5.008H30.728C30.744 4.32 30.912 3.69333 31.232 3.128C31.552 2.56267 32.024 2.112 32.648 1.776C33.272 1.44 34.0453 1.272 34.968 1.272C35.768 1.272 36.4587 1.41333 37.04 1.696C37.6267 1.97333 38.08 2.36267 38.4 2.864C38.72 3.36533 38.88 3.94933 38.88 4.616C38.88 5.208 38.7707 5.71733 38.552 6.144C38.3333 6.57067 38.0453 6.93867 37.688 7.248C37.336 7.55733 36.9467 7.832 36.52 8.072C36.0933 8.30667 35.6667 8.53333 35.24 8.752C34.8133 8.96533 34.4213 9.192 34.064 9.432C33.7067 9.66667 33.4187 9.93333 33.2 10.232C32.9813 10.5307 32.872 10.8907 32.872 11.312V11.512H38.92V13H30.968ZM40.5831 4.856C40.5831 4.08267 40.7671 3.432 41.1351 2.904C41.5085 2.37067 42.0045 1.96533 42.6231 1.688C43.2471 1.41067 43.9378 1.272 44.6951 1.272C45.5111 1.272 46.2338 1.38667 46.8631 1.616C47.4925 1.84533 47.9858 2.184 48.3431 2.632C48.7058 3.08 48.8871 3.632 48.8871 4.288C48.8871 4.85867 48.7085 5.37333 48.3511 5.832C47.9991 6.28533 47.4498 6.64 46.7031 6.896C47.1885 7.02933 47.6178 7.22667 47.9911 7.488C48.3645 7.744 48.6551 8.064 48.8631 8.448C49.0765 8.832 49.1831 9.27733 49.1831 9.784C49.1831 10.3227 49.0685 10.8027 48.8391 11.224C48.6098 11.6453 48.2898 12.0027 47.8791 12.296C47.4685 12.5893 46.9858 12.8107 46.4311 12.96C45.8765 13.1093 45.2765 13.1813 44.6311 13.176C43.7991 13.1707 43.0738 13.024 42.4551 12.736C41.8365 12.4427 41.3538 12.0293 41.0071 11.496C40.6605 10.9627 40.4765 10.3333 40.4551 9.608H42.1431C42.2551 10.3067 42.5378 10.8373 42.9911 11.2C43.4498 11.5573 44.0125 11.736 44.6791 11.736C45.2231 11.736 45.6925 11.6533 46.0871 11.488C46.4871 11.3173 46.7965 11.0853 47.0151 10.792C47.2338 10.4933 47.3431 10.1467 47.3431 9.752C47.3431 9.32533 47.2231 8.96267 46.9831 8.664C46.7485 8.36533 46.4231 8.13867 46.0071 7.984C45.5965 7.824 45.1351 7.73867 44.6231 7.728L43.5591 7.704V6.28L44.5511 6.248C45.0365 6.23733 45.4658 6.14667 45.8391 5.976C46.2178 5.8 46.5138 5.57067 46.7271 5.288C46.9405 5.00533 47.0471 4.69333 47.0471 4.352C47.0471 4.04267 46.9511 3.76 46.7591 3.504C46.5725 3.248 46.3005 3.04533 45.9431 2.896C45.5911 2.74133 45.1671 2.664 44.6711 2.664C44.2711 2.664 43.8898 2.73867 43.5271 2.888C43.1698 3.03733 42.8738 3.27467 42.6391 3.6C42.4098 3.92 42.2845 4.33867 42.2631 4.856H40.5831ZM58.5615 13H56.7855L54.2975 9.008L52.8095 10.552V13H51.0975V1.112H52.8095V8.672L56.4655 4.728H58.3855L55.3935 7.92L58.5615 13ZM67.0873 6.528V7.832L59.9993 7.84V6.536L67.0873 6.528ZM64.2073 10.72H62.9033L62.8953 3.632H64.1993L64.2073 10.72ZM79.3781 4.728L76.3701 13H74.9221L71.9061 4.728H73.4901L75.5861 10.832H75.6981L77.7941 4.728H79.3781ZM82.6711 4.728V13H81.0231V4.728H82.6711ZM82.7031 1.44V3.128H80.9831V1.44H82.7031ZM86.4248 9.264C86.4248 9.76 86.5048 10.2053 86.6648 10.6C86.8301 10.9893 87.0781 11.2987 87.4088 11.528C87.7394 11.752 88.1501 11.864 88.6408 11.864C89.1314 11.864 89.5554 11.752 89.9128 11.528C90.2754 11.304 90.5128 10.9707 90.6248 10.528H92.2088C92.1128 11.0933 91.8861 11.5733 91.5288 11.968C91.1768 12.3627 90.7501 12.6613 90.2488 12.864C89.7474 13.0613 89.2221 13.16 88.6727 13.16C87.8888 13.16 87.1981 12.992 86.6008 12.656C86.0034 12.3147 85.5368 11.8293 85.2008 11.2C84.8701 10.5707 84.7048 9.82133 84.7048 8.952C84.7048 8.09333 84.8568 7.336 85.1608 6.68C85.4648 6.01867 85.9048 5.50133 86.4808 5.128C87.0568 4.75467 87.7501 4.568 88.5608 4.568C89.3608 4.568 90.0328 4.73867 90.5768 5.08C91.1261 5.42133 91.5421 5.90133 91.8248 6.52C92.1074 7.13333 92.2488 7.85867 92.2488 8.696V9.264H86.4248ZM86.4248 8.152H90.6168C90.6168 7.72 90.5421 7.328 90.3928 6.976C90.2434 6.61867 90.0141 6.33867 89.7048 6.136C89.4008 5.928 89.0168 5.824 88.5528 5.824C88.0781 5.824 87.6834 5.93867 87.3688 6.168C87.0541 6.39733 86.8168 6.69067 86.6568 7.048C86.5021 7.40533 86.4248 7.77333 86.4248 8.152ZM104.895 4.728L102.327 13H100.759L98.9671 7.192L97.2471 13H95.7031L93.1111 4.728H94.6711L96.4791 10.752H96.5911L98.3591 4.728H99.6311L101.455 10.736H101.567L103.311 4.728H104.895Z" fill="white"/>
<path d="M19.9603 7.10687C19.1762 5.07858 17.8149 3.32451 16.0447 2.06145C14.2745 0.798393 12.1731 0.0817176 10 0C7.82695 0.0817176 5.72547 0.798393 3.9553 2.06145C2.18512 3.32451 0.823847 5.07858 0.0397175 7.10687C-0.0132392 7.25334 -0.0132392 7.41374 0.0397175 7.56021C0.823847 9.58851 2.18512 11.3426 3.9553 12.6056C5.72547 13.8687 7.82695 14.5854 10 14.6671C12.1731 14.5854 14.2745 13.8687 16.0447 12.6056C17.8149 11.3426 19.1762 9.58851 19.9603 7.56021C20.0132 7.41374 20.0132 7.25334 19.9603 7.10687ZM10 13.3337C6.46657 13.3337 2.73313 10.7136 1.37976 7.33354C2.73313 3.95345 6.46657 1.33337 10 1.33337C13.5334 1.33337 17.2669 3.95345 18.6202 7.33354C17.2669 10.7136 13.5334 13.3337 10 13.3337Z" fill="#FE461C"/>
<path d="M9.99996 3.33337C9.20881 3.33337 8.43543 3.56798 7.77762 4.00752C7.1198 4.44705 6.6071 5.07179 6.30434 5.80271C6.00158 6.53364 5.92237 7.33792 6.07671 8.11387C6.23106 8.88982 6.61203 9.60257 7.17146 10.162C7.73088 10.7214 8.44363 11.1024 9.21958 11.2567C9.99553 11.4111 10.7998 11.3319 11.5307 11.0291C12.2617 10.7264 12.8864 10.2136 13.3259 9.55583C13.7655 8.89802 14.0001 8.12464 14.0001 7.33349C14.0001 6.27259 13.5786 5.25515 12.8285 4.50498C12.0783 3.75481 11.0609 3.33337 9.99996 3.33337ZM9.99996 10.0002C9.47253 10.0002 8.95694 9.84383 8.5184 9.5508C8.07986 9.25778 7.73805 8.84129 7.53621 8.35401C7.33437 7.86672 7.28156 7.33053 7.38446 6.81323C7.48736 6.29593 7.74134 5.82077 8.11429 5.44782C8.48724 5.07487 8.96241 4.82088 9.47971 4.71799C9.997 4.61509 10.5332 4.6679 11.0205 4.86974C11.5078 5.07158 11.9243 5.41338 12.2173 5.85193C12.5103 6.29047 12.6667 6.80606 12.6667 7.33349C12.6667 8.04075 12.3857 8.71905 11.8856 9.21916C11.3855 9.71927 10.7072 10.0002 9.99996 10.0002Z" fill="#FE461C"/>
</svg>
