<svg width="98" height="228" viewBox="0 0 98 228" fill="none" xmlns="http://www.w3.org/2000/svg">
<g filter="url(#filter0_d_2_4334)">
<rect x="24" y="24" width="50" height="50" rx="4" fill="#24263B"/>
</g>
<path d="M44.6406 56V45.4883H41.3711V56H44.6406ZM42.9883 44.082C44.043 44.082 44.8867 43.2031 44.8867 42.1484C44.8867 41.1289 44.043 40.2852 42.9883 40.2852C41.9688 40.2852 41.125 41.1289 41.125 42.1484C41.125 43.2031 41.9688 44.082 42.9883 44.082ZM56.8398 56H56.875V50.2344C56.875 47.4219 56.2422 45.2422 52.9375 45.2422C51.3555 45.2422 50.3008 46.1211 49.8438 46.9297H49.8086V45.4883H46.6797V56H49.9492V50.7969C49.9492 49.4258 50.1953 48.125 51.8828 48.125C53.5703 48.125 53.6055 49.6719 53.6055 50.9023V56H56.8398Z" fill="white"/>
<g filter="url(#filter1_d_2_4334)">
<rect x="24" y="89" width="50" height="50" rx="4" fill="#24263B"/>
</g>
<path d="M49 109.207C46.75 109.207 44.957 111.035 44.957 113.25C44.957 115.5 46.75 117.293 49 117.293C51.2148 117.293 53.043 115.5 53.043 113.25C53.043 111.035 51.2148 109.207 49 109.207ZM49 115.887C47.5586 115.887 46.3633 114.727 46.3633 113.25C46.3633 111.809 47.5234 110.648 49 110.648C50.4414 110.648 51.6016 111.809 51.6016 113.25C51.6016 114.727 50.4414 115.887 49 115.887ZM54.1328 109.066C54.1328 108.539 53.7109 108.117 53.1836 108.117C52.6562 108.117 52.2344 108.539 52.2344 109.066C52.2344 109.594 52.6562 110.016 53.1836 110.016C53.7109 110.016 54.1328 109.594 54.1328 109.066ZM56.8047 110.016C56.7344 108.75 56.4531 107.625 55.5391 106.711C54.625 105.797 53.5 105.516 52.2344 105.445C50.9336 105.375 47.0312 105.375 45.7305 105.445C44.4648 105.516 43.375 105.797 42.4258 106.711C41.5117 107.625 41.2305 108.75 41.1602 110.016C41.0898 111.316 41.0898 115.219 41.1602 116.52C41.2305 117.785 41.5117 118.875 42.4258 119.824C43.375 120.738 44.4648 121.02 45.7305 121.09C47.0312 121.16 50.9336 121.16 52.2344 121.09C53.5 121.02 54.625 120.738 55.5391 119.824C56.4531 118.875 56.7344 117.785 56.8047 116.52C56.875 115.219 56.875 111.316 56.8047 110.016ZM55.1172 117.891C54.8711 118.594 54.3086 119.121 53.6406 119.402C52.5859 119.824 50.125 119.719 49 119.719C47.8398 119.719 45.3789 119.824 44.3594 119.402C43.6562 119.121 43.1289 118.594 42.8477 117.891C42.4258 116.871 42.5312 114.41 42.5312 113.25C42.5312 112.125 42.4258 109.664 42.8477 108.609C43.1289 107.941 43.6562 107.414 44.3594 107.133C45.3789 106.711 47.8398 106.816 49 106.816C50.125 106.816 52.5859 106.711 53.6406 107.133C54.3086 107.379 54.8359 107.941 55.1172 108.609C55.5391 109.664 55.4336 112.125 55.4336 113.25C55.4336 114.41 55.5391 116.871 55.1172 117.891Z" fill="white"/>
<g filter="url(#filter2_d_2_4334)">
<rect x="24" y="154" width="50" height="50" rx="4" fill="#24263B"/>
</g>
<path d="M47.0312 178.617C48.1211 178.055 48.7188 177.246 48.7188 176.016C48.7188 173.52 46.8555 172.922 44.7461 172.922H38.875V185.367H44.8867C47.1719 185.367 49.2812 184.277 49.2812 181.746C49.2812 180.199 48.543 179.039 47.0312 178.617ZM41.582 175.031H44.1836C45.168 175.031 46.0469 175.312 46.0469 176.473C46.0469 177.527 45.3438 177.949 44.3594 177.949H41.582V175.031ZM44.5352 183.258H41.582V179.812H44.5703C45.8008 179.812 46.5391 180.34 46.5391 181.605C46.5391 182.871 45.625 183.258 44.5352 183.258ZM57.1211 174.785V173.555H52.0938V174.785H57.1211ZM59.125 181.008C59.125 178.336 57.543 176.086 54.7305 176.086C51.9531 176.086 50.0898 178.16 50.0898 180.867C50.0898 183.68 51.8828 185.613 54.7305 185.613C56.875 185.613 58.2812 184.629 58.9492 182.59H56.7695C56.5234 183.363 55.5391 183.75 54.8008 183.75C53.3594 183.75 52.5859 182.906 52.5859 181.465H59.0898C59.0898 181.324 59.125 181.148 59.125 181.008ZM52.5859 179.883C52.6562 178.723 53.4648 177.984 54.625 177.984C55.8906 177.984 56.5234 178.688 56.6289 179.883H52.5859Z" fill="white"/>
<defs>
<filter id="filter0_d_2_4334" x="0" y="0" width="98" height="98" filterUnits="userSpaceOnUse" color-interpolation-filters="sRGB">
<feFlood flood-opacity="0" result="BackgroundImageFix"/>
<feColorMatrix in="SourceAlpha" type="matrix" values="0 0 0 0 0 0 0 0 0 0 0 0 0 0 0 0 0 0 127 0" result="hardAlpha"/>
<feOffset/>
<feGaussianBlur stdDeviation="12"/>
<feColorMatrix type="matrix" values="0 0 0 0 0.0590972 0 0 0 0 0.0622917 0 0 0 0 0.0958333 0 0 0 0.42 0"/>
<feBlend mode="normal" in2="BackgroundImageFix" result="effect1_dropShadow_2_4334"/>
<feBlend mode="normal" in="SourceGraphic" in2="effect1_dropShadow_2_4334" result="shape"/>
</filter>
<filter id="filter1_d_2_4334" x="0" y="65" width="98" height="98" filterUnits="userSpaceOnUse" color-interpolation-filters="sRGB">
<feFlood flood-opacity="0" result="BackgroundImageFix"/>
<feColorMatrix in="SourceAlpha" type="matrix" values="0 0 0 0 0 0 0 0 0 0 0 0 0 0 0 0 0 0 127 0" result="hardAlpha"/>
<feOffset/>
<feGaussianBlur stdDeviation="12"/>
<feColorMatrix type="matrix" values="0 0 0 0 0.0590972 0 0 0 0 0.0622917 0 0 0 0 0.0958333 0 0 0 0.42 0"/>
<feBlend mode="normal" in2="BackgroundImageFix" result="effect1_dropShadow_2_4334"/>
<feBlend mode="normal" in="SourceGraphic" in2="effect1_dropShadow_2_4334" result="shape"/>
</filter>
<filter id="filter2_d_2_4334" x="0" y="130" width="98" height="98" filterUnits="userSpaceOnUse" color-interpolation-filters="sRGB">
<feFlood flood-opacity="0" result="BackgroundImageFix"/>
<feColorMatrix in="SourceAlpha" type="matrix" values="0 0 0 0 0 0 0 0 0 0 0 0 0 0 0 0 0 0 127 0" result="hardAlpha"/>
<feOffset/>
<feGaussianBlur stdDeviation="12"/>
<feColorMatrix type="matrix" values="0 0 0 0 0.0590972 0 0 0 0 0.0622917 0 0 0 0 0.0958333 0 0 0 0.42 0"/>
<feBlend mode="normal" in2="BackgroundImageFix" result="effect1_dropShadow_2_4334"/>
<feBlend mode="normal" in="SourceGraphic" in2="effect1_dropShadow_2_4334" result="shape"/>
</filter>
</defs>
</svg>
